<mxfile host="app.diagrams.net" modified="2024-03-30T05:21:36.847Z" agent="Mozilla/5.0 (Macintosh; Intel Mac OS X 10_15_7) AppleWebKit/537.36 (KHTML, like Gecko) Chrome/121.0.0.0 Safari/537.36" etag="RS_QK1Uz1nSVEWhrJKPI" version="22.1.18" type="github">
  <diagram name="第 1 页" id="gh2DQCzk0McrEim-r_W0">
    <mxGraphModel dx="2380" dy="2152" grid="1" gridSize="10" guides="1" tooltips="1" connect="1" arrows="1" fold="1" page="1" pageScale="1" pageWidth="827" pageHeight="1169" math="0" shadow="0">
      <root>
        <mxCell id="0" />
        <mxCell id="1" parent="0" />
        <mxCell id="1ga72cSjbWooDJT9AYzO-54" value="" style="rounded=0;whiteSpace=wrap;html=1;" vertex="1" parent="1">
          <mxGeometry x="-130" y="259" width="1150" height="951" as="geometry" />
        </mxCell>
        <mxCell id="1ga72cSjbWooDJT9AYzO-67" value="&lt;u&gt;详情&lt;/u&gt;" style="rounded=0;whiteSpace=wrap;html=1;fillColor=#f5f5f5;fontColor=#333333;strokeColor=#666666;" vertex="1" parent="1">
          <mxGeometry x="-130" y="250" width="1150" height="40" as="geometry" />
        </mxCell>
        <mxCell id="1ga72cSjbWooDJT9AYzO-5" value="" style="rounded=0;whiteSpace=wrap;html=1;" vertex="1" parent="1">
          <mxGeometry x="230" y="90" width="600" height="40" as="geometry" />
        </mxCell>
        <mxCell id="1ga72cSjbWooDJT9AYzO-7" value="" style="rounded=0;whiteSpace=wrap;html=1;" vertex="1" parent="1">
          <mxGeometry x="70" y="-80" width="600" height="200" as="geometry" />
        </mxCell>
        <mxCell id="1ga72cSjbWooDJT9AYzO-8" value="" style="rounded=0;whiteSpace=wrap;html=1;" vertex="1" parent="1">
          <mxGeometry x="70" y="-80" width="600" height="40" as="geometry" />
        </mxCell>
        <mxCell id="1ga72cSjbWooDJT9AYzO-9" value="" style="rounded=0;whiteSpace=wrap;html=1;" vertex="1" parent="1">
          <mxGeometry x="100" y="-20" width="560" height="130" as="geometry" />
        </mxCell>
        <mxCell id="1ga72cSjbWooDJT9AYzO-31" style="edgeStyle=orthogonalEdgeStyle;rounded=0;orthogonalLoop=1;jettySize=auto;html=1;exitX=1;exitY=0.5;exitDx=0;exitDy=0;" edge="1" parent="1" target="1ga72cSjbWooDJT9AYzO-20">
          <mxGeometry relative="1" as="geometry">
            <mxPoint x="230" y="1340" as="sourcePoint" />
          </mxGeometry>
        </mxCell>
        <mxCell id="1ga72cSjbWooDJT9AYzO-14" value="资源2" style="rounded=0;whiteSpace=wrap;html=1;" vertex="1" parent="1">
          <mxGeometry x="110" y="1310" width="120" height="40" as="geometry" />
        </mxCell>
        <mxCell id="1ga72cSjbWooDJT9AYzO-19" value="&lt;span style=&quot;color: rgb(0, 0, 0); font-family: Helvetica; font-size: 12px; font-style: normal; font-variant-ligatures: normal; font-variant-caps: normal; font-weight: 400; letter-spacing: normal; orphans: 2; text-align: center; text-indent: 0px; text-transform: none; widows: 2; word-spacing: 0px; -webkit-text-stroke-width: 0px; background-color: rgb(251, 251, 251); text-decoration-thickness: initial; text-decoration-style: initial; text-decoration-color: initial; float: none; display: inline !important;&quot;&gt;资源组1&lt;/span&gt;" style="rounded=0;whiteSpace=wrap;html=1;" vertex="1" parent="1">
          <mxGeometry x="280" y="1270" width="120" height="40" as="geometry" />
        </mxCell>
        <mxCell id="1ga72cSjbWooDJT9AYzO-32" style="edgeStyle=orthogonalEdgeStyle;rounded=0;orthogonalLoop=1;jettySize=auto;html=1;exitX=1;exitY=0.5;exitDx=0;exitDy=0;entryX=0;entryY=0.5;entryDx=0;entryDy=0;" edge="1" parent="1" source="1ga72cSjbWooDJT9AYzO-20" target="1ga72cSjbWooDJT9AYzO-22">
          <mxGeometry relative="1" as="geometry" />
        </mxCell>
        <mxCell id="1ga72cSjbWooDJT9AYzO-33" style="edgeStyle=orthogonalEdgeStyle;rounded=0;orthogonalLoop=1;jettySize=auto;html=1;exitX=1;exitY=0.5;exitDx=0;exitDy=0;" edge="1" parent="1" source="1ga72cSjbWooDJT9AYzO-20" target="1ga72cSjbWooDJT9AYzO-23">
          <mxGeometry relative="1" as="geometry" />
        </mxCell>
        <mxCell id="1ga72cSjbWooDJT9AYzO-34" style="edgeStyle=orthogonalEdgeStyle;rounded=0;orthogonalLoop=1;jettySize=auto;html=1;exitX=1;exitY=0.5;exitDx=0;exitDy=0;entryX=0;entryY=0.5;entryDx=0;entryDy=0;" edge="1" parent="1" source="1ga72cSjbWooDJT9AYzO-20" target="1ga72cSjbWooDJT9AYzO-24">
          <mxGeometry relative="1" as="geometry" />
        </mxCell>
        <mxCell id="1ga72cSjbWooDJT9AYzO-20" value="资源组2" style="rounded=0;whiteSpace=wrap;html=1;" vertex="1" parent="1">
          <mxGeometry x="280" y="1320" width="120" height="40" as="geometry" />
        </mxCell>
        <mxCell id="1ga72cSjbWooDJT9AYzO-21" value="&lt;span style=&quot;color: rgb(0, 0, 0); font-family: Helvetica; font-size: 12px; font-style: normal; font-variant-ligatures: normal; font-variant-caps: normal; font-weight: 400; letter-spacing: normal; orphans: 2; text-align: center; text-indent: 0px; text-transform: none; widows: 2; word-spacing: 0px; -webkit-text-stroke-width: 0px; background-color: rgb(251, 251, 251); text-decoration-thickness: initial; text-decoration-style: initial; text-decoration-color: initial; float: none; display: inline !important;&quot;&gt;资源组3&lt;/span&gt;" style="rounded=0;whiteSpace=wrap;html=1;" vertex="1" parent="1">
          <mxGeometry x="280" y="1370" width="120" height="40" as="geometry" />
        </mxCell>
        <mxCell id="1ga72cSjbWooDJT9AYzO-22" value="优惠券" style="rounded=0;whiteSpace=wrap;html=1;" vertex="1" parent="1">
          <mxGeometry x="450" y="1270" width="120" height="40" as="geometry" />
        </mxCell>
        <mxCell id="1ga72cSjbWooDJT9AYzO-35" style="edgeStyle=orthogonalEdgeStyle;rounded=0;orthogonalLoop=1;jettySize=auto;html=1;exitX=1;exitY=0.5;exitDx=0;exitDy=0;entryX=0;entryY=0.5;entryDx=0;entryDy=0;" edge="1" parent="1" source="1ga72cSjbWooDJT9AYzO-23" target="1ga72cSjbWooDJT9AYzO-25">
          <mxGeometry relative="1" as="geometry" />
        </mxCell>
        <mxCell id="1ga72cSjbWooDJT9AYzO-36" style="edgeStyle=orthogonalEdgeStyle;rounded=0;orthogonalLoop=1;jettySize=auto;html=1;exitX=1;exitY=0.5;exitDx=0;exitDy=0;" edge="1" parent="1" source="1ga72cSjbWooDJT9AYzO-23" target="1ga72cSjbWooDJT9AYzO-26">
          <mxGeometry relative="1" as="geometry" />
        </mxCell>
        <mxCell id="1ga72cSjbWooDJT9AYzO-37" style="edgeStyle=orthogonalEdgeStyle;rounded=0;orthogonalLoop=1;jettySize=auto;html=1;exitX=1;exitY=0.5;exitDx=0;exitDy=0;entryX=0;entryY=0.5;entryDx=0;entryDy=0;" edge="1" parent="1" source="1ga72cSjbWooDJT9AYzO-23" target="1ga72cSjbWooDJT9AYzO-27">
          <mxGeometry relative="1" as="geometry" />
        </mxCell>
        <mxCell id="1ga72cSjbWooDJT9AYzO-23" value="礼包组" style="rounded=0;whiteSpace=wrap;html=1;" vertex="1" parent="1">
          <mxGeometry x="450" y="1320" width="120" height="40" as="geometry" />
        </mxCell>
        <mxCell id="1ga72cSjbWooDJT9AYzO-24" value="cdk" style="rounded=0;whiteSpace=wrap;html=1;" vertex="1" parent="1">
          <mxGeometry x="450" y="1370" width="120" height="40" as="geometry" />
        </mxCell>
        <mxCell id="1ga72cSjbWooDJT9AYzO-25" value="礼包1" style="rounded=0;whiteSpace=wrap;html=1;" vertex="1" parent="1">
          <mxGeometry x="620" y="1270" width="120" height="40" as="geometry" />
        </mxCell>
        <mxCell id="1ga72cSjbWooDJT9AYzO-38" style="edgeStyle=orthogonalEdgeStyle;rounded=0;orthogonalLoop=1;jettySize=auto;html=1;exitX=1;exitY=0.5;exitDx=0;exitDy=0;entryX=0;entryY=0.5;entryDx=0;entryDy=0;" edge="1" parent="1" source="1ga72cSjbWooDJT9AYzO-26" target="1ga72cSjbWooDJT9AYzO-28">
          <mxGeometry relative="1" as="geometry" />
        </mxCell>
        <mxCell id="1ga72cSjbWooDJT9AYzO-39" style="edgeStyle=orthogonalEdgeStyle;rounded=0;orthogonalLoop=1;jettySize=auto;html=1;exitX=1;exitY=0.5;exitDx=0;exitDy=0;" edge="1" parent="1" source="1ga72cSjbWooDJT9AYzO-26" target="1ga72cSjbWooDJT9AYzO-29">
          <mxGeometry relative="1" as="geometry" />
        </mxCell>
        <mxCell id="1ga72cSjbWooDJT9AYzO-40" style="edgeStyle=orthogonalEdgeStyle;rounded=0;orthogonalLoop=1;jettySize=auto;html=1;exitX=1;exitY=0.5;exitDx=0;exitDy=0;entryX=0;entryY=0.5;entryDx=0;entryDy=0;" edge="1" parent="1" source="1ga72cSjbWooDJT9AYzO-26" target="1ga72cSjbWooDJT9AYzO-30">
          <mxGeometry relative="1" as="geometry" />
        </mxCell>
        <mxCell id="1ga72cSjbWooDJT9AYzO-26" value="礼包2" style="rounded=0;whiteSpace=wrap;html=1;" vertex="1" parent="1">
          <mxGeometry x="620" y="1320" width="120" height="40" as="geometry" />
        </mxCell>
        <mxCell id="1ga72cSjbWooDJT9AYzO-27" value="礼包3" style="rounded=0;whiteSpace=wrap;html=1;" vertex="1" parent="1">
          <mxGeometry x="620" y="1370" width="120" height="40" as="geometry" />
        </mxCell>
        <mxCell id="1ga72cSjbWooDJT9AYzO-28" value="游戏道具1" style="rounded=0;whiteSpace=wrap;html=1;" vertex="1" parent="1">
          <mxGeometry x="790" y="1270" width="120" height="40" as="geometry" />
        </mxCell>
        <mxCell id="1ga72cSjbWooDJT9AYzO-29" value="Q币" style="rounded=0;whiteSpace=wrap;html=1;" vertex="1" parent="1">
          <mxGeometry x="790" y="1320" width="120" height="40" as="geometry" />
        </mxCell>
        <mxCell id="1ga72cSjbWooDJT9AYzO-30" value="实物" style="rounded=0;whiteSpace=wrap;html=1;" vertex="1" parent="1">
          <mxGeometry x="790" y="1370" width="120" height="40" as="geometry" />
        </mxCell>
        <mxCell id="1ga72cSjbWooDJT9AYzO-41" value="资源1" style="rounded=0;whiteSpace=wrap;html=1;" vertex="1" parent="1">
          <mxGeometry x="110" y="1260" width="120" height="40" as="geometry" />
        </mxCell>
        <mxCell id="1ga72cSjbWooDJT9AYzO-42" value="资源3" style="rounded=0;whiteSpace=wrap;html=1;" vertex="1" parent="1">
          <mxGeometry x="110" y="1360" width="120" height="40" as="geometry" />
        </mxCell>
        <mxCell id="1ga72cSjbWooDJT9AYzO-44" style="edgeStyle=orthogonalEdgeStyle;rounded=0;orthogonalLoop=1;jettySize=auto;html=1;exitX=1;exitY=0.5;exitDx=0;exitDy=0;" edge="1" parent="1" source="1ga72cSjbWooDJT9AYzO-43" target="1ga72cSjbWooDJT9AYzO-14">
          <mxGeometry relative="1" as="geometry" />
        </mxCell>
        <mxCell id="1ga72cSjbWooDJT9AYzO-43" value="活动" style="rounded=0;whiteSpace=wrap;html=1;" vertex="1" parent="1">
          <mxGeometry x="-60" y="1310" width="120" height="40" as="geometry" />
        </mxCell>
        <mxCell id="1ga72cSjbWooDJT9AYzO-52" value="默认" style="rounded=0;whiteSpace=wrap;html=1;fillColor=#dae8fc;strokeColor=#6c8ebf;" vertex="1" parent="1">
          <mxGeometry x="1070" y="140" width="40" height="40" as="geometry" />
        </mxCell>
        <mxCell id="1ga72cSjbWooDJT9AYzO-55" value="资源" style="rounded=0;whiteSpace=wrap;html=1;fillColor=#f5f5f5;fontColor=#333333;strokeColor=#666666;" vertex="1" parent="1">
          <mxGeometry x="-90" y="250" width="100" height="40" as="geometry" />
        </mxCell>
        <mxCell id="1ga72cSjbWooDJT9AYzO-56" value="装备调整箱礼..." style="rounded=0;whiteSpace=wrap;html=1;fillColor=#f5f5f5;fontColor=#333333;strokeColor=#666666;" vertex="1" parent="1">
          <mxGeometry x="10" y="250" width="110" height="40" as="geometry" />
        </mxCell>
        <mxCell id="1ga72cSjbWooDJT9AYzO-57" value="领" style="rounded=0;whiteSpace=wrap;html=1;fillColor=#f5f5f5;strokeColor=#666666;fontColor=#333333;" vertex="1" parent="1">
          <mxGeometry x="980" y="250" width="40" height="40" as="geometry" />
        </mxCell>
        <mxCell id="1ga72cSjbWooDJT9AYzO-58" value="权重" style="rounded=0;whiteSpace=wrap;html=1;fillColor=#f5f5f5;fontColor=#333333;strokeColor=#666666;" vertex="1" parent="1">
          <mxGeometry x="940" y="250" width="40" height="40" as="geometry" />
        </mxCell>
        <mxCell id="1ga72cSjbWooDJT9AYzO-59" value="8307904e-773f-4456-9a52-b3a59d65..." style="rounded=0;whiteSpace=wrap;html=1;fillColor=#f5f5f5;fontColor=#333333;strokeColor=#666666;" vertex="1" parent="1">
          <mxGeometry x="120" y="250" width="250" height="40" as="geometry" />
        </mxCell>
        <mxCell id="1ga72cSjbWooDJT9AYzO-60" value="限" style="rounded=0;whiteSpace=wrap;html=1;fillColor=#d5e8d4;strokeColor=#82b366;" vertex="1" parent="1">
          <mxGeometry x="-130" y="250" width="40" height="40" as="geometry" />
        </mxCell>
        <mxCell id="1ga72cSjbWooDJT9AYzO-61" value="开始时间" style="rounded=0;whiteSpace=wrap;html=1;fillColor=#f5f5f5;fontColor=#333333;strokeColor=#666666;" vertex="1" parent="1">
          <mxGeometry x="370" y="250" width="100" height="40" as="geometry" />
        </mxCell>
        <mxCell id="1ga72cSjbWooDJT9AYzO-62" value="结束时间" style="rounded=0;whiteSpace=wrap;html=1;fillColor=#f5f5f5;fontColor=#333333;strokeColor=#666666;" vertex="1" parent="1">
          <mxGeometry x="470" y="250" width="100" height="40" as="geometry" />
        </mxCell>
        <mxCell id="1ga72cSjbWooDJT9AYzO-63" value="状态" style="rounded=0;whiteSpace=wrap;html=1;fillColor=#f5f5f5;fontColor=#333333;strokeColor=#666666;" vertex="1" parent="1">
          <mxGeometry x="570" y="250" width="80" height="40" as="geometry" />
        </mxCell>
        <mxCell id="1ga72cSjbWooDJT9AYzO-64" value="&lt;u&gt;详情&lt;/u&gt;" style="rounded=0;whiteSpace=wrap;html=1;fillColor=#f5f5f5;fontColor=#333333;strokeColor=#666666;" vertex="1" parent="1">
          <mxGeometry x="650" y="250" width="80" height="40" as="geometry" />
        </mxCell>
        <mxCell id="1ga72cSjbWooDJT9AYzO-65" value="" style="shape=image;verticalLabelPosition=bottom;labelBackgroundColor=default;verticalAlign=top;aspect=fixed;imageAspect=0;image=data:image/png,iVBORw0KGgoAAAANSUhEUgAACBoAAAEcCAYAAABjp0UiAAAMbmlDQ1BJQ0MgUHJvZmlsZQAASImVVwdYU8kWnluSkJDQAghICb0JIjWAlBBaAOlFEJWQBBJKjAlBxY4uKrh2EcWKroootpVmx64sir0vFhSUdVEXGypvQgK67ivfO9839/45c+Y/5c7k3gOA5geuRJKHagGQLy6QxocFMcampjFInQAB2kAfeAFtLk8mYcXGRgEog/e/y7ub0BrKNScF1z/n/6vo8AUyHgBIOsSZfBkvH+ITAODreRJpAQBEhd5ySoFEgedArCuFAUK8SoGzlXinAmcq8ZEBm8R4NsRXAFCjcrnSbAA07kM9o5CXDXk0PkPsIuaLxABojoDYnyfk8iFWxD4iP3+SAldAbAftJRDDeAAz8zvO7L/xZw7xc7nZQ1iZ14CoBYtkkjzutP+zNP9b8vPkgz5s4KAKpeHxivxhDW/nTopUYCrE3eLM6BhFrSH+IOIr6w4AShHKw5OU9qgxT8aG9YPPHKAufG5wJMTGEIeK86KjVPrMLFEoB2K4W9CpogJOIsQGEC8UyEISVDabpZPiVb7Quiwpm6XSn+dKB/wqfD2U5yaxVPxvhAKOih/TKBImpkBMgdiqUJQcDbEGxM6y3IRIlc3oIiE7etBGKo9XxG8FcbxAHBak5McKs6Sh8Sr70nzZYL7YZqGIE63CBwqEieHK+mCnedyB+GEu2BWBmJU0yCOQjY0azIUvCA5R5o51CsRJCSqeD5KCoHjlWpwiyYtV2eMWgrwwhd4CYndZYYJqLZ5cADenkh/PkhTEJirjxItyuBGxynjwZSAKsEEwYAA5HJlgEsgBotbu+m74SzkTCrhACrKBADipNIMrUgZmxPCaAIrAHxAJgGxoXdDArAAUQv2XIa3y6gSyBmYLB1bkgmcQ54NIkAd/ywdWiYe8JYOnUCP6h3cuHDwYbx4civl/rx/UftOwoCZKpZEPemRoDloSQ4jBxHBiKNEeN8L9cV88Cl4D4XDFmbj3YB7f7AnPCG2Ex4QbhHbCnYmiYukPUY4B7ZA/VFWLzO9rgdtATg88CPeD7JAZ18eNgBPuDv2w8ADo2QNq2aq4FVVh/MD9twy+exoqO7ILGSUPIweS7X5cqeGg4THEoqj19/VRxpo5VG/20MyP/tnfVZ8P75E/WmILsYPYOewkdgE7gtUDBnYca8BasKMKPLS7ng7srkFv8QPx5EIe0T/8cVU+FZWUudS4dLl8Vs4VCKYWKA4ee5JkmlSULSxgsODbQcDgiHnOIxiuLq7uACjeNcq/r7dxA+8QRL/lm27e7wD4He/v7z/8TRdxHID9XvD4N37T2TEB0FYH4HwjTy4tVOpwxYUA/yU04UkzBKbAEtjBfFyBJ/AFgSAERIAYkAhSwQRYZSHc51IwBcwAc0EJKAPLwGqwDmwCW8FOsAccAPXgCDgJzoJL4Aq4Ae7B3dMBXoIe8A70IQhCQmgIHTFEzBBrxBFxRZiIPxKCRCHxSCqSgWQjYkSOzEDmIWXICmQdsgWpRvYjjchJ5ALShtxBHiFdyBvkE4qhVFQXNUFt0JEoE2WhkWgiOh7NRiejReh8dAlagVahu9E69CR6Cb2BtqMv0V4MYOqYPmaOOWFMjI3FYGlYFibFZmGlWDlWhdViTfA5X8PasW7sI07E6TgDd4I7OBxPwnn4ZHwWvhhfh+/E6/DT+DX8Ed6DfyXQCMYER4IPgUMYS8gmTCGUEMoJ2wmHCGfgWeogvCMSifpEW6IXPIupxBzidOJi4gbiXuIJYhvxCbGXRCIZkhxJfqQYEpdUQCohrSXtJh0nXSV1kD6oqauZqbmqhaqlqYnVitXK1XapHVO7qvZcrY+sRbYm+5BjyHzyNPJS8jZyE/kyuYPcR9Gm2FL8KImUHMpcSgWllnKGcp/yVl1d3ULdWz1OXaQ+R71CfZ/6efVH6h+pOlQHKpuaTpVTl1B3UE9Q71Df0mg0G1ogLY1WQFtCq6adoj2kfdCgazhrcDT4GrM1KjXqNK5qvNIka1prsjQnaBZplmse1Lys2a1F1rLRYmtxtWZpVWo1at3S6tWma4/SjtHO116svUv7gnanDknHRidEh68zX2erzimdJ3SMbkln03n0efRt9DP0Dl2irq0uRzdHt0x3j26rbo+ejp67XrLeVL1KvaN67fqYvo0+Rz9Pf6n+Af2b+p+GmQxjDRMMWzSsdtjVYe8NhhsEGggMSg32Gtww+GTIMAwxzDVcblhv+MAIN3IwijOaYrTR6IxR93Dd4b7DecNLhx8YftcYNXYwjjeebrzVuMW418TUJMxEYrLW5JRJt6m+aaBpjukq02OmXWZ0M38zkdkqs+NmLxh6DBYjj1HBOM3oMTc2DzeXm28xbzXvs7C1SLIotthr8cCSYsm0zLJcZdls2WNlZjXGaoZVjdVda7I101povcb6nPV7G1ubFJsFNvU2nbYGthzbItsa2/t2NLsAu8l2VXbX7Yn2TPtc+w32VxxQBw8HoUOlw2VH1NHTUeS4wbFtBGGE9wjxiKoRt5yoTiynQqcap0fO+s5RzsXO9c6vRlqNTBu5fOS5kV9dPFzyXLa53BulMypiVPGoplFvXB1cea6VrtfdaG6hbrPdGtxeuzu6C9w3ut/2oHuM8Vjg0ezxxdPLU+pZ69nlZeWV4bXe6xZTlxnLXMw8703wDvKe7X3E+6OPp0+BzwGfP32dfHN9d/l2jrYdLRi9bfQTPws/rt8Wv3Z/hn+G/2b/9gDzAG5AVcDjQMtAfuD2wOcse1YOazfrVZBLkDToUNB7tg97JvtEMBYcFlwa3BqiE5IUsi7kYahFaHZoTWhPmEfY9LAT4YTwyPDl4bc4Jhwep5rTE+EVMTPidCQ1MiFyXeTjKIcoaVTTGHRMxJiVY+5HW0eLo+tjQAwnZmXMg1jb2Mmxh+OIcbFxlXHP4kfFz4g/l0BPmJiwK+FdYlDi0sR7SXZJ8qTmZM3k9OTq5PcpwSkrUtrHjhw7c+ylVKNUUWpDGiktOW17Wu+4kHGrx3Wke6SXpN8cbzt+6vgLE4wm5E04OlFzInfiwQxCRkrGrozP3BhuFbc3k5O5PrOHx+at4b3kB/JX8bsEfoIVgudZflkrsjqz/bJXZncJA4Tlwm4RW7RO9DonPGdTzvvcmNwduf15KXl789XyM/IbxTriXPHpSaaTpk5qkzhKSiTtk30mr57cI42UbpchsvGyhgJd+FHfIreT/yR/VOhfWFn4YUrylINTtaeKp7ZMc5i2aNrzotCiX6bj03nTm2eYz5g749FM1swts5BZmbOaZ1vOnj+7Y07YnJ1zKXNz5/5W7FK8oviveSnzmuabzJ8z/8lPYT/VlGiUSEtuLfBdsGkhvlC0sHWR26K1i76W8ksvlrmUlZd9XsxbfPHnUT9X/Ny/JGtJ61LPpRuXEZeJl91cHrB85wrtFUUrnqwcs7JuFWNV6aq/Vk9cfaHcvXzTGsoa+Zr2iqiKhrVWa5et/bxOuO5GZVDl3vXG6xetf7+Bv+HqxsCNtZtMNpVt+rRZtPn2lrAtdVU2VeVbiVsLtz7blrzt3C/MX6q3G20v2/5lh3hH+874naervaqrdxnvWlqD1shrunan776yJ3hPQ61T7Za9+nvL9oF98n0v9mfsv3kg8kDzQebB2l+tf11/iH6otA6pm1bXUy+sb29IbWhrjGhsbvJtOnTY+fCOI+ZHKo/qHV16jHJs/rH+40XHe09ITnSfzD75pHli871TY09dPx13uvVM5JnzZ0PPnjrHOnf8vN/5Ixd8LjReZF6sv+R5qa7Fo+XQbx6/HWr1bK277HW54Yr3laa20W3HrgZcPXkt+NrZ65zrl25E32i7mXTz9q30W+23+bc77+TdeX238G7fvTn3CfdLH2g9KH9o/LDqd/vf97Z7th99FPyo5XHC43tPeE9ePpU9/dwx/xntWflzs+fVna6dR7pCu668GPei46XkZV93yR/af6x/Zffq1z8D/2zpGdvT8Vr6uv/N4reGb3f85f5Xc29s78N3+e/63pd+MPyw8yPz47lPKZ+e9035TPpc8cX+S9PXyK/3+/P7+yVcKXfgUwCDA83KAuDNDgBoqQDQYd9GGafsBQcEUfavAwj8J6zsFwfEE4Ba+P0e1w2/bm4BsG8bbL8gvybsVWNpACR6A9TNbWioRJbl5qrkosI+hfCwv/8t7NlIKwH4sqy/v6+qv//LVhgs7B1PiJU9qEKIsGfYHPslMz8T/BtR9qff5fjjHSgicAc/3v8F+ZeQ5Mo/kxcAAABsZVhJZk1NACoAAAAIAAQBGgAFAAAAAQAAAD4BGwAFAAAAAQAAAEYBKAADAAAAAQACAACHaQAEAAAAAQAAAE4AAAAAAAAAkAAAAAEAAACQAAAAAQACoAIABAAAAAEAAAgaoAMABAAAAAEAAAEcAAAAAHWu1wUAAAAJcEhZcwAAFiUAABYlAUlSJPAAAEAASURBVHgB7N19mFXVmSD6U8C00n2nJ1bxJQaCEKIRgh/pxJvxgyC5+sz0NU4nEiKSjl7TibbXYFqJMagMRr0a7NjGSTCJMzYtV7qC2kPb6cdPDH5co4aIUUnU4EcZEEXKvt03rfRjWVffdTbF2VW76hQcqHOqfvnjvGetvfbaa/02T/au417vbup893+ld/+3ZMmS90LpC2d+M6IPAgQIECBAYOgJ3HT9FTHphQsXDr3JmzEBAgQIECBAgAABAgQIECBAgAABAgQIECBQIbB06dIoL168uKJ+WEVJgQABAgQIECBAgAABAgQIECBAgAABAgQIECBAgAABAgQIECDQi4AHDXrBsYkAAQIECBAgQIAAAQIECBAgQIAAAQIECBAgQIAAAQIECBCoFPCgQaWHEgECBAgQIECAAAECBAgQIECAAAECBAgQIECAAAECBAgQINCLgAcNesGxiQABAgQIECBAgAABAgQIECBAgAABAgQIECBAgAABAgQIEKgU8KBBpYcSAQIECBAgQIAAAQIECBAgQIAAAQIECBAgQIAAAQIECBAg0IvAiPy2m66/Il+lTIAAAQIECAwxgaVLlw6xGZsuAQIECBAgQIAAAQIECBAgQIAAAQIECBAgUK2AjAbVSmlHgAABAgQIECBAgAABAgQIECBAgAABAgQIECBAgAABAgQIlLplNFi4cCEWAgQIECBAYIgKZJkM3A8M0X8Apk2AAAECBHYScF+wE4avBAgQIEBgiAq4HxiiJ960CRAgQIDATgLZ/cBOVfFVRoO8iDIBAgQIECBAgAABAgQIECBAgAABAgQIECBAgAABAgQIECBQKOBBg0IaGwgQIECAAAECBAgQIECAAAECBAgQIECAAAECBAgQIECAAIG8gAcN8iLKBAgQIECAAAECBAgQIECAAAECBAgQIECAAAECBAgQIECAQKGABw0KaWwgQIAAAQIECBAgQIAAAQIECBAgQIAAAQIECBAgQIAAAQIE8gIeNMiLKBMgQIAAAQIECBAgQIAAAQIECBAgQIAAAQIECBAgQIAAAQKFAh40KKSxgQABAgQIECBAgAABAgQIECBAgAABAgQIECBAgAABAgQIEMgLeNAgL6JMgAABAgQIECBAgAABAgQIECBAgAABAgQIECBAgAABAgQIFAp40KCQxgYCBAgQIECAAAECBAgQIECAAAECBAgQIECAAAECBAgQIEAgL+BBg7yIMgECBAgQIECAAAECBAgQIECAAAECBAgQIECAAAECBAgQIFAoMKJwiw0ECBAgQIAAAQIE9qDA9mdWR+9nXLM+4knnLIo4Z1rPt6gvr70htl+4clPEUqk54pmXnR3x6FGeoS3DCAQIECBAoOEFftF6ZczhO/dtr5jLfsd8NsrXnTq9ol6BAAECBAgQeE/gN8Gw7M9vjvjQO50R99T1s+vv+rY4Tn//Pu/aP/0usO+kY6Ofb18wK2JzU4SqP/L97al5Vz0gDQkQIDDIBfwaO8hPsOkRIECAAAECBAgQIECAAAECBAgQIECAAAECBAgQIECAAIFaCvS8XKyWR9AXAQIECBAgQIAAgQqB9ijd9fdPVdSuvu7HUf7oslMiTm7Kli6kFRn/0Lq5ov3hc+ZEue9MBul4ty9dFu1bN75d0U+tCofP+Up0dd7scbXqUj8ECBAgQGDICRRlMsgg3njgl/H1+XnTInbdL2Qteo999d/73n1vtXKybyMtCBAgMBQEsuvNjW//7zHdokw8He2PxPaLF90Rsa1zasRLu/1dHNV9fvyi9ZZok2UyyHY49rCDs681jf886sPR39wp6e/76y/6VpRf2ZGx8J+jfPvS1oj7nZ7+bu777/hovuMj89w4/fyoK8qEuGOHGn3JZ1Z0na8RrG4IEBg0AjIaDJpTaSIECBAgQIAAAQIECBAgQIAAAQIECBAgQIAAAQIECBAgQGDPC8hosOeNHYEAAQIECBAYIgL5dwF2Tbs5vlb7rsLuKxq6enrvW3/fWZh/Ar+yt1LppB0rDXq+NSyeV76nVO6rv1IpeZy4cG7s8Nsd7458Lsp/t+bViFlmgPyKjGz+px+3e5kD+h5nmk/RZ7aiIv/u6KL26gkQIEBgaAj0dR2v/vrT8zuWuxT7t+Kxr+t5X5l5+ppX17jSt77662rfe+ahk845K5ru+48/iti6Md0vXHLWyijv6orP7PjVjzPbozL2dZ9V2VqJAAECBAa7QHa97fo78daY8l+OGxUx+zu31g7Z9ajruJVHWH3d5VGxurK6H6We7ztGt3wo+jhxYbpel7JMguWMhe+b+7vY3rrxtXSsi/424vhyxoYDUm3hZ7d53ZcyFe5/2dmxT38zI2Tn54xr1hces3JD9nvOxVH9iWHpvqW9M7VqzhIxVu6kRIAAgSEjIKPBkDnVJkqAAAECBAgQIECAAAECBAgQIECAAAECBAgQIECAAAECBHZfoOdla7vfrx4IECBAgAABAkNO4On1vyqYc3ri/ZEn0hP8R8/evZX4b72Y3n24YdvMOF7xE/zpuOsfTRkCCgZXWF3rFfvZSoQLV24qPOZ7Gx5f9YPYPn9Vz83eevH+2PDVs1LMMiRUmzEi63X3V3RkPYkECBAgQKBLYPOTT0ahrbzSrWtL+nb/+l/HlznTpuc39bOcVvav29AR+02e1vtPPMX3Kb0fttrrd++9dN9anCEhWzmYW6k4LbdSckdmg0uj8+ozRVSOpa/7jsrWSgQIECBAoHeBfQ46KRr8X6dsjXjhyjcjThy3Z9Z8Ziv0u/+d3XMGgt5H37W1+Drd1abyW5a5cFFUn1i5sdTy2pVR85370v3LFVf9NMrf+i893zBtf+Z/xvauefV8f9DX7xZvPJAySswvxyxT0twpm6P//U4/OeIbN/4wYuvGP4xY/PtCykyRRhNNfRAgQGBIC+yZq9uQJjV5AgQIECBAgAABAgQIECBAgAABAgQIECBAgAABAgQIECAweAV6f9x98M7bzAgQIECAAAECNRRI71B+ZO2/VfT5wQNHR/k3L6SVDL96LGU8aD8uZTTY9Xf5VZchoaM9rRR4+Pm3Yxz7TkpP3o956fUoF620zFYu3PLT7RXz2e+Yz0b5ulN7XoGZraT4+3S4in17Kuw76dio/vYFsyJW65GN7+JFd8R+RfPo6Zg71+3qysesj75WTmTtRAIECBAYKgI9ZxLK3w+88cAvA+T5edMiTm7avZf79p0hofI+pdr7gVIp7fcPrWnFX3YW+7p+Z9fpv+326uPkc3v27uaN+RuGvlZeVq6UPKA1WxmZ7leyTEV39vP+4vA5X4mp7eo7s/dUxofMWyRAgACB+hbI/g4+45puF76Kga++blmUV5cqr3cfqGjVn0K6rt719ynjYX7Pw+ccF1W7ep/x9tYtsf+u/r2dH88Rc78cVXPbWiP++z9O90Gl0v+Tbxrlfxl1SGo/5emIb/3nlNkon9HxiLnfiO0r5kYo5c9H4e8YWaakUvn+JO3ukwABAgT6KSCjQT/BNCdAgAABAgQIECBAgAABAgQIECBAgAABAgQIECBAgAABAkNZQEaDoXz2zZ0AAQIECBCoicD2Z9IT9g+9k71bMK1QmHfG5Oj/ry++M2Lbi2mlwYZtM6OcfxK/eDBpBd+nZv67aHLP2lcj9pUhIf+O6GkTU4aFfylnNCg6XtHKhUnjUkaEov2yd1HOKWpQZ/XZysfVdTYuwyFAgACBxhTIZxIqlcrX7zNmx4TGXpJW8D30Tso4tG5DR9RPnta/n2Y+NTOt8Ltn7YbYv68MCfn7lP0mpPuBCW3bYv+2zuz+JYo7Pjra0/aXc9tHlvcvykQ0vPnI6OPUtJCylGU4yGciymd6KJWSyyVnXbpjDP350tXf/bHbV89K913F71hOvT++6gfxZf6q/hxNWwIECBAgkASyv4NXXH9SjyT5THj7Tto/2r2vtHsZjbL7jMM+Pjb6a924qeL4/b2+5TMW/UFFb8WFrsw+vx+NLl12SsTumRSyzEQpM0HW4/ZnenYY1fKhaPKhhYuypgMS8/cx/3J075keB2SQDkqAAIEBFBg2gMd2aAIECBAgQIAAAQIECBAgQIAAAQIECBAgQIAAAQIECBAgQKDBBPr32HyDTc5wCRAgQIAAAQJ7Q+Dp9b+qOMx+x8yI8odGjY/4icn3RmzbmN7998gTr0X56NnjIlb7MenQj0TTifenjAbFGRLScdY/mtplKx0+cdgBsf9dD1SOt9rjZysiztnSaE/wZysn0kqIE6udsHYECBAgQKAfAvlMQvtOmh57H9JyUMTfn/l7ER+6b3vE+9f/OuKcaaldFKr4+IMZqf1R5et5XxkS8vcpxx6W7idefygdv4pDVjR544Fbo/yll7dG/PYFsyL2leHgimUp00FFZ70U8u9Yzq+0LDpeL13Gpvy7nPtqbzsBAgQIENgVgew69p3ydT/r44QTj4mv2XUs5TfKtvY/jv9Iuq5/afRRsfOv/ltK0fPQO/tFuSizTza+M65Z3/+Dxh7pd4d/HpMyLR017J6oveSs/1Zx3I9tuz3K1R7nrRezzEQpxs47feTvB353/w2x9cKVlRkdsl2y+5b5D9wXVUUeWftSKc3r+ou+FVXXl1LGykuXXRLl7pkauvb0jQABAkNRQEaDoXjWzZkAAQIECBAgQIAAAQIECBAgQIAAAQIECBAgQIAAAQIECOyigIwGuwhnNwIECBAgQIBA9q6+W36aViZmIscednD5a7rVyr8z8fFVa2L788cVvbsw66kyjhiT3lH4ick/jQ1FGRK2P/NAbG/d+HbEbEXltLHDo3xXfBZ/7HNQWmExd0p6t3HWT7ZH14qAtKIxv6IgW5mRtS+Kfa1UKNqv2vrdX6FR7ZHy7bIVD/07v/lelAkQIECgUQR+EwP9h9bNFQP+8Mc+HOXsuvgHh6Vy6b60cvCN8sq6B09IKwGPHlXtWpB0nTmyjwwJ3e9T0n4fPSTdn9xZMdruheHNKQPByZ9MKwDzKzK7X8fr8/qXOVy86I6YZFtn97numZqUUanvlZN75uh6JUCAAIGBEciuO0v+qjJTwH7HpMyAc6bV9j/JZNfrTzan+5Fdy1+4K1bpOjftw/8xdp72/TGpkz+/OeJf37A24pT/kr/w9u9+oa+/6yfM/FIcZ8XMdPh8+8z9ulNTRqjs/HzzrKL7AtfvJOmTAAEC1QlU+1dsdb1pRYAAAQIECBAgQIAAAQIECBAgQIAAAQIECBAgQIAAAQIECAxqgdo+PjeoqUyOAAECBAgQIFApkH8Xc6n87r6PHpIyB2Sts3cmTvzbTVHV1vlcxHUb0tsYJ1e9oqEl9stnSPjVY2nNQvtx42L7i+sr1zB0rah8Kbb3/ZGe4D9x4dxo+tvyioSH3smvREg9da1oTBkQilbu5VcaFI3jF61Xxqbv3Dcx4qXLdi0zwD4HnRT7r7g+ZWi4femyKLdu/MOIRePsOv72aHfSOYsi5leevLy28l2Qh8/5SrQ7b3Y6D1HwQYAAAQKDXmD7M0/HHLuuk+k6euSh5ZV9ZYF9DpoW344a9kS5fXoH8CNPvBblo/t5/ZjWLUPCL6Of5+el4/y7J5+McraCf79jZkS5v+8WPmLul2O/uW3ZdTRlTIrKio90f3PJWZdGbdH1s2KXvVDIVnpesezIOFqtr/N9rZzcC1N0CAIECBCoA4FspXxRBp2PDvtVjHLV0ykDYv7vyzqYQq9D2HfS/rH9faWmgnYfjPqzvn9JxfbsOllROYCF/H1BqZTux7p+LxjAwTk0AQIEGlBARoMGPGmGTIAAAQIECBAgQIAAAQIECBAgQIAAAQIECBAgQIAAAQIEBkpARoOBkndcAgQIECBAoIEF0hPv6x99NTeHypV8uY3divev/3XUzZmW3hXYrUFBRbcMCS+mTAIbto2PPZ5c+2/lPfMrKqvNaJAduHJFwpfbH4kNRSs0spUArXduiHZH596BmO3XcvLJsf1Dv/ifEVs3ppWRJ53zuSi/vmP8yfOKq34a9d++YFbE7F3XUXj3I1uZ+P0X0krFonZZ+2yc11/0rai6vmtDj99WX3d51K/ucatKAgQIEBjqAk/nMgn19zqTz0yUv84V+XbPkJCum+s2bI1d9s3dpxx7WFpBWSq9WNRlQX2W6WhRbD+xlN4BvayPjEd33v5AtJ99SLp+v/jjLGNRyhhUcLDC6q4MSvcXttl5Q/6dzDtv2/l7tdf5x1f9IHabv2rnvX0nQIAAgaEukK3YP+Oa9b1S3LM2/Z1cKse2cka8cw/vdbfd2Jh+t6j27978gV7bku4nsvqRE0bH16L7lK6Mf78f7bLMhAdkHeyI6X4ly4C0o7rfX6q7H3njgVuj5/nlWO39Qddw8hkPst8v0n1Ro2Wm6JqXbwQIEKiNgIwGtXHUCwECBAgQIECAAAECBAgQIECAAAECBAgQIECAAAECBAgQGBICMhoMidNskgQIECBAgEAtBTra0xP4Dz+fnmTf1b7feKDyXcrVvjN5ePPUOOQnJt8TsW1jesL+nv9+b5R/805nxP2OSSsIjx6Vni3tSM1i2658dH+XYc8rCN58Oa18aE/DKP0u947o1x5L74z+w2HlBjsGk+Z11vfnpZpspeSLaeXijWs+HPXnld9hnb0D85afppWRb3VmmR1mRrts3ju63/Elrcw887Kze2yXZUj4zn2p36J3THet2Ni0o2dfCBAgQGAoCaTr4CM7MvHs2tzf2pGZqK/rV77/lHnoyJm/FxseKl+37rw9Lbkf81K6T9l30rGxffYhtfoJqDLj0Vnd3m2cjvvWi6/Ecf+plK73R8z9RpRXzI3Q50d+hWg2j74zF/XZdUWDaq/zh5dXnmb3IVkn+XFm9SIBAgQIDHaB9Af2XX+f/g7tmm36e/ODB/5TVP3mhXci7sjg9710nX5oVYoP7H9E1641/db7373ZobK/q7MMhF89K585KP2d/rV507Jdeoxbt7xerk9/R//dmpQB8v98f7556i/LeNDX7yDF19nq7kfyGQy2bsvGmR9XVk7nNZ8JIrtfWDGtVvdT2fFEAgQINLaAjAaNff6MngABAgQIECBAgAABAgQIECBAgAABAgQIECBAgAABAgQI7FUBj1/tVW4HI0CAAAECBAaDwObcCv1Sqbon8rs/iZ8yI6zb0BEsk6t+Mj6tTDjs42Njv9aNaUX9b17YWsHb9S7miuo+C9k4z//5lGh73anT+9yn5wbbonp97h3RJ5x4XNTv+48be96tlFYm/B8LDo3t//rbIyOeNzut2Lx96bIo73f6VyKe/Mn7In7nvrTy4JEnXovy0eXMB1HwQYAAAQIEaiyw/Zmno8eHypmESqVdWznY1rl7169ph6WMP6X70ruh33oxrdRrK8/38I+l7UXvVC5iyVY4futHb0aTr379kxH7209R/6VcJoRnjzgjmuYzBnTfP91f3L70+ti0uuM/Rqx1poPux1VDgAABAgR2Fsj/Xf77sfHSZSdEfPrqdJ36TSllNMh+N8j/nXvMuJei/V07d93D9yyj3s9GnRZb51T9+0EPne1U1T1z4U4bd/qaHX/+ymyep8TWyU1vRNzUln7XyHaZOG5U9nWvxO3PPBDHad2YMitlB33z5bXx9ZtnpcyKsz73/0V5eevmrEkuVnc/l9tJkQABAkNWQEaDIXvqTZwAAQIECBAgQIAAAQIECBAgQIAAAQIECBAgQIAAAQIECPRfQEaD/pvZgwABAgQIEBiyAr+Jmf9D7sn3/Y6ZEfV9vVtwn4PSOw2PGvZEtM9WQN6//tdRnjOtf5kDJsz8ZOx3VOvNFf1lKyU+esjwqN/VjzceuDV2nV+O1fZzwonHRNP/8Ma6iA8/n60oSJkfsnE9/Y+997jPQSdFg/MOytol/9+WMze0XvS3seHCBQenBvcl11899qsotx83LuIfPJtf2dDzOxdTJ90/V193eVSu7r6poubx8js2Hzz07Kg/epRneiuAFAgQIDBoBNJ1JP9O5n0npev4IS29////8OZ0PfzE5HtCpK288i5//ao2c8A+B6Xr7twp6R3RXSv50oq8Iw8ds1vy//ZiWgn41bNSrLazw+ccF0273x8lvyxD0Y7xblwV7bPr6McKDtTRnjIaTPxYuv6/9bf3R8uvnvVKxKJ3PmcZGm75aXp3dNZ99df5H8Qu89Mws927xez+adVhaXy1WnHa7UAqCBAgQKAuBMaMS9fhS5d9KMaTrfBPeY+6DzH/d25He8po0L1lZc3WLSlj0eqV6e/T+4/5bDTY9QyElf33VcqOXyql6+jfrXk1djlvdsoQ8NsXOspdpPuP/ceW74fSZXun7lNmx0vOunSnut35mn4n+B/Xpt8DPjXzkOjsnrUbyp22RDzwwNRueevkKF+67JKI2fnqui8p75YLWUaHJQ9PiS0yKeWAFAkQGLIC5f+3H7LzN3ECBAgQIECAAAECBAgQIECAAAECBAgQIECAAAECBAgQIECgHwIyGvQDS1MCBAgQIEBgaAt0fxdz8phU9bsHPxg7HDnz9yI+dF9aCfDGA/dF+cET0pP3n6j6UdCe+6s2w0IafffPoswL3VtmNWllZn4FYUd7etL/mPJ8/7Ejy/yQVhT808RyxoXcOxSzXvMx75/Nc9qH942mRw37ZcR/mji6YtdsxciK61OGhIqNPRR+0Xpl1H6nfH5OOmdRlK1I7AFLFQECBIagQEd7WonXlbEnIYyckK4/fWciSCv9Dvv42NixdeOmiG+9eH/EezeklZFzUiKk1Hmvnz33V22GhaKuizIvFLUvldI4zrys58w+WUaBixfdEV20daaeDp/zlfhy3uyUiSjrf3u3FZBpy/DmtGL00E+muHzG+2ND1m+2QjJ//a72HdTZ8bOVixeuTOenaJxZe5EAAQIEhqbAPgelFHxpnfyeMEiZgDa1ZRkD0jG6/w6R/30g7dd6Z1rZf/Sp/cug2DWT/PHT3/9/cly6j9n+zCPRNMvY2O3+o9v1vOffD7qOV/lt+zMpt+AZ16yv3FAu/aL1lvi2bmK6f/rW4f9vlO8pJ2IaOSHN+0//aGTU//Ln74v479vLNyLp54moq+Yju1+7cc2Ho3n+/qWaPrQhQIDAYBKo+mfswTRpcyFAgAABAgQIECBAgAABAgQIECBAgAABAgQIECBAgAABAgR2TUBGg11zsxcBAgQIECAwBAX6uzK+iOiIud+ITSvmFrU4MjZcsSzFolZZfd/9pZbVr+RLKyHO+n56Z+FZ2YH6GYc3j4o9/tPnL0wxt/+h/9usqJn407Sysdp3JJdKaQXE1+ZlSz2bop9svNlhspUP8wtWPmTt+orVjyvrqfcVnVkrkQABAgQaU6D662nv85sw80vRYMXMonb9ux733V92nGr7TdezExemzD4nZrv3O6Z3Iv/wojtjz7bO/q1k7OtwXecj9bvjHcvX/Th2PfSytMb0ry/Ojt9Xjz1vf3zVD2LD/FU9by+qzWdWKGqnngABAgQI9CyQMgr89oUso0G6Ph956Jgemx8x98tRP7dtWcTWB26NOL8ce9ypH5UnnfO5aD25Kf0d/vKWrRV75zM8ba/Y2v/C0+t/VbBTSpWwqe0/xPbTvpRuqJq33d5j++z3nOtSAooe26TK5P3Kq++k4qi0Vnfrltcr9plYdWbLit0UCBAgMOgEZDQYdKfUhAgQIECAAAECBAgQIECAAAECBAgQIECAAAECBAgQIECAwJ4TGLHnutYzAQIECBAgQIAAgWKBrhWI1WVuKO6p5y3ZioUV15/UcwO1BAgQIECAwF4Q6CuDQlo5uCMTwca3exzTCSemdy83pwWUPbTpPQPDFcv+1x72UUWAAAECBAZWYHhzSwxgQjlDQFvnc1G+5KxLexzYvpOmR/0hLUVrSHu/HvbYaQ0rJ+3iSv+X194Qo7hw5aaC0aR57chc0JTmf+LCyhyM21Oig4I+eqpO/R728bGxsXVjOn5RZsP9jvlstJszzX9a60lTHQECQ0+g6Go09CTMmAABAgQIECBAgAABAgQIECBAgAABAgQIECBAgAABAgQIEOhTwGNXfRJpQIAAAQIECBAgQIAAAQIECBAgsGcEBnbl5Z6Zk14JECBAYOgK9Pe61lfmn/qWnDDzSzHAFTN7Hme1mQb76qfn3rvXVnu8/J61On6+X2UCBAgMdgEZDQb7GTY/AgQIECBAgAABAgQIECBAgAABAgQIECBAgAABAgQIECBQQwEPGtQQU1cECBAgQIAAAQIECBAgQIAAAQIECBAgQIAAAQIECBAgQGCwC3jQYLCfYfMjQIAAAQIECBAgQIAAAQIECBAgQIAAAQIECBAgQIAAAQI1FPCgQQ0xdUWAAAECBAgQIECAAAECBAgQIECAAAECBAgQIECAAAECBAa7gAcNBvsZNj8CBAgQIECAAAECBAgQIECAAAECBAgQIECAAAECBAgQIFBDAQ8a1BBTVwQIECBAgAABAgQIECBAgAABAgQIECBAgAABAgQIECBAYLALeNBgsJ9h8yNAgAABAgQIECBAgAABAgQIECBAgAABAgQIECBAgAABAjUU8KBBDTF1RYAAAQIECBAgQIAAAQIECBAgQIAAAQIECBAgQIAAAQIEBruABw0G+xk2PwIECBAgQIAAAQIECBAgQIAAAQIECBAgQIAAAQIECBAgUEOBps53//def0uWLKlht7oiQIAAAQIECBAgQIAAAQIECBAgQIAAAQIECBAgQIAAAQIEBoPA4sWLK6Yho0EFhwIBAgQIECBAgAABAgQIECBAgAABAgQIECBAgAABAgQIECDQm8CI/MaFCxfmq5QJECBAgACBISKwdOnSmGn+ycQhMn3TJECAAAECBHYSyDIfui/YCcVXAgQIECAwxATcDwyxE266BAgQIECgB4HsfiC/SUaDvIgyAQIECBAgQIAAAQIECBAgQIAAAQIECBAgQIAAAQIECBAgUCjgQYNCGhsIECBAgAABAgQIECBAgAABAgQIECBAgAABAgQIECBAgACBvIAHDfIiygQIECBAgAABAgQIECBAgAABAgQIECBAgAABAgQIECBAgEChgAcNCmlsIECAAAECBAgQIECAAAECBAgQIECAAAECBAgQIECAAAECBPICHjTIiygTIECAAAECBAgQIECAAAECBAgQIECAAAECBAgQIECAAAEChQIeNCiksYEAAQIECBAgQIAAAQIECBAgQIAAAQIECBAgQIAAAQIECBDIC3jQIC+iTIAAAQIECBAgQIAAAQIECBAgQIAAAQIECBAgQIAAAQIECBQKeNCgkMYGAgQIECBAgAABAgQIECBAgAABAgQIECBAgAABAgQIECBAIC/gQYO8iDIBAgQIECBAgAABAgQIECBAgAABAgQIECBAgAABAgQIECBQKOBBg0IaGwgQIECAAAECBAgQIECAAAECBAgQIECAAAECBAgQIECAAIG8gAcN8iLKBAgQIECAAAECBAgQIECAAAECBAgQIECAAAECBAgQIECAQKHAiMItNvQo0NH+SNRfvOiOiG2dPTbbjcrm2PfMy86OePQoz4LsBqZdCRAgQIAAAQIECBAgQIAAAQIECBAgQIAAAQIECBAgQKDGAv4rdo1BdUeAAAECBAgQIECAAAECBAgQIECAAAECBAgQIECAAAECBAazgIwGNTq7J52zKHqaM61/pHs+Q0KNJqgbAgQIECBAoAeB16Putsuuibji2bdzbUZFecHV50WcOcYznjkgRQIECBAgMGgEHr1pcczlyrvf6nFOJ59/edTPm9G/3w167EwlAQIECBAgUJcC2zf8OMZ1ypXrehxf86xTov6G0w/rcbtKAgQIECDQSAJ+7W6ks2WsBAgQIECAAAECBAgQIECAAAECBAgQIECAAAECBAgQIEBggAU8Rj/AJ8DhCRAgQIAAgUYUqMxkcGvHzJjEj5YfH7GlKc1px8rG85dHxfjlp0Wc2lRukJr5JECAAAECBBpYYMf1/u5JMYurctf7tnu/F/XnXp0yIB0g01EDn21DJ0CAAAECPQvkMxnkMxl1bHswdvz6X6yMeMX4MRG/ecL4njtUS4AAAQIEGkBARoMGOEmGSIAAAQIECBAgQIAAAQIECBAgQIAAAQIECBAgQIAAAQIE6kVARoN6ORPGQYAAAQIECDSMwPYNa2KsK559X8QFV38qYpbJIJvIx78wL77OXHNjxFV3vRLRioVMSCRAgAABAo0rkK1MbL3nrZjEyed/IWI+c9HE2XOjfv7DKaPBTT/5ZZRnejdzOPggQIAAAQKNLZAyHv7ktidiGs2zTok4b0blf3oZ3nJ01C/409Tu3OV3Rvm540+LmL9/iEofBAgQIECgzgVkNKjzE2R4BAgQIECAAAECBAgQIECAAAECBAgQIECAAAECBAgQIECgngQqH6urp5EZCwECBAgQIECgTgWeWPd0jGzklKMiTh9d9OxmS2yfMGV4xFt/9lTEbcendzDmMyDERh8ECBAgQIBAQwhsWp9WJL7QeXCM98yPpOt998GPiqr3fyD9BNN+9+NRfu60QyNawdhdTA0BAgQIEGgUgY5tv46hPvTc2xGP+/T0Xoc+dv/R5e3rIj72ZEfEqbkMCL12YiMBAgQIEKgTgaJfxetkeIZBgAABAgQIECBAgAABAgQIECBAgAABAgQIECBAgAABAgQI1JOAjAb1dDaMhQABAgQIEKhzgfTuxd++lFYqjJw4JsZbnJmgcgXjm3dvivbtpc60X6mpzudreAQIECBAgECRwJbNr8WmLMNRcx/X9XHj031DqZTuJzZvTfcDU8e4HygyVk+AAAECBOpd4O1XN8cQX+hMf/9/elzvaztHjE0ZDg9sShkNXnwl3U+UZqT6ep+v8REgQIAAgZ0Fer/q7dzSdwIECBAgQIAAAQIECBAgQIAAAQIECBAgQIAAAQIECBAgQGDIC8hoUKN/Aquvuzx6Wl2j/nRDgAABAgQIDB6BrhWMg2dOZkKAAAECBAj0T6Drncwv9W9HrQkQIECAAIFBIzC8ZXTMZeKwlNHod4NmZiZCgAABAkNRQEaDoXjWzZkAAQIECBAgQIAAAQIECBAgQIAAAQIECBAgQIAAAQIECOyigIwGuwiX3+2kcxZF1Zxp/SPtaH8k9rt40R0R29IrGvPdKxMgQIAAAQIECBAgQIAAAQIECBAgQIAAAQIECBAgQIAAgboQkNGgLk6DQRAgQIAAAQIECBAgQIAAAQIECBAgQIAAAQIECBAgQIAAgcYQ6N/y+8aYk1ESIECAAAECBOpKYMvm18rjmVRX4zIYAgQIECBAYO8JvPrK1r13MEciQIAAAQIE6lKgY1u6H2h7J6U2bqnLURoUAQIECBCoTkBGg+qctCJAgAABAgQIECBAgAABAgQIECBAgAABAgQIECBAgAABAgTeFZDRwD8DAgQIECBAgEDVAqOi5fs/kG6h3nw+ZSrYlhYilFqaeu9o5JQDokFzqY+GvXdjKwECBAgQIFAHAuPGj4lRvHn3pojtpWxlYl/X+XQ/MX50X+3qYJKGQIAAAQIECPQqMGLs+Nh+YNO6iJu2vJPaj6lujeek/dP9RK8HsZEAAQIECNSpQHVXuzodvGERIECAAAECBAgQIECAAAECBAgQIECAAAECBAgQIECAAAECe1dARoO96+1oBAgQIECAwCAQ6FrB+ETM5qmtn4o4s9uKhWei/uE12yNO+/z0iH1lPohGPggQIECAAIG6Fhi7/+jy+NIKxsee7Ijy1Bn5n1pej/qfP7w5YvOsOaldk4wGAeGDAAECBAg0sMDwlnQ/MHFYuq6vWfdUzGbejMN6nNWm9el3hBc6D47tZ35keI/tVBIgQIAAgUYQkNGgEc6SMRIgQIAAAQIECBAgQIAAAQIECBAgQIAAAQIECBAgQIAAgToRyD9mXyfDMgwCBAgQIECAQP0KTJxdzmCw4sYY5A+X3RNx+iXHR8wyFjx6081RfnTScRG/e3x6d2MUfBAgQIAAAQINLbDPIen6Pv9DaWXiiqtvivl8bPlpEaeWMxa03dsa5RXPfjDiVYsOjeiDAAECBAgQGAwCB8Uk/mT+hIhrl6+MePNHU0bDeeVMRx3bHoz6a/+mLeLJ518eMbtfiIIPAgQIECDQYALDGmy8hkuAAAECBAgQIECAAAECBAgQIECAAAECBAgQIECAAAECBAgMoICMBgOI79AECBAgQIBAowqkFQsLbjw9JnDt6SmzwZ998d6KCY2cMjvK381lOqhopECAAAECBAg0qMCoGPdnLvpaGv9l10S84IvfyM0nvYP5qlymg1wjRQIECBAgQKCBBSbOPjtG/1el70U89+pFEW/JzSnLZJBlOshtViRAgAABAg0lIKNBQ50ugyVAgAABAgQIECBAgAABAgQIECBAgAABAgQIECBAgAABAgMrIKNBjfxXX5feqbS6Rv3phgABAgQIEGgEgSyzwZUx2AWNMGRjJECAAAECBGoskGU2SL8LfKbGveuOAAECBAgQaByBLLPBbSnBYeMM3EgJECBAgMAuCMhosAtodiFAgAABAgQIECBAgAABAgQIECBAgAABAgQIECBAgAABAkNVQEaDGp35k85J71yaM61/pB3tj8QILl50R8S2zhoNSDcECBAgQIAAAQIECBAgQIAAAQIECBAgQIAAAQIECBAgQGAPCMhosAdQdUmAAAECBAgQIECAAAECBAgQIECAAAECBAgQIECAAAECBAarQP+W3w9WhX7Ma3jzkdH6imUp9mPXHpvWur8eD6KSAAECBAgQIECAAAECBAgQIECAAAECBAgQIECAAAECBAjUSEBGgxpB6oYAAQIECBAgQIAAAQIECBAgQIAAAQIECBAgQIAAAQIECAwFAQ8aDIWzbI4ECBAgQIAAAQIECBAgQIAAAQIECBAgQIAAAQIECBAgQKBGAh40qBGkbggQIECAAAECBAgQIECAAAECBAgQIECAAAECBAgQIECAwFAQ8KDBUDjL5kiAAAECBAgQIECAAAECBAgQIECAAAECBAgQIECAAAECBGok4EGDGkHqhgABAgQIECBAgAABAgQIECBAgAABAgQIECBAgAABAgQIDAUBDxoMhbNsjgQIECBAgAABAgQIECBAgAABAgQIECBAgAABAgQIECBAoEYCHjSoEaRuCBAgQIAAAQIECBAgQIAAAQIECBAgQIAAAQIECBAgQIDAUBDwoMFQOMvmSIAAAQIECBAgQIAAAQIECBAgQIAAAQIECBAgQIAAAQIEaiTgQYMaQeqGAAECBAgQIECAAAECBAgQIECAAAECBAgQIECAAAECBAgMBYGmznf/995ElyxZMhTma44ECBAgQIAAAQIECBAgQIAAAQIECBAgQIAAAQIECBAgQIBAPwQWL15c0VpGgwoOBQIECBAgQIAAAQIECBAgQIAAAQIECBAgQIAAAQIECBAgQKA3gRH5jQsXLsxXKRMgQIAAAQJDRGDp0qUx0/yTiUNk+qZJgAABAgQI7CSQZT50X7ATiq8ECBAgQGCICbgfGGIn3HQJECBAgEAPAtn9QH6TjAZ5EWUCBAgQIECAAAECBAgQIECAAAECBAgQIECAAAECBAgQIECgUMCDBoU0NhAgQIAAAQIECBAgQIAAAQIECBAgQIAAAQIECBAgQIAAAQJ5AQ8a5EWUCRAgQIAAAQIECBAgQIAAAQIECBAgQIAAAQIECBAgQIAAgUIBDxoU0thAgAABAgQIECBAgAABAgQIECBAgAABAgQIECBAgAABAgQI5AU8aJAXUSZAgAABAgQIECBAgAABAgQIECBAgAABAgQIECBAgAABAgQKBTxoUEhjAwECBAgQIECAAAECBAgQIECAAAECBAgQIECAAAECBAgQIJAX8KBBXkSZAAECBAgQIECAAAECBAgQIECAAAECBAgQIECAAAECBAgQKBTwoEEhjQ0ECBAgQIAAAQIECBAgQIAAAQIECBAgQIAAAQIECBAgQIBAXsCDBnkRZQIECBAgQIAAAQIECBAgQIAAAQIECBAgQIAAAQIECBAgQKBQwIMGhTQ2ECBAgAABAgQIECBAgAABAgQIECBAgAABAgQIECBAgAABAnkBDxrkRZQJECBAgAABAgQIECBAgAABAgQIECBAgAABAgQIECBAgACBQoERhVts6FHg5bU3RP2FKzf1uL12lVOjq0uXnRJxclNT7brWEwECBAgQIECAAAECBAgQIECAAAECBAgQIECAAAECBAgQ2EUBGQ12Ec5uBAgQIECAAAECBAgQIECAAAECBAgQIECAAAECBAgQIEBgKArIaLCbZ32/Yz4bPVx36vRcT+1Rvn3psoitG9+OeNI5iyLOmVZJ39H+SNRfvOiOiG2dEXwQIECAAAECdS3weozutsuuibji2XS97xryqPi64OrzIs4c4xnPLhvfCBAgQIDA4BJ49KbFMaEr736rx4mdfP7lUT9vRuXvAT02VkmAAAECBAg0pMD2DT+OcZ9y5boex988K2UwvuH0w3rcrpIAAQIECDSSgF+7G+lsGSsBAgQIECBAgAABAgQIECBAgAABAgQIECBAgAABAgQIEBhgAY/RD/AJcHgCBAgQIECgEQUqMxnc2jEzJvGj5cdHbGlKc9qxsvH85VExfvlpEac2lRukZj4JECBAgACBBhbYcb2/e1LM4qrc9b7t3u9F/blXpwxIB8h01MBn29AJECBAgEDPAvlMBvlMRh3bHowdv/4XKyNeMX5MxG+eML7nDtUSIECAAIEGEJDRoAFOkiESIECAAAECBAgQIECAAAECBAgQIECAAAECBAgQIECAAIF6EZDRoEZn4uW1N0RPF67c1GuPq69L72RcvaPV1Ph2yWWTd9T4QoAAAQIECNS3wPYNa2KAK559X8QFV38qYpbJIBv9x78wL77OXHNjxFV3vRLRioVMSCRAgAABAo0rkK1MbL3nrZjEyed/IWI+c9HE2XOjfv7DKaPBTT/5ZZRnejdzOPggQIAAAQKNLZAyHv7ktidiGs2zTok4b0blf3oZ3nJ01C/409Tu3OV3Rvm540+LmL9/iEofBAgQIECgzgVkNKjzE2R4BAgQIECAAAECBAgQIECAAAECBAgQIECAAAECBAgQIECgngQqH6urp5E12FgmzPxSjHhFekXzu9/bo3z70mURWze+HfGkcxZFnDOtkr6j/ZGo90GAAAECBAjUv8AT656OQY6cclTE6aOLnt1sie0TpgyPeOvPnoq47fj0DsZ8BoTY6IMAAQIECBBoCIFN69OKxBc6D47xnvmRdL3vPvhRUfX+D6TfAdrvfjzKz512aEQrGLuLqSFAgAABAo0i0LHt1zHUh55Lv/8f9+npvQ597P6jy9vXRXzsyY6IU3MZEHrtxEYCBAgQIFAnAkW/itfJ8AyDAAECBAgQIECAAAECBAgQIECAAAECBAgQIECAAAECBAgQqCeBymX19TQyYyFAgAABAgQI1J1Aevfib19KKxVGThwTIyzOTFC5gvHNuzdF+/ZSZ9qv1FR3MzQgAgQIECBAoDqBLZtfi4ZZhqPmPq7r48an+4ZSKd1PbN6a7gemjnE/UJ24VgQIECBAoP4E3n51cwzqhc709/+nx/W+tnPE2JTh8MCmlNHgxVfS/URpRqqvvxkaEQECBAgQKBbo/apXvJ8tBAgQIECAAAECBAgQIECAAAECBAgQIECAAAECBAgQIECAwBAUkNFgt0/6tujh9qWXR2zdmFY4FnW7+rrUbnWuwX/63HG5GkUCBAgQIEBgsAh0rWAcLDMyDwIECBAgQKC/Al3vZH6pv7tqT4AAAQIECAwSgeEto2MmE4eljEa/GyTzMg0CBAgQGJoCMhoMzfNu1gQIECBAgAABAgQIECBAgAABAgQIECBAgAABAgQIECBAYJcEZDTYJbadd2qJwokLF6W486Z+fO9ofyRaX7yqHztpSoAAAQIECBAgQIAAAQIECBAgQIAAAQIECBAgQIAAAQIE9rKAjAZ7GdzhCBAgQIAAAQIECBAgQIAAAQIECBAgQIAAAQIECBAgQIBAIwvIaFCjs7cjI8GiO6LHts7qOj58zlei4bmHV9deKwIECBAgQKDxBLZsfq086EmNN3gjJkCAAAECBGoi8OorW2vSj04IECBAgACBxhXo2JbuB9reSf8BIeVLbtz5GDkBAgQIDG0BGQ2G9vk3ewIECBAgQIAAAQIECBAgQIAAAQIECBAgQIAAAQIECBAg0C8BGQ36xVUqbd3yesUek8aNKpd/V1G/76Rjo/ztC2ZFbG5Km7c/szq+nHHN+lThkwABAgQIEGgggXTdf/8H0i3Um8+nTAXbypmMWsrX+6IJjZxyQGxqLvXRsKgD9QQIECBAgEDdCIwbPybG8ubdmyK2l7KViX1d59P9xPjRfbWrm6kaCAECBAgQIFAgMGLs+NhyYNO6iJu2vJNajqlujeek/dP9REH3qgkQIECAQF0LVHe1q+spGBwBAgQIECBAgAABAgQIECBAgAABAgQIECBAgAABAgQIECCwtwRkNKhauj1abmrrqHoPDQkQIECAAIHBKdC1gvGJmOBTWz8VcWa3FQvPRP3Da7ZHnPb56RH7ynwQjXwQIECAAAECdS0wdv/R5fGlFYyPPZl+L5g6I/9TS8qM+POHN0f75llzIk5tktGgrk+wwREgQIAAgSoEhrek+4GJw9J1fc26p2KveTMO63HvTevT7wgvdB4c28/8yPAe26kkQIAAAQKNICCjQSOcJWMkQIAAAQIECBAgQIAAAQIECBAgQIAAAQIECBAgQIAAAQJ1IpB/zL5OhlWPw0gZDX77QpbRoDkGeeSh2TuUXqoY9Fsv3h/lr56VYsVGBQIECBAgQKChBSbOLmcwWHFjzOOHy+6JOP2S4yNmGQsevenmKD866biI3z0+vbsxCj4IECBAgACBhhbY55B0fZ//obQyccXVN8V8Prb8tIhZxoK2e1ujvOLZD0a8atGhEX0QIECAAAECg0HgoJjEn8yfEHHt8pURb/5oymg4r5zpqGPbg1F/7d+0RTz5/MsjZvcLUfBBgAABAgQaTGBYg43XcAkQIECAAAECBAgQIECAAAECBAgQIECAAAECBAgQIECAAIEBFJDRoEr87c88HS0feqezvEdLxPHZksU3Kjvad9KxUfHtC2ZFbO7j1Ysd7ZUZEfadtH/s975SHztWHlaJAAECBAgQ2CsCacXCghtPj6Nde3rKbPBnX7y34ugjp8yO8ndzmQ4qGikQIECAAAECDSowKsb9mYu+lsZ/2TURL/jiN3LzSe9gviqX6SDXSJEAAQIECBBoYIGJs8+O0f9V6XsRz716UcRbcnPKMhlkmQ5ymxUJECBAgEBDCcho0FCny2AJECBAgAABAgQIECBAgAABAgQIECBAgAABAgQIECBAgMDACsho0Kd/e7S46++fqmi53zEzojy5qZxxoPnIKF+xLMWKxlUU3t66JVq1lRMm7DdhdJT7yoRQRdeaECBAgAABAntMIMtscGUcYcEeO46OCRAgQIAAgfoVyDIbpHctf6Z+B2pkBAgQIECAwB4WyDIb3JYSHO7ho+meAAECBAgMrICMBgPr7+gECBAgQIAAAQIECBAgQIAAAQIECBAgQIAAAQIECBAgQKChBGQ06PN0NUeLExemdyod0PrDKP/r7EP63LOnBh3tj0T1xYvuiJhlMOhqOzW+fm3etK4q3wgQIECAAAECBAgQIECAAAECBAgQIECAAAECBAgQIECAQJ0IyGhQJyfCMAgQIECAAAECBAgQIECAAAECBAgQIECAAAECBAgQIECAQCMIyGjQz7N0xNwv93OPyubDm4+MiiuWpVi5VYkAAQIECBAgQIAAAQIECBAgQIAAAQIECBAgQIAAAQIECNS3gIwG9X1+jI4AAQIECBAgQIAAAQIECBAgQIAAAQIECBAgQIAAAQIECNSVgAcN6up0GAwBAgQIECBAgAABAgQIECBAgAABAgQIECBAgAABAgQIEKhvAQ8a1Pf5MToCBAgQIECAAAECBAgQIECAAAECBAgQIECAAAECBAgQIFBXAh40qKvTYTAECBAgQIAAAQIECBAgQIAAAQIECBAgQIAAAQIECBAgQKC+BTxoUN/nx+gIECBAgAABAgQIECBAgAABAgQIECBAgAABAgQIECBAgEBdCXjQoK5Oh8EQIECAAAECBAgQIECAAAECBAgQIECAAAECBAgQIECAAIH6FvCgQX2fH6MjQIAAAQIECBAgQIAAAQIECBAgQIAAAQIECBAgQIAAAQJ1JeBBg7o6HQZDgAABAgQIECBAgAABAgQIECBAgAABAgQIECBAgAABAgTqW8CDBvV9foyOAAECBAgQIECAAAECBAgQIECAAAECBAgQIECAAAECBAjUlUBT57v/e29ES5YsqauBGQwBAgQIECBAgAABAgQIECBAgAABAgQIECBAgAABAgQIECAw8AKLFy+uGISMBhUcCgQIECBAgAABAgQIECBAgAABAgQIECBAgAABAgQIECBAgEBvAiPyGxcuXJivUiZAgAABAgSGiMDSpUtjpvknE4fI9E2TAAECBAgQ2Ekgy3zovmAnFF8JECBAgMAQE3A/MMROuOkSIECAAIEeBLL7gfwmGQ3yIsoECBAgQIAAAQIECBAgQIAAAQIECBAgQIAAAQIECBAgQIBAoYAHDQppbCBAgAABAgQIECBAgAABAgQIECBAgAABAgQIECBAgAABAgTyAh40yIsoEyBAgAABAgQIECBAgAABAgQIECBAgAABAgQIECBAgAABAoUCHjQopLGBAAECBAgQIECAAAECBAgQIECAAAECBAgQIECAAAECBAgQyAt40CAvokyAAAECBAgQIECAAAECBAgQIECAAAECBAgQIECAAAECBAgUCnjQoJDGBgIECBAgQIAAAQIECBAgQIAAAQIECBAgQIAAAQIECBAgQCAv4EGDvIgyAQIECBAgQIAAAQIECBAgQIAAAQIECBAgQIAAAQIECBAgUCjgQYNCGhsIECBAgAABAgQIECBAgAABAgQIECBAgAABAgQIECBAgACBvIAHDfIiygQIECBAgAABAgQIECBAgAABAgQIECBAgAABAgQIECBAgEChgAcNCmlsIECAAAECBAgQIECAAAECBAgQIECAAAECBAgQIECAAAECBPICHjTIiygTIECAAAECBAgQIECAAAECBAgQIECAAAECBAgQIECAAAEChQIjCrfY0KvA9mdWx/Yzrlnfa7v+b2yOXc687OyIR4/yLEj/De1BgAABAgQIECBAgAABAgQIECBAgAABAgQIECBAgAABAntKwH/F3lOy+iVAgAABAgQIECBAgAABAgQIECBAgAABAgQIECBAgAABAoNQQEaDmp3UqdHTpctOiTi5qamqnjvaH4l2Fy+6I2JbZ1W7aUSAAAECBAjUhcDrMYrbLrsm4opn386NalSUF1x9XsSZYzzjmQNSJECAAAECg0bg0ZsWx1yuvPutHud08vmXR/28GX6K6RFIJQECBAgQGAQC2zf8OGZxypXrepxN86z03w9uOP2wHrerJECAAAECjSTg1+5GOlvGSoAAAQIECBAgQIAAAQIECBAgQIAAAQIECBAgQIAAAQIEBljAY/QDfAIcngABAgQIEGhEgcpMBrd2zIxJ/Gj58RFbyomNdqxsPH951I9fflrEqVVmPorGPggQIECAAIG6Fthxvb97Uozzqtz1vu3e70X9uVenDEgHyHRU1+fT4AgQIECAwK4I5DMZ5DMZdWx7MLr9+l+sjHjF+DERv3nC+F05nH0IECBAgEBdCMhoUBenwSAIECBAgAABAgQIECBAgAABAgQIECA0McVaAAAds0lEQVRAgAABAgQIECBAgEBjCMho0BjnySgJECBAgACBOhLYvmFNjGbFs++LuODqT0XMMhlkQ/34F+bF15lrboy46q5XIlqxkAmJBAgQIECgcQWylYmt97wVkzj5/C9EzGcumjh7btTPfzhlNLjpJ7+M8kzvZg4HHwQIECBAoLEFUsbDn9z2REyjedYpEefNqPxPL8Nbjo76BX+a2p27/M4oP3f8aRHz9w9R6YMAAQIECNS5gIwGdX6CDI8AAQIECBAgQIAAAQIECBAgQIAAAQIECBAgQIAAAQIECNSTQOVjdfU0soYby3Mx4kvOurThRm7ABAgQIECAQP8Enlj3dOwwcspREaePLnp2syW2T5gyPOKtP3sq4rbj0zsY8xkQYqMPAgQIECBAoCEENq1PKxJf6Dw4xnvmR9L1vvvgR0XV+z+QfoJpv/vxKD932qERrWDsLqaGAAECBAg0ikDHtl/HUB967u2Ix316eq9DH7v/6PL2dREfe7Ij4tRcBoReO7GRAAECBAjUiUDRr+J1MjzDIECAAAECBAgQIECAAAECBAgQIECAAAECBAgQIECAAAECBOpJQEaDmp2NqdHTpcvSO5gmNzVV1XNH+yPR7uJFd0Rs66xqN40IECBAgACBARFI71787UtppcLIiWNiFMWZCSpXML5596Zo315KF/yWUnX3CwMyVQclQIAAAQIEehXYsvm12J5lOGru47o+bny6byiV0v3E5q3pfmDqGPcDvULbSIAAAQIE6ljg7Vc3x+he6Ex//396XO9rO0eMTRkOD2xKGQ1efCXdT5RmpPo6nqqhESBAgACBbgK9X/W6NVdBgAABAgQIECBAgAABAgQIECBAgAABAgQIECBAgAABAgQIDGUBGQ2G8tk3dwIECBAgQGCvCHStYNwrh3MQAgQIECBAoA4Fut7J/FIdjs6QCBAgQIAAgb0hMLxldBxm4rCU0eh3e+OgjkGAAAECBPaQgIwGewhWtwQIECBAgAABAgQIECBAgAABAgQIECBAgAABAgQIECBAYDAKeNBgMJ5VcyJAgAABAgQIECBAgAABAgQIECBAgAABAgQIECBAgAABAntIwIMGewhWtwQIECBAgAABAgQIECBAgAABAgQIECBAgAABAgQIECBAYDAKjBiMkxqYOT0Xh73krEsH5vCOSoAAAQIECNStwJbNr5XHNqlux2hgBAgQIECAwJ4VePWVrXv2AHonQIAAAQIE6l6gY1u6H2h7pzPG2lL3IzZAAgQIECBQLCCjQbGNLQQIECBAgAABAgQIECBAgAABAgQIECBAgAABAgQIECBAgEBOQEaDHEi1xde2VK5E2HfSsbHrty+YFbG5qbqeOtofiYYXL7ojYlt6kLG6nbUiQIAAAQIE9rLAqDje+z+QbqHefD5lKthWvn639HH9HznlgNi/udRHw708K4cjQIAAAQIE+i8wbvyY2OnNuzdFbC9lKxP7us6n+4nxo/tq1/8x2YMAAQIECBDYuwIjxo6PAx7YtC7ipi3vpAGMqW6N56T90/3E3h21oxEgQIAAgdoIVHe1q82x9EKAAAECBAgQIECAAAECBAgQIECAAAECBAgQIECAAAECBAg0uICMBrt4Ardueb1iz5ETRke52kwGFTsrECBAgAABAg0l0LWC8YkY91NbPxVxZrcVC89E/cNrtkec9vnpEfvKfBCNfBAgQIAAAQJ1LTB2//Q7QKmUVjA+9mRHjHfqjPxPLen3g58/vDm2N8+ak9o1yWhQ1yfY4AgQIECAQBUCw1vS/cDEYem6vmbdU7HXvBmH9bj3pvXpd4QXOg+O7Wd+ZHiP7VQSIECAAIFGEJDRoBHOkjESIECAAAECBAgQIECAAAECBAgQIECAAAECBAgQIECAAIE6Ecg/Zl8nw6rfYXS0PxKDu+WnaWViNtJJ49I7FrOySIAAAQIECAxegYmzyxkMVtwYk/zhsnsiTr/k+IhZxoJHb7o5yo9OOi7id49P726Mgg8CBAgQIECgoQX2OSRd3+d/KK1MXHH1TTGfjy0/LeLUcsaCtntbo7zi2Q9GvGrRoRF9ECBAgAABAoNB4KCYxJ/MnxBx7fKVEW/+aMpoOK+c6ahj24NRf+3ftEU8+fzLI2b3C1HwQYAAAQIEGkxgWION13AJECBAgAABAgQIECBAgAABAgQIECBAgAABAgQIECBAgACBARSQ0aCf+E/cfV/s0daZ7dgcX448dExWIRIgQIAAAQKDXiCtWFhw4+kx02tPT5kN/uyL91bMfOSU2VH+bi7TQUUjBQIECBAgQKBBBVJmw89c9LU0/suuiXjBF7+Rm096B/NVuUwHuUaKBAgQIECAQAMLTJx9doz+r0rfi3ju1Ysi3pKbU5bJIMt0kNusSIAAAQIEGkpARoOGOl0GS4AAAQIECBAgQIAAAQIECBAgQIAAAQIECBAgQIAAAQIEBlZARoMq/bc/szpafue+7RV77HfMrCgfPWrXntnY/OSTsX9XhoSWKI/PXu5ccTQFAgQIECBAoL4EsswGV8awFtTX4IyGAAECBAgQ2CsCWWaD9K7lz+yVYzoIAQIECBAgUI8CWWaD21KCw3ocojERIECAAIGaCezafx2v2eF1RIAAAQIECBAgQIAAAQIECBAgQIAAAQIECBAgQIAAAQIECDSSgIwGVZ6tfQ46KVquuH5axGV//ljEE+alcnE37bHp9qXLIrZufLu46btbTjrnc7F9clNTr+1sJECAAAECBAgQIECAAAECBAgQIECAAAECBAgQIECAAAECAyEgo8FAqDsmAQIECBAgQIAAAQIECBAgQIAAAQIECBAgQIAAAQIECBBoUAEZDfp94j4Ye5z1/RT73r05mpy4cFGKfe+gBQECBAgQIECAAAECBAgQIECAAAECBAgQIECAAAECBAgQqFsBGQ3q9tQYGAECBAgQIECAAAECBAgQIECAAAECBAgQIECAAAECBAgQqD8BDxrU3zkxIgIECBAgQIAAAQIECBAgQIAAAQIECBAgQIAAAQIECBAgULcCHjSo21NjYAQIECBAgAABAgQIECBAgAABAgQIECBAgAABAgQIECBAoP4EPGhQf+fEiAgQIECAAAECBAgQIECAAAECBAgQIECAAAECBAgQIECAQN0KeNCgbk+NgREgQIAAAQIECBAgQIAAAQIECBAgQIAAAQIECBAgQIAAgfoT8KBB/Z0TIyJAgAABAgQIECBAgAABAgQIECBAgAABAgQIECBAgAABAnUr4EGDuj01BkaAAAECBAgQIECAAAECBAgQIECAAAECBAgQIECAAAECBOpPwIMG9XdOjIgAAQIECBAgQIAAAQIECBAgQIAAAQIECBAgQIAAAQIECNStgAcN6vbUGBgBAgQIECBAgAABAgQIECBAgAABAgQIECBAgAABAgQIEKg/gabOd//33rCWLFlSf6MzIgIECBAgQIAAAQIECBAgQIAAAQIECBAgQIAAAQIECBAgQGBABRYvXlxxfBkNKjgUCBAgQIAAAQIECBAgQIAAAQIECBAgQIAAAQIECBAgQIAAgd4ERuQ3Lly4MF+lTIAAAQIECAwRgaVLl8ZM808mDpHpmyYBAgQIECCwk0CW+dB9wU4ovhIgQIAAgSEm4H5giJ1w0yVAgAABAj0IZPcD+U0yGuRFlAkQIECAAAECBAgQIECAAAECBAgQIECAAAECBAgQIECAAIFCAQ8aFNLYQIAAAQIECBAgQIAAAQIECBAgQIAAAQIECBAgQIAAAQIECOQFPGiQF1EmQIAAAQIECBAgQIAAAQIECBAgQIAAAQIECBAgQIAAAQIECgU8aFBIYwMBAgQIECBAgAABAgQIECBAgAABAgQIECBAgAABAgQIECCQF/CgQV5EmQABAgQIECBAgAABAgQIECBAgAABAgQIECBAgAABAgQIECgU8KBBIY0NBAgQIECAAAECBAgQIECAAAECBAgQIECAAAECBAgQIECAQF7AgwZ5EWUCBAgQIECAAAECBAgQIECAAAECBAgQIECAAAECBAgQIECgUMCDBoU0NhAgQIAAAQIECBAgQIAAAQIECBAgQIAAAQIECBAgQIAAAQJ5AQ8a5EWUCRAgQIAAAQIECBAgQIAAAQIECBAgQIAAAQIECBAgQIAAgUKBEYVbbOiXwC9ar4z237lvYsRLl50ScXJTU66f9ijfvnRZxNaNb0fcd9KxEb99wayIzfndotYHAQIECBAgQIAAAQIECBAgQIAAAQIECBAgQIAAAQIECBAYWAEZDQbW39EJECBAgAABAgQIECBAgAABAgQIECBAgAABAgQIECBAgEBDCchosJunq6P9kejhlp9uL/f0XMRrbn464nWnTi/Xp7D9mQfiS5bJoFRqjvJpX5oZUSaD5OSTAAECBAgQIECAAAECBAgQIECAAAECBAgQIECAAAECBOpTQEaD+jwvRkWAAAECBAgQIECAAAECBAgQIECAAAECBAgQIECAAAECBOpSQEaD3Twtw5uPjB4Wn7sl4hnXrI/4xgP3RXzwhEMiHj3q+Yj/49onImYfh8+ZU97umY/MRCRAgAABAo0r8HoM/bbLron41qeXRJw3o7pbru0bfhztT7lyXcT8R/OsU6LqhtMPy2+qKHdsezDKX/+L2yO+0FmxuTRyyuyo+O4lx0dsaarcni89etPiqLry7rfym6J88vmXR+xrnrWaX6lU6bzi2bdz4xoV5QVXnxdx5hj3WTkgRQIECBDYCwLZ9fOeMV+Jo33zhPFVHbV21/HaXi9rdR2v3fwSZ+a8u/cpVZ0cjQgQIECAQB8Ctbpe9nEYmwkQIECAQF0I+NW1Lk6DQRAgQIAAAQIECBAgQIAAAQIECBAgQIAAAQIECBAgQIAAgcYQqG55XWPMZS+Nsj2Oc/vSZRFbN+ZX0GXDSO2uv+hbUXF9Vp2Lj6/6QdTMX5U27Dvp2Pjy7QtmRWzuY4Vh2ssnAQIECBAgMJACRSvpTq5yUPkVD/kMAV0r/1ZGj1eMHxMxvzKyq13KZNAyb0G0+8sdKyififK1p98Y8YK/Tv0UZUjomtekaH/V8tMiTm1KNyht934vyudenTI4HFCQQaBW88tnMri1Y2Yc/0fLKzMz7Bj3+ctj+/jcuKPSBwECBAgQqLHAjuvi8raKnv/o1IpiYaF21/HKTAa7e72s1XW8dvNLhDuu93dPiopdvU8pPCE2ECBAgACBfgjU6nrZj0NqSoAAAQIEBlxARoMBPwUGQIAAAQIECBAgQIAAAQIECBAgQIAAAQIECBAgQIAAAQIEGkdARoManavD56R3Lp43e1y/enx57Q3R/sKVm/q1n8YECBAgQIDAQApUZgYY/bXLYjCr/vPPIn79L1JGgb5HmFYc/uS2J6Jp86xTIs6bUXmLNrzl6Khf8Kep3bnL74zyc8efFjHLMLDuH++O8pbJsyN+8/j8u6APivozFx4R8ZQrU/u1fzwjyjPHpGdQsxWHrfe8FfUnn/+FiNlxovDux8TZc+Pr/IdTRoObfvLLKM88/bByk9rOb/uGNdHvimffF3HB1Z+K2JLLAPXxL8yL+plrUuaGVXe9EuV8Boio9EGAAAECBHZZoDJzwK8/dnb0dNvf/EvELIPQ76rsv1bX8dpdL2t7Ha/V/Gp3n1LlidGMAAECBAj0KlDb62Wvh7KRAAECBAjUmYCMBnV2QgyHAAECBAgQIECAAAECBAgQIECAAAECBAgQIECAAAECBAjUs0Dlcrl6HqmxESBAgAABAgTqRiBlBlhw45UVI+rYVlHss9Cx7dfR5qHn3o543Ken97rP2P1Hl7evi/jYkx0Rp87YGPHhNdsjTvt86ie/0j82vvsxYmzKdHBgU+rnoce3xKaZJ6T6TetT5oQXOg+O+jM/MjzbNRdHRfn9H0i3lO13Px7l5047NOLk9lrNL/X/xLqno9+RU46KOH100TOzLbF9wpQ07lt/9lSUt5UzPBS5RCMfBAgQIECgaoF0HfzMRZfn9kiZj3KVvRRT+1pdx2t1vXxfza7j9Xmfks/U1MsJsokAAQIECBQK1O7vev+pphDZBgIECBCoW4GiX2frdsAGRoAAAQIECBAgQIAAAQIECBAgQIAAAQIECBAgQIAAAQIECAycgMfkBs7ekQkQIECAAIEhLvD2q5tD4IXOtCLy0+N6fwY0n4ngxVdei/07Dtgase2dzogf3X9MxKKP4S0pM8LEYU3R5MnNqZ9SKWU02FIuZ5kDmkupXVF/48Znx0vvpty8NY1j4uu1mV9pxu/FoX/7Usr8MHJiOl5xZoLKTAtv3r0p9m8vpXG19DGfonmqJ0CAAAECe0KgY1utruO1vV7+L4P8PmXqmN7vb/bEudYnAQIECAw+gVr9XV+akf4eH3xCZkSAAAECg1mg91+zB/PMzY0AAQIECBAgQIAAAQIECBAgQIAAAQIECBAgQIAAAQIECBDot4CMBv0m63mHx1f9IDbMX9XzdrUECBAgQIAAgd0VyGci+N0ud9gSe06YMjzik7vcT9px7P4pQ0Kp9NJu9VS7+aVhdGVa2K1h2ZkAAQIECNSZQG2v47W6XtbuOl7b+dXqPqXO/hEYDgECBAg0qEDtrpcNCmDYBAgQIDCoBGQ0GFSn02QIECBAgAABAgQIECBAgAABAgQIECBAgAABAgQIECBAgMCeFZDRoN++zbHHiQsXpVi4/29iy7I/vznihqM+E/G6U6cX7mEDAQIECBAgQIAAAQIECBAgQIAAAQIECBAgQIAAAQIECBCodwEZDer9DBkfAQIECBAgQIAAAQIECBAgQIAAAQIECBAgQIAAAQIECBCoIwEZDfp5Ml5ee0PsceHKNyN+6atHRLzrunsitnVOTdsX/H7Eh97pjFh64NaIfzluVMTzZo9L9Ts+KzMg/Otnv1zQbscOvhAgQIAAAQJDTKBj29aYcVv5/iK9wXhXELbFTi9v7Eg7H7ArfXTt8+oraVxdNbv2rXbzS8ffsvm18kAm7dqA7EWAAAECBOpSoLbX8VpdL2t3Ha/t/Gp1n1KX/xQMigABAgQaTqB218uGm7oBEyBAgMAgFJDRYBCeVFMiQIAAAQIECBAgQIAAAQIECBAgQIAAAQIECBAgQIAAAQJ7SkBGg6pl26Pl+kdfLe/xdsSH12/qsYeRB58U9f/9a00Rz7hmfcTHV62K+OChZ0c8elR61uPltT+NcpYBYd/HfhXl9uNS5oPm1E3U+SBAgAABAgQGh8CIseNjIgc2rYu4acs7aWJjqnsWdNL+Y6L98JZ/iThxWLphePGV8kr+Gan/1Gnx5+TxqZ+sxbhy+c27031OeyllaGop9XVDkjI3jR+d2o0YXpv5lUrplvX9H0jxzefT/LaVE0e19DGskVNSyobmPsefCYgECBAgQGDvCQxvGR0H2/3reLoO1+p6OdjvU/beGXYkAgQIEBjMArW6Xg5mI3MjQIAAgcErUN2v2IN3/mZGgAABAgQIECBAgAABAgQIECBAgAABAgQIECBAgAABAgQI9ENARoMqsTran4uWDz+fMhmUSlOj/NnjJ0b86wdSBoJ8d/sclDIb/MWslAnhX2d/KZp8YthjEf/rVW9G/OrXPxnxqNabIz704lMRN2ybGTHLfBAFHwQIECBAgMCgEMivYFyzLl3/5804rMf5bVr/RNS/0HlwxDM/MrzcriXihCmpfOvPUj/bjk8ZBfIr/rdvSP2s7Uj7LTg8ZVAqd1Yau39aWVkqpUwLjz3ZEZumzsjfOr4e9T9/eHPE5llzUrumcoqB3ArNXZ9fdFvqyrSQxv/U1k/FhpndMkA8E/UPr9kecdrnp0fMO0SlDwIECBAgMOACtb2O1+x6WbPreG3nV7P7lAE/7wZAgAABAoNBoHZ/1w8GDXMgQIAAgaEmIKPBUDvj5kuAAAECBAgQIECAAAECBAgQIECAAAECBAgQIECAAAECBHZDIL8sbTe6Gty7bn7yyZhgW/ldwPsdMyPKU4b9rqqJHzH3yxXttj+zJcq/eWF9xMU3fzbi6TN/L+JD97VHfOSJ9A7io2dXrjSMjT4IECBAgACBBhc4KMb/J/MnRFy7fGXEmz+aVuDPK2cQ6Nj2YNRf+zdtEU8+//KIU7PMAaVRUf7jzxwaccWV90b8wV2pn2+ekDIblEpppf/1S38R2//o1K9GzGcE2OeQ46J+/odS5oAVV98U5Y8tPy1idty2e1ujvOLZD0a8alE6fhTio1bzSz1OnF3OYLDixqj44bJ7Ik6/5PiIWcaCR2+6OcqPTkrz+G45s0NU+iBAgAABAnUnUNvreO2ul7W6jtd2frW7T6m7fwgGRIAAAQINKVCr62VDTt6gCRAgQGCICwwb4vM3fQIECBAgQIAAAQIECBAgQIAAAQIECBAgQIAAAQIECBAgQKAfAjIaVIm17/S0IvCoYZtjj1GHpXcjD29+McoTyisKs4wHfXX79PpfVTQ5ttzftBEbU/19bREnjvMsSAWUAgECBAgQGIQCE2efHbP6q9L3Ip579aKIt+TmmmUyyDId5DaX9jnkc1G18htpyylXXhtfPvN/V7b8o1MXREVXpoPK7aVyhoTPXPS1tOGyayJe8MVyxzuap/uhq5afFjVZpoMdm8tfajW/UimtFFlw4+nR87Wnp8wGf/bFlMEhO+7IKbPj63dzmQ6y7SIBAgQIEKhHgdpdx2t7vazVdbx280sZEmp1n1KP/xaMiQABAgQaT6BW18vGm7kREyBAgMBQFvBfsYfy2Td3AgQIECBAgAABAgQIECBAgAABAgQIECBAgAABAgQIECDQT4Gmznf/994+S5YsiV0XLlzYzy40f0/g5bU3BMSFKzf1C2S/Yz4b7a87NWVM6NfOGhMgQIAAgRoLLF26NHpcvHhxjXvWHQECBAgQINBoAtnvBO4LGu3MGS8BAgQIEKidgPuB2lnqiQABAgQINKpA0f2AjAaNekaNmwABAgQIECBAgAABAgQIECBAgAABAgQIECBAgAABAgQIDIDAiAE45qA85ISZX4p5rZg5KKdnUgQIECBAgAABAgQIECBAgAABAgQIECBAgAABAgQIECBAIARkNPAPgQABAgQIECBAgAABAgQIECBAgAABAgQIECBAgAABAgQIEKhawIMGVVNpSIAAAQIECBAgQIAAAQIECBAgQIAAAQIECBAgQIAAAQIECHjQwL8BAgQIECBAgAABAgQIECBAgAABAgQIECBAgAABAgQIECBAoGoBDxpUTaUhAQIECBAgQIAAAQIECBAgQIAAAQIECBAgQIAAAQIECBAg4EED/wYIECBAgAABAgQIECBAgAABAgQIECBAgAABAgQIECBAgACBqgU8aFA1lYYECBAgQIAAAQIECBAgQIAAAQIECBAgQIAAAQIECBAgQICABw38GyBAgAABAgQIECBAgAABAgQIECBAgAABAgQIECBAgAABAgSqFvCgQdVUGhIgQIAAAQIECBAgQIAAAQIECBAgQIAAAQIECBAgQIAAAQIeNPBvgAABAgQIECBAgAABAgQIECBAgAABAgQIECBAgAABAgQIEKhawIMGVVNpSIAAAQIECBAgQIAAAQIECBAgQIAAAQIECBAgQIAAAQIECHjQwL8BAgQIECBAgAABAgQIECBAgAABAgQIECBAgAABAgQIECBAoGqBps53//de6yVLllS9k4YECBAgQIAAAQIECBAgQIAAAQIECBAgQIAAAQIECBAgQIDA0BBYvHhxxURlNKjgUCBAgAABAgQIECBAgAABAgQIECBAgAABAgQIECBAgAABAgR6E9iR0aC3RrYRIECAAAECBAgQIECAAAECBAgQIECAAAECBAgQIECAAAECBN4TkNHAvwMCBAgQIECAAAECBAgQIECAAAECBAgQIECAAAECBAgQIEDg/2/XDmkAAAAYhvl3PQsTUH7UHG4LCA02lSEBAgQIECBAgAABAgQIECBAgAABAgQIECBAgAABAgQIECAgNPABAgQIECBAgAABAgQIECBAgAABAgQIECBAgAABAgQIECBAYAsIDTaVIQECBAgQIECAAAECBAgQIECAAAECBAgQIECAAAECBAgQICA08AECBAgQIECAAAECBAgQIECAAAECBAgQIECAAAECBAgQIEBgCwR3FPNUo7EycwAAAABJRU5ErkJggg==;" vertex="1" parent="1">
          <mxGeometry x="-81" y="299" width="1095.4" height="150" as="geometry" />
        </mxCell>
        <mxCell id="1ga72cSjbWooDJT9AYzO-68" value="" style="endArrow=none;dashed=1;html=1;rounded=0;exitX=0.038;exitY=0.977;exitDx=0;exitDy=0;exitPerimeter=0;" edge="1" parent="1" source="1ga72cSjbWooDJT9AYzO-54">
          <mxGeometry width="50" height="50" relative="1" as="geometry">
            <mxPoint x="-91" y="599" as="sourcePoint" />
            <mxPoint x="-91" y="309" as="targetPoint" />
          </mxGeometry>
        </mxCell>
        <mxCell id="1ga72cSjbWooDJT9AYzO-69" value="" style="rounded=0;whiteSpace=wrap;html=1;" vertex="1" parent="1">
          <mxGeometry x="-77" y="479" width="1087" height="731" as="geometry" />
        </mxCell>
        <mxCell id="1ga72cSjbWooDJT9AYzO-70" value="&lt;u&gt;详情&lt;/u&gt;" style="rounded=0;whiteSpace=wrap;html=1;fillColor=#f5f5f5;fontColor=#333333;strokeColor=#666666;" vertex="1" parent="1">
          <mxGeometry x="-77" y="479" width="1047" height="40" as="geometry" />
        </mxCell>
        <mxCell id="1ga72cSjbWooDJT9AYzO-71" value="ams礼包组" style="rounded=0;whiteSpace=wrap;html=1;fillColor=#f5f5f5;fontColor=#333333;strokeColor=#666666;" vertex="1" parent="1">
          <mxGeometry x="-37" y="479" width="100" height="40" as="geometry" />
        </mxCell>
        <mxCell id="1ga72cSjbWooDJT9AYzO-72" value="xxxx" style="rounded=0;whiteSpace=wrap;html=1;fillColor=#f5f5f5;fontColor=#333333;strokeColor=#666666;" vertex="1" parent="1">
          <mxGeometry x="63" y="479" width="110" height="40" as="geometry" />
        </mxCell>
        <mxCell id="1ga72cSjbWooDJT9AYzO-73" value="抽" style="rounded=0;whiteSpace=wrap;html=1;fillColor=#d5e8d4;strokeColor=#82b366;" vertex="1" parent="1">
          <mxGeometry x="970" y="479" width="40" height="40" as="geometry" />
        </mxCell>
        <mxCell id="1ga72cSjbWooDJT9AYzO-75" value="8307904e-773f-4456-9a52-b3a59d65..." style="rounded=0;whiteSpace=wrap;html=1;fillColor=#f5f5f5;fontColor=#333333;strokeColor=#666666;" vertex="1" parent="1">
          <mxGeometry x="173" y="479" width="250" height="40" as="geometry" />
        </mxCell>
        <mxCell id="1ga72cSjbWooDJT9AYzO-76" value="不限" style="rounded=0;whiteSpace=wrap;html=1;fillColor=#f5f5f5;strokeColor=#666666;fontColor=#333333;" vertex="1" parent="1">
          <mxGeometry x="-77" y="479" width="40" height="40" as="geometry" />
        </mxCell>
        <mxCell id="1ga72cSjbWooDJT9AYzO-77" value="开始时间" style="rounded=0;whiteSpace=wrap;html=1;fillColor=#f5f5f5;fontColor=#333333;strokeColor=#666666;" vertex="1" parent="1">
          <mxGeometry x="423" y="479" width="100" height="40" as="geometry" />
        </mxCell>
        <mxCell id="1ga72cSjbWooDJT9AYzO-78" value="结束时间" style="rounded=0;whiteSpace=wrap;html=1;fillColor=#f5f5f5;fontColor=#333333;strokeColor=#666666;" vertex="1" parent="1">
          <mxGeometry x="523" y="479" width="100" height="40" as="geometry" />
        </mxCell>
        <mxCell id="1ga72cSjbWooDJT9AYzO-79" value="状态" style="rounded=0;whiteSpace=wrap;html=1;fillColor=#f5f5f5;fontColor=#333333;strokeColor=#666666;" vertex="1" parent="1">
          <mxGeometry x="623" y="479" width="80" height="40" as="geometry" />
        </mxCell>
        <mxCell id="1ga72cSjbWooDJT9AYzO-80" value="&lt;u&gt;详情&lt;/u&gt;" style="rounded=0;whiteSpace=wrap;html=1;fillColor=#f5f5f5;fontColor=#333333;strokeColor=#666666;" vertex="1" parent="1">
          <mxGeometry x="703" y="479" width="80" height="40" as="geometry" />
        </mxCell>
        <mxCell id="1ga72cSjbWooDJT9AYzO-82" value="" style="endArrow=none;dashed=1;html=1;rounded=0;exitX=0.038;exitY=0.977;exitDx=0;exitDy=0;exitPerimeter=0;" edge="1" parent="1" source="1ga72cSjbWooDJT9AYzO-69">
          <mxGeometry width="50" height="50" relative="1" as="geometry">
            <mxPoint x="-38" y="809" as="sourcePoint" />
            <mxPoint x="-38" y="519" as="targetPoint" />
          </mxGeometry>
        </mxCell>
        <mxCell id="1ga72cSjbWooDJT9AYzO-83" value="" style="rounded=0;whiteSpace=wrap;html=1;" vertex="1" parent="1">
          <mxGeometry x="-21" y="585" width="1021" height="220" as="geometry" />
        </mxCell>
        <mxCell id="1ga72cSjbWooDJT9AYzO-84" value="&lt;u&gt;详情&lt;/u&gt;" style="rounded=0;whiteSpace=wrap;html=1;fillColor=#f5f5f5;fontColor=#333333;strokeColor=#666666;" vertex="1" parent="1">
          <mxGeometry x="-21" y="585" width="1020" height="40" as="geometry" />
        </mxCell>
        <mxCell id="1ga72cSjbWooDJT9AYzO-85" value="ams礼包" style="rounded=0;whiteSpace=wrap;html=1;fillColor=#f5f5f5;fontColor=#333333;strokeColor=#666666;" vertex="1" parent="1">
          <mxGeometry x="19" y="585" width="100" height="40" as="geometry" />
        </mxCell>
        <mxCell id="1ga72cSjbWooDJT9AYzO-86" value="名字" style="rounded=0;whiteSpace=wrap;html=1;fillColor=#f5f5f5;fontColor=#333333;strokeColor=#666666;" vertex="1" parent="1">
          <mxGeometry x="119" y="585" width="110" height="40" as="geometry" />
        </mxCell>
        <mxCell id="1ga72cSjbWooDJT9AYzO-87" value="领" style="rounded=0;whiteSpace=wrap;html=1;fillColor=#f5f5f5;strokeColor=#666666;fontColor=#333333;" vertex="1" parent="1">
          <mxGeometry x="960" y="585" width="40" height="40" as="geometry" />
        </mxCell>
        <mxCell id="1ga72cSjbWooDJT9AYzO-88" value="权重" style="rounded=0;whiteSpace=wrap;html=1;fillColor=#f5f5f5;fontColor=#333333;strokeColor=#666666;" vertex="1" parent="1">
          <mxGeometry x="920" y="585" width="40" height="40" as="geometry" />
        </mxCell>
        <mxCell id="1ga72cSjbWooDJT9AYzO-89" value="8307904e-773f-4456-9a52-b3a59d65..." style="rounded=0;whiteSpace=wrap;html=1;fillColor=#f5f5f5;fontColor=#333333;strokeColor=#666666;" vertex="1" parent="1">
          <mxGeometry x="229" y="585" width="250" height="40" as="geometry" />
        </mxCell>
        <mxCell id="1ga72cSjbWooDJT9AYzO-90" value="限" style="rounded=0;whiteSpace=wrap;html=1;fillColor=#f5f5f5;strokeColor=#666666;fontColor=#333333;" vertex="1" parent="1">
          <mxGeometry x="-21" y="585" width="40" height="40" as="geometry" />
        </mxCell>
        <mxCell id="1ga72cSjbWooDJT9AYzO-91" value="开始时间" style="rounded=0;whiteSpace=wrap;html=1;fillColor=#f5f5f5;fontColor=#333333;strokeColor=#666666;" vertex="1" parent="1">
          <mxGeometry x="479" y="585" width="100" height="40" as="geometry" />
        </mxCell>
        <mxCell id="1ga72cSjbWooDJT9AYzO-92" value="结束时间" style="rounded=0;whiteSpace=wrap;html=1;fillColor=#f5f5f5;fontColor=#333333;strokeColor=#666666;" vertex="1" parent="1">
          <mxGeometry x="579" y="585" width="100" height="40" as="geometry" />
        </mxCell>
        <mxCell id="1ga72cSjbWooDJT9AYzO-93" value="状态" style="rounded=0;whiteSpace=wrap;html=1;fillColor=#f5f5f5;fontColor=#333333;strokeColor=#666666;" vertex="1" parent="1">
          <mxGeometry x="679" y="585" width="80" height="40" as="geometry" />
        </mxCell>
        <mxCell id="1ga72cSjbWooDJT9AYzO-94" value="&lt;u&gt;详情&lt;/u&gt;" style="rounded=0;whiteSpace=wrap;html=1;fillColor=#f5f5f5;fontColor=#333333;strokeColor=#666666;" vertex="1" parent="1">
          <mxGeometry x="759" y="585" width="80" height="40" as="geometry" />
        </mxCell>
        <mxCell id="1ga72cSjbWooDJT9AYzO-95" value="" style="shape=image;verticalLabelPosition=bottom;labelBackgroundColor=default;verticalAlign=top;aspect=fixed;imageAspect=0;image=data:image/png,iVBORw0KGgoAAAANSUhEUgAACBoAAAEcCAYAAABjp0UiAAAMbmlDQ1BJQ0MgUHJvZmlsZQAASImVVwdYU8kWnluSkJDQAghICb0JIjWAlBBaAOlFEJWQBBJKjAlBxY4uKrh2EcWKroootpVmx64sir0vFhSUdVEXGypvQgK67ivfO9839/45c+Y/5c7k3gOA5geuRJKHagGQLy6QxocFMcampjFInQAB2kAfeAFtLk8mYcXGRgEog/e/y7ub0BrKNScF1z/n/6vo8AUyHgBIOsSZfBkvH+ITAODreRJpAQBEhd5ySoFEgedArCuFAUK8SoGzlXinAmcq8ZEBm8R4NsRXAFCjcrnSbAA07kM9o5CXDXk0PkPsIuaLxABojoDYnyfk8iFWxD4iP3+SAldAbAftJRDDeAAz8zvO7L/xZw7xc7nZQ1iZ14CoBYtkkjzutP+zNP9b8vPkgz5s4KAKpeHxivxhDW/nTopUYCrE3eLM6BhFrSH+IOIr6w4AShHKw5OU9qgxT8aG9YPPHKAufG5wJMTGEIeK86KjVPrMLFEoB2K4W9CpogJOIsQGEC8UyEISVDabpZPiVb7Quiwpm6XSn+dKB/wqfD2U5yaxVPxvhAKOih/TKBImpkBMgdiqUJQcDbEGxM6y3IRIlc3oIiE7etBGKo9XxG8FcbxAHBak5McKs6Sh8Sr70nzZYL7YZqGIE63CBwqEieHK+mCnedyB+GEu2BWBmJU0yCOQjY0azIUvCA5R5o51CsRJCSqeD5KCoHjlWpwiyYtV2eMWgrwwhd4CYndZYYJqLZ5cADenkh/PkhTEJirjxItyuBGxynjwZSAKsEEwYAA5HJlgEsgBotbu+m74SzkTCrhACrKBADipNIMrUgZmxPCaAIrAHxAJgGxoXdDArAAUQv2XIa3y6gSyBmYLB1bkgmcQ54NIkAd/ywdWiYe8JYOnUCP6h3cuHDwYbx4civl/rx/UftOwoCZKpZEPemRoDloSQ4jBxHBiKNEeN8L9cV88Cl4D4XDFmbj3YB7f7AnPCG2Ex4QbhHbCnYmiYukPUY4B7ZA/VFWLzO9rgdtATg88CPeD7JAZ18eNgBPuDv2w8ADo2QNq2aq4FVVh/MD9twy+exoqO7ILGSUPIweS7X5cqeGg4THEoqj19/VRxpo5VG/20MyP/tnfVZ8P75E/WmILsYPYOewkdgE7gtUDBnYca8BasKMKPLS7ng7srkFv8QPx5EIe0T/8cVU+FZWUudS4dLl8Vs4VCKYWKA4ee5JkmlSULSxgsODbQcDgiHnOIxiuLq7uACjeNcq/r7dxA+8QRL/lm27e7wD4He/v7z/8TRdxHID9XvD4N37T2TEB0FYH4HwjTy4tVOpwxYUA/yU04UkzBKbAEtjBfFyBJ/AFgSAERIAYkAhSwQRYZSHc51IwBcwAc0EJKAPLwGqwDmwCW8FOsAccAPXgCDgJzoJL4Aq4Ae7B3dMBXoIe8A70IQhCQmgIHTFEzBBrxBFxRZiIPxKCRCHxSCqSgWQjYkSOzEDmIWXICmQdsgWpRvYjjchJ5ALShtxBHiFdyBvkE4qhVFQXNUFt0JEoE2WhkWgiOh7NRiejReh8dAlagVahu9E69CR6Cb2BtqMv0V4MYOqYPmaOOWFMjI3FYGlYFibFZmGlWDlWhdViTfA5X8PasW7sI07E6TgDd4I7OBxPwnn4ZHwWvhhfh+/E6/DT+DX8Ed6DfyXQCMYER4IPgUMYS8gmTCGUEMoJ2wmHCGfgWeogvCMSifpEW6IXPIupxBzidOJi4gbiXuIJYhvxCbGXRCIZkhxJfqQYEpdUQCohrSXtJh0nXSV1kD6oqauZqbmqhaqlqYnVitXK1XapHVO7qvZcrY+sRbYm+5BjyHzyNPJS8jZyE/kyuYPcR9Gm2FL8KImUHMpcSgWllnKGcp/yVl1d3ULdWz1OXaQ+R71CfZ/6efVH6h+pOlQHKpuaTpVTl1B3UE9Q71Df0mg0G1ogLY1WQFtCq6adoj2kfdCgazhrcDT4GrM1KjXqNK5qvNIka1prsjQnaBZplmse1Lys2a1F1rLRYmtxtWZpVWo1at3S6tWma4/SjtHO116svUv7gnanDknHRidEh68zX2erzimdJ3SMbkln03n0efRt9DP0Dl2irq0uRzdHt0x3j26rbo+ejp67XrLeVL1KvaN67fqYvo0+Rz9Pf6n+Af2b+p+GmQxjDRMMWzSsdtjVYe8NhhsEGggMSg32Gtww+GTIMAwxzDVcblhv+MAIN3IwijOaYrTR6IxR93Dd4b7DecNLhx8YftcYNXYwjjeebrzVuMW418TUJMxEYrLW5JRJt6m+aaBpjukq02OmXWZ0M38zkdkqs+NmLxh6DBYjj1HBOM3oMTc2DzeXm28xbzXvs7C1SLIotthr8cCSYsm0zLJcZdls2WNlZjXGaoZVjdVda7I101povcb6nPV7G1ubFJsFNvU2nbYGthzbItsa2/t2NLsAu8l2VXbX7Yn2TPtc+w32VxxQBw8HoUOlw2VH1NHTUeS4wbFtBGGE9wjxiKoRt5yoTiynQqcap0fO+s5RzsXO9c6vRlqNTBu5fOS5kV9dPFzyXLa53BulMypiVPGoplFvXB1cea6VrtfdaG6hbrPdGtxeuzu6C9w3ut/2oHuM8Vjg0ezxxdPLU+pZ69nlZeWV4bXe6xZTlxnLXMw8703wDvKe7X3E+6OPp0+BzwGfP32dfHN9d/l2jrYdLRi9bfQTPws/rt8Wv3Z/hn+G/2b/9gDzAG5AVcDjQMtAfuD2wOcse1YOazfrVZBLkDToUNB7tg97JvtEMBYcFlwa3BqiE5IUsi7kYahFaHZoTWhPmEfY9LAT4YTwyPDl4bc4Jhwep5rTE+EVMTPidCQ1MiFyXeTjKIcoaVTTGHRMxJiVY+5HW0eLo+tjQAwnZmXMg1jb2Mmxh+OIcbFxlXHP4kfFz4g/l0BPmJiwK+FdYlDi0sR7SXZJ8qTmZM3k9OTq5PcpwSkrUtrHjhw7c+ylVKNUUWpDGiktOW17Wu+4kHGrx3Wke6SXpN8cbzt+6vgLE4wm5E04OlFzInfiwQxCRkrGrozP3BhuFbc3k5O5PrOHx+at4b3kB/JX8bsEfoIVgudZflkrsjqz/bJXZncJA4Tlwm4RW7RO9DonPGdTzvvcmNwduf15KXl789XyM/IbxTriXPHpSaaTpk5qkzhKSiTtk30mr57cI42UbpchsvGyhgJd+FHfIreT/yR/VOhfWFn4YUrylINTtaeKp7ZMc5i2aNrzotCiX6bj03nTm2eYz5g749FM1swts5BZmbOaZ1vOnj+7Y07YnJ1zKXNz5/5W7FK8oviveSnzmuabzJ8z/8lPYT/VlGiUSEtuLfBdsGkhvlC0sHWR26K1i76W8ksvlrmUlZd9XsxbfPHnUT9X/Ny/JGtJ61LPpRuXEZeJl91cHrB85wrtFUUrnqwcs7JuFWNV6aq/Vk9cfaHcvXzTGsoa+Zr2iqiKhrVWa5et/bxOuO5GZVDl3vXG6xetf7+Bv+HqxsCNtZtMNpVt+rRZtPn2lrAtdVU2VeVbiVsLtz7blrzt3C/MX6q3G20v2/5lh3hH+874naervaqrdxnvWlqD1shrunan776yJ3hPQ61T7Za9+nvL9oF98n0v9mfsv3kg8kDzQebB2l+tf11/iH6otA6pm1bXUy+sb29IbWhrjGhsbvJtOnTY+fCOI+ZHKo/qHV16jHJs/rH+40XHe09ITnSfzD75pHli871TY09dPx13uvVM5JnzZ0PPnjrHOnf8vN/5Ixd8LjReZF6sv+R5qa7Fo+XQbx6/HWr1bK277HW54Yr3laa20W3HrgZcPXkt+NrZ65zrl25E32i7mXTz9q30W+23+bc77+TdeX238G7fvTn3CfdLH2g9KH9o/LDqd/vf97Z7th99FPyo5XHC43tPeE9ePpU9/dwx/xntWflzs+fVna6dR7pCu668GPei46XkZV93yR/af6x/Zffq1z8D/2zpGdvT8Vr6uv/N4reGb3f85f5Xc29s78N3+e/63pd+MPyw8yPz47lPKZ+e9035TPpc8cX+S9PXyK/3+/P7+yVcKXfgUwCDA83KAuDNDgBoqQDQYd9GGafsBQcEUfavAwj8J6zsFwfEE4Ba+P0e1w2/bm4BsG8bbL8gvybsVWNpACR6A9TNbWioRJbl5qrkosI+hfCwv/8t7NlIKwH4sqy/v6+qv//LVhgs7B1PiJU9qEKIsGfYHPslMz8T/BtR9qff5fjjHSgicAc/3v8F+ZeQ5Mo/kxcAAABsZVhJZk1NACoAAAAIAAQBGgAFAAAAAQAAAD4BGwAFAAAAAQAAAEYBKAADAAAAAQACAACHaQAEAAAAAQAAAE4AAAAAAAAAkAAAAAEAAACQAAAAAQACoAIABAAAAAEAAAgaoAMABAAAAAEAAAEcAAAAAHWu1wUAAAAJcEhZcwAAFiUAABYlAUlSJPAAAEAASURBVHgB7N19mFXVmSD6U8C00n2nJ1bxJQaCEKIRgh/pxJvxgyC5+sz0NU4nEiKSjl7TibbXYFqJMagMRr0a7NjGSTCJMzYtV7qC2kPb6cdPDH5co4aIUUnU4EcZEEXKvt03rfRjWVffdTbF2VW76hQcqHOqfvnjvGetvfbaa/02T/au417vbup893+ld/+3ZMmS90LpC2d+M6IPAgQIECBAYOgJ3HT9FTHphQsXDr3JmzEBAgQIECBAgAABAgQIECBAgAABAgQIECBQIbB06dIoL168uKJ+WEVJgQABAgQIECBAgAABAgQIECBAgAABAgQIECBAgAABAgQIECDQi4AHDXrBsYkAAQIECBAgQIAAAQIECBAgQIAAAQIECBAgQIAAAQIECBCoFPCgQaWHEgECBAgQIECAAAECBAgQIECAAAECBAgQIECAAAECBAgQINCLgAcNesGxiQABAgQIECBAgAABAgQIECBAgAABAgQIECBAgAABAgQIEKgU8KBBpYcSAQIECBAgQIAAAQIECBAgQIAAAQIECBAgQIAAAQIECBAg0IvAiPy2m66/Il+lTIAAAQIECAwxgaVLlw6xGZsuAQIECBAgQIAAAQIECBAgQIAAAQIECBAgUK2AjAbVSmlHgAABAgQIECBAgAABAgQIECBAgAABAgQIECBAgAABAgQIlLplNFi4cCEWAgQIECBAYIgKZJkM3A8M0X8Apk2AAAECBHYScF+wE4avBAgQIEBgiAq4HxiiJ960CRAgQIDATgLZ/cBOVfFVRoO8iDIBAgQIECBAgAABAgQIECBAgAABAgQIECBAgAABAgQIECBQKOBBg0IaGwgQIECAAAECBAgQIECAAAECBAgQIECAAAECBAgQIECAAIG8gAcN8iLKBAgQIECAAAECBAgQIECAAAECBAgQIECAAAECBAgQIECAQKGABw0KaWwgQIAAAQIECBAgQIAAAQIECBAgQIAAAQIECBAgQIAAAQIE8gIeNMiLKBMgQIAAAQIECBAgQIAAAQIECBAgQIAAAQIECBAgQIAAAQKFAh40KKSxgQABAgQIECBAgAABAgQIECBAgAABAgQIECBAgAABAgQIEMgLeNAgL6JMgAABAgQIECBAgAABAgQIECBAgAABAgQIECBAgAABAgQIFAp40KCQxgYCBAgQIECAAAECBAgQIECAAAECBAgQIECAAAECBAgQIEAgL+BBg7yIMgECBAgQIECAAAECBAgQIECAAAECBAgQIECAAAECBAgQIFAoMKJwiw0ECBAgQIAAAQIE9qDA9mdWR+9nXLM+4knnLIo4Z1rPt6gvr70htl+4clPEUqk54pmXnR3x6FGeoS3DCAQIECBAoOEFftF6ZczhO/dtr5jLfsd8NsrXnTq9ol6BAAECBAgQeE/gN8Gw7M9vjvjQO50R99T1s+vv+rY4Tn//Pu/aP/0usO+kY6Ofb18wK2JzU4SqP/L97al5Vz0gDQkQIDDIBfwaO8hPsOkRIECAAAECBAgQIECAAAECBAgQIECAAAECBAgQIECAAIFaCvS8XKyWR9AXAQIECBAgQIAAgQqB9ijd9fdPVdSuvu7HUf7oslMiTm7Kli6kFRn/0Lq5ov3hc+ZEue9MBul4ty9dFu1bN75d0U+tCofP+Up0dd7scbXqUj8ECBAgQGDICRRlMsgg3njgl/H1+XnTInbdL2Qteo999d/73n1vtXKybyMtCBAgMBQEsuvNjW//7zHdokw8He2PxPaLF90Rsa1zasRLu/1dHNV9fvyi9ZZok2UyyHY49rCDs681jf886sPR39wp6e/76y/6VpRf2ZGx8J+jfPvS1oj7nZ7+bu777/hovuMj89w4/fyoK8qEuGOHGn3JZ1Z0na8RrG4IEBg0AjIaDJpTaSIECBAgQIAAAQIECBAgQIAAAQIECBAgQIAAAQIECBAgQGDPC8hosOeNHYEAAQIECBAYIgL5dwF2Tbs5vlb7rsLuKxq6enrvW3/fWZh/Ar+yt1LppB0rDXq+NSyeV76nVO6rv1IpeZy4cG7s8Nsd7458Lsp/t+bViFlmgPyKjGz+px+3e5kD+h5nmk/RZ7aiIv/u6KL26gkQIEBgaAj0dR2v/vrT8zuWuxT7t+Kxr+t5X5l5+ppX17jSt77662rfe+ahk845K5ru+48/iti6Md0vXHLWyijv6orP7PjVjzPbozL2dZ9V2VqJAAECBAa7QHa97fo78daY8l+OGxUx+zu31g7Z9ajruJVHWH3d5VGxurK6H6We7ztGt3wo+jhxYbpel7JMguWMhe+b+7vY3rrxtXSsi/424vhyxoYDUm3hZ7d53ZcyFe5/2dmxT38zI2Tn54xr1hces3JD9nvOxVH9iWHpvqW9M7VqzhIxVu6kRIAAgSEjIKPBkDnVJkqAAAECBAgQIECAAAECBAgQIECAAAECBAgQIECAAAECBHZfoOdla7vfrx4IECBAgAABAkNO4On1vyqYc3ri/ZEn0hP8R8/evZX4b72Y3n24YdvMOF7xE/zpuOsfTRkCCgZXWF3rFfvZSoQLV24qPOZ7Gx5f9YPYPn9Vz83eevH+2PDVs1LMMiRUmzEi63X3V3RkPYkECBAgQKBLYPOTT0ahrbzSrWtL+nb/+l/HlznTpuc39bOcVvav29AR+02e1vtPPMX3Kb0fttrrd++9dN9anCEhWzmYW6k4LbdSckdmg0uj8+ozRVSOpa/7jsrWSgQIECBAoHeBfQ46KRr8X6dsjXjhyjcjThy3Z9Z8Ziv0u/+d3XMGgt5H37W1+Drd1abyW5a5cFFUn1i5sdTy2pVR85370v3LFVf9NMrf+i893zBtf+Z/xvauefV8f9DX7xZvPJAySswvxyxT0twpm6P//U4/OeIbN/4wYuvGP4xY/PtCykyRRhNNfRAgQGBIC+yZq9uQJjV5AgQIECBAgAABAgQIECBAgAABAgQIECBAgAABAgQIECAweAV6f9x98M7bzAgQIECAAAECNRRI71B+ZO2/VfT5wQNHR/k3L6SVDL96LGU8aD8uZTTY9Xf5VZchoaM9rRR4+Pm3Yxz7TkpP3o956fUoF620zFYu3PLT7RXz2e+Yz0b5ulN7XoGZraT4+3S4in17Kuw76dio/vYFsyJW65GN7+JFd8R+RfPo6Zg71+3qysesj75WTmTtRAIECBAYKgI9ZxLK3w+88cAvA+T5edMiTm7avZf79p0hofI+pdr7gVIp7fcPrWnFX3YW+7p+Z9fpv+326uPkc3v27uaN+RuGvlZeVq6UPKA1WxmZ7leyTEV39vP+4vA5X4mp7eo7s/dUxofMWyRAgACB+hbI/g4+45puF76Kga++blmUV5cqr3cfqGjVn0K6rt719ynjYX7Pw+ccF1W7ep/x9tYtsf+u/r2dH88Rc78cVXPbWiP++z9O90Gl0v+Tbxrlfxl1SGo/5emIb/3nlNkon9HxiLnfiO0r5kYo5c9H4e8YWaakUvn+JO3ukwABAgT6KSCjQT/BNCdAgAABAgQIECBAgAABAgQIECBAgAABAgQIECBAgAABAkNZQEaDoXz2zZ0AAQIECBCoicD2Z9IT9g+9k71bMK1QmHfG5Oj/ry++M2Lbi2mlwYZtM6OcfxK/eDBpBd+nZv67aHLP2lcj9pUhIf+O6GkTU4aFfylnNCg6XtHKhUnjUkaEov2yd1HOKWpQZ/XZysfVdTYuwyFAgACBxhTIZxIqlcrX7zNmx4TGXpJW8D30Tso4tG5DR9RPnta/n2Y+NTOt8Ltn7YbYv68MCfn7lP0mpPuBCW3bYv+2zuz+JYo7Pjra0/aXc9tHlvcvykQ0vPnI6OPUtJCylGU4yGciymd6KJWSyyVnXbpjDP350tXf/bHbV89K913F71hOvT++6gfxZf6q/hxNWwIECBAgkASyv4NXXH9SjyT5THj7Tto/2r2vtHsZjbL7jMM+Pjb6a924qeL4/b2+5TMW/UFFb8WFrsw+vx+NLl12SsTumRSyzEQpM0HW4/ZnenYY1fKhaPKhhYuypgMS8/cx/3J075keB2SQDkqAAIEBFBg2gMd2aAIECBAgQIAAAQIECBAgQIAAAQIECBAgQIAAAQIECBAgQKDBBPr32HyDTc5wCRAgQIAAAQJ7Q+Dp9b+qOMx+x8yI8odGjY/4icn3RmzbmN7998gTr0X56NnjIlb7MenQj0TTifenjAbFGRLScdY/mtplKx0+cdgBsf9dD1SOt9rjZysiztnSaE/wZysn0kqIE6udsHYECBAgQKAfAvlMQvtOmh57H9JyUMTfn/l7ER+6b3vE+9f/OuKcaaldFKr4+IMZqf1R5et5XxkS8vcpxx6W7idefygdv4pDVjR544Fbo/yll7dG/PYFsyL2leHgimUp00FFZ70U8u9Yzq+0LDpeL13Gpvy7nPtqbzsBAgQIENgVgew69p3ydT/r44QTj4mv2XUs5TfKtvY/jv9Iuq5/afRRsfOv/ltK0fPQO/tFuSizTza+M65Z3/+Dxh7pd4d/HpMyLR017J6oveSs/1Zx3I9tuz3K1R7nrRezzEQpxs47feTvB353/w2x9cKVlRkdsl2y+5b5D9wXVUUeWftSKc3r+ou+FVXXl1LGykuXXRLl7pkauvb0jQABAkNRQEaDoXjWzZkAAQIECBAgQIAAAQIECBAgQIAAAQIECBAgQIAAAQIECOyigIwGuwhnNwIECBAgQIBA9q6+W36aViZmIscednD5a7rVyr8z8fFVa2L788cVvbsw66kyjhiT3lH4ick/jQ1FGRK2P/NAbG/d+HbEbEXltLHDo3xXfBZ/7HNQWmExd0p6t3HWT7ZH14qAtKIxv6IgW5mRtS+Kfa1UKNqv2vrdX6FR7ZHy7bIVD/07v/lelAkQIECgUQR+EwP9h9bNFQP+8Mc+HOXsuvgHh6Vy6b60cvCN8sq6B09IKwGPHlXtWpB0nTmyjwwJ3e9T0n4fPSTdn9xZMdruheHNKQPByZ9MKwDzKzK7X8fr8/qXOVy86I6YZFtn97numZqUUanvlZN75uh6JUCAAIGBEciuO0v+qjJTwH7HpMyAc6bV9j/JZNfrTzan+5Fdy1+4K1bpOjftw/8xdp72/TGpkz+/OeJf37A24pT/kr/w9u9+oa+/6yfM/FIcZ8XMdPh8+8z9ulNTRqjs/HzzrKL7AtfvJOmTAAEC1QlU+1dsdb1pRYAAAQIECBAgQIAAAQIECBAgQIAAAQIECBAgQIAAAQIECAxqgdo+PjeoqUyOAAECBAgQIFApkH8Xc6n87r6PHpIyB2Sts3cmTvzbTVHV1vlcxHUb0tsYJ1e9oqEl9stnSPjVY2nNQvtx42L7i+sr1zB0rah8Kbb3/ZGe4D9x4dxo+tvyioSH3smvREg9da1oTBkQilbu5VcaFI3jF61Xxqbv3Dcx4qXLdi0zwD4HnRT7r7g+ZWi4femyKLdu/MOIRePsOv72aHfSOYsi5leevLy28l2Qh8/5SrQ7b3Y6D1HwQYAAAQKDXmD7M0/HHLuuk+k6euSh5ZV9ZYF9DpoW344a9kS5fXoH8CNPvBblo/t5/ZjWLUPCL6Of5+el4/y7J5+McraCf79jZkS5v+8WPmLul2O/uW3ZdTRlTIrKio90f3PJWZdGbdH1s2KXvVDIVnpesezIOFqtr/N9rZzcC1N0CAIECBCoA4FspXxRBp2PDvtVjHLV0ykDYv7vyzqYQq9D2HfS/rH9faWmgnYfjPqzvn9JxfbsOllROYCF/H1BqZTux7p+LxjAwTk0AQIEGlBARoMGPGmGTIAAAQIECBAgQIAAAQIECBAgQIAAAQIECBAgQIAAAQIEBkpARoOBkndcAgQIECBAoIEF0hPv6x99NTeHypV8uY3divev/3XUzZmW3hXYrUFBRbcMCS+mTAIbto2PPZ5c+2/lPfMrKqvNaJAduHJFwpfbH4kNRSs0spUArXduiHZH596BmO3XcvLJsf1Dv/ifEVs3ppWRJ53zuSi/vmP8yfOKq34a9d++YFbE7F3XUXj3I1uZ+P0X0krFonZZ+2yc11/0rai6vmtDj99WX3d51K/ucatKAgQIEBjqAk/nMgn19zqTz0yUv84V+XbPkJCum+s2bI1d9s3dpxx7WFpBWSq9WNRlQX2W6WhRbD+xlN4BvayPjEd33v5AtJ99SLp+v/jjLGNRyhhUcLDC6q4MSvcXttl5Q/6dzDtv2/l7tdf5x1f9IHabv2rnvX0nQIAAgaEukK3YP+Oa9b1S3LM2/Z1cKse2cka8cw/vdbfd2Jh+t6j27978gV7bku4nsvqRE0bH16L7lK6Mf78f7bLMhAdkHeyI6X4ly4C0o7rfX6q7H3njgVuj5/nlWO39Qddw8hkPst8v0n1Ro2Wm6JqXbwQIEKiNgIwGtXHUCwECBAgQIECAAAECBAgQIECAAAECBAgQIECAAAECBAgQGBICMhoMidNskgQIECBAgEAtBTra0xP4Dz+fnmTf1b7feKDyXcrVvjN5ePPUOOQnJt8TsW1jesL+nv9+b5R/805nxP2OSSsIjx6Vni3tSM1i2658dH+XYc8rCN58Oa18aE/DKP0u947o1x5L74z+w2HlBjsGk+Z11vfnpZpspeSLaeXijWs+HPXnld9hnb0D85afppWRb3VmmR1mRrts3ju63/Elrcw887Kze2yXZUj4zn2p36J3THet2Ni0o2dfCBAgQGAoCaTr4CM7MvHs2tzf2pGZqK/rV77/lHnoyJm/FxseKl+37rw9Lbkf81K6T9l30rGxffYhtfoJqDLj0Vnd3m2cjvvWi6/Ecf+plK73R8z9RpRXzI3Q50d+hWg2j74zF/XZdUWDaq/zh5dXnmb3IVkn+XFm9SIBAgQIDHaB9Af2XX+f/g7tmm36e/ODB/5TVP3mhXci7sjg9710nX5oVYoP7H9E1641/db7373ZobK/q7MMhF89K585KP2d/rV507Jdeoxbt7xerk9/R//dmpQB8v98f7556i/LeNDX7yDF19nq7kfyGQy2bsvGmR9XVk7nNZ8JIrtfWDGtVvdT2fFEAgQINLaAjAaNff6MngABAgQIECBAgAABAgQIECBAgAABAgQIECBAgAABAgQI7FUBj1/tVW4HI0CAAAECBAaDwObcCv1Sqbon8rs/iZ8yI6zb0BEsk6t+Mj6tTDjs42Njv9aNaUX9b17YWsHb9S7miuo+C9k4z//5lGh73anT+9yn5wbbonp97h3RJ5x4XNTv+48be96tlFYm/B8LDo3t//rbIyOeNzut2Lx96bIo73f6VyKe/Mn7In7nvrTy4JEnXovy0eXMB1HwQYAAAQIEaiyw/Zmno8eHypmESqVdWznY1rl7169ph6WMP6X70ruh33oxrdRrK8/38I+l7UXvVC5iyVY4futHb0aTr379kxH7209R/6VcJoRnjzgjmuYzBnTfP91f3L70+ti0uuM/Rqx1poPux1VDgAABAgR2Fsj/Xf77sfHSZSdEfPrqdJ36TSllNMh+N8j/nXvMuJei/V07d93D9yyj3s9GnRZb51T9+0EPne1U1T1z4U4bd/qaHX/+ymyep8TWyU1vRNzUln7XyHaZOG5U9nWvxO3PPBDHad2YMitlB33z5bXx9ZtnpcyKsz73/0V5eevmrEkuVnc/l9tJkQABAkNWQEaDIXvqTZwAAQIECBAgQIAAAQIECBAgQIAAAQIECBAgQIAAAQIECPRfQEaD/pvZgwABAgQIEBiyAr+Jmf9D7sn3/Y6ZEfV9vVtwn4PSOw2PGvZEtM9WQN6//tdRnjOtf5kDJsz8ZOx3VOvNFf1lKyU+esjwqN/VjzceuDV2nV+O1fZzwonHRNP/8Ma6iA8/n60oSJkfsnE9/Y+997jPQSdFg/MOytol/9+WMze0XvS3seHCBQenBvcl11899qsotx83LuIfPJtf2dDzOxdTJ90/V193eVSu7r6poubx8js2Hzz07Kg/epRneiuAFAgQIDBoBNJ1JP9O5n0npev4IS29////8OZ0PfzE5HtCpK288i5//ao2c8A+B6Xr7twp6R3RXSv50oq8Iw8ds1vy//ZiWgn41bNSrLazw+ccF0273x8lvyxD0Y7xblwV7bPr6McKDtTRnjIaTPxYuv6/9bf3R8uvnvVKxKJ3PmcZGm75aXp3dNZ99df5H8Qu89Mws927xez+adVhaXy1WnHa7UAqCBAgQKAuBMaMS9fhS5d9KMaTrfBPeY+6DzH/d25He8po0L1lZc3WLSlj0eqV6e/T+4/5bDTY9QyElf33VcqOXyql6+jfrXk1djlvdsoQ8NsXOspdpPuP/ceW74fSZXun7lNmx0vOunSnut35mn4n+B/Xpt8DPjXzkOjsnrUbyp22RDzwwNRueevkKF+67JKI2fnqui8p75YLWUaHJQ9PiS0yKeWAFAkQGLIC5f+3H7LzN3ECBAgQIECAAAECBAgQIECAAAECBAgQIECAAAECBAgQIECgHwIyGvQDS1MCBAgQIEBgaAt0fxdz8phU9bsHPxg7HDnz9yI+dF9aCfDGA/dF+cET0pP3n6j6UdCe+6s2w0IafffPoswL3VtmNWllZn4FYUd7etL/mPJ8/7Ejy/yQVhT808RyxoXcOxSzXvMx75/Nc9qH942mRw37ZcR/mji6YtdsxciK61OGhIqNPRR+0Xpl1H6nfH5OOmdRlK1I7AFLFQECBIagQEd7WonXlbEnIYyckK4/fWciSCv9Dvv42NixdeOmiG+9eH/EezeklZFzUiKk1Hmvnz33V22GhaKuizIvFLUvldI4zrys58w+WUaBixfdEV20daaeDp/zlfhy3uyUiSjrf3u3FZBpy/DmtGL00E+muHzG+2ND1m+2QjJ//a72HdTZ8bOVixeuTOenaJxZe5EAAQIEhqbAPgelFHxpnfyeMEiZgDa1ZRkD0jG6/w6R/30g7dd6Z1rZf/Sp/cug2DWT/PHT3/9/cly6j9n+zCPRNMvY2O3+o9v1vOffD7qOV/lt+zMpt+AZ16yv3FAu/aL1lvi2bmK6f/rW4f9vlO8pJ2IaOSHN+0//aGTU//Ln74v479vLNyLp54moq+Yju1+7cc2Ho3n+/qWaPrQhQIDAYBKo+mfswTRpcyFAgAABAgQIECBAgAABAgQIECBAgAABAgQIECBAgAABAgR2TUBGg11zsxcBAgQIECAwBAX6uzK+iOiIud+ITSvmFrU4MjZcsSzFolZZfd/9pZbVr+RLKyHO+n56Z+FZ2YH6GYc3j4o9/tPnL0wxt/+h/9usqJn407Sysdp3JJdKaQXE1+ZlSz2bop9svNlhspUP8wtWPmTt+orVjyvrqfcVnVkrkQABAgQaU6D662nv85sw80vRYMXMonb9ux733V92nGr7TdezExemzD4nZrv3O6Z3Iv/wojtjz7bO/q1k7OtwXecj9bvjHcvX/Th2PfSytMb0ry/Ojt9Xjz1vf3zVD2LD/FU9by+qzWdWKGqnngABAgQI9CyQMgr89oUso0G6Ph956Jgemx8x98tRP7dtWcTWB26NOL8ce9ypH5UnnfO5aD25Kf0d/vKWrRV75zM8ba/Y2v/C0+t/VbBTSpWwqe0/xPbTvpRuqJq33d5j++z3nOtSAooe26TK5P3Kq++k4qi0Vnfrltcr9plYdWbLit0UCBAgMOgEZDQYdKfUhAgQIECAAAECBAgQIECAAAECBAgQIECAAAECBAgQIECAwJ4TGLHnutYzAQIECBAgQIAAgWKBrhWI1WVuKO6p5y3ZioUV15/UcwO1BAgQIECAwF4Q6CuDQlo5uCMTwca3exzTCSemdy83pwWUPbTpPQPDFcv+1x72UUWAAAECBAZWYHhzSwxgQjlDQFvnc1G+5KxLexzYvpOmR/0hLUVrSHu/HvbYaQ0rJ+3iSv+X194Qo7hw5aaC0aR57chc0JTmf+LCyhyM21Oig4I+eqpO/R728bGxsXVjOn5RZsP9jvlstJszzX9a60lTHQECQ0+g6Go09CTMmAABAgQIECBAgAABAgQIECBAgAABAgQIECBAgAABAgQIEOhTwGNXfRJpQIAAAQIECBAgQIAAAQIECBAgsGcEBnbl5Z6Zk14JECBAYOgK9Pe61lfmn/qWnDDzSzHAFTN7Hme1mQb76qfn3rvXVnu8/J61On6+X2UCBAgMdgEZDQb7GTY/AgQIECBAgAABAgQIECBAgAABAgQIECBAgAABAgQIECBQQwEPGtQQU1cECBAgQIAAAQIECBAgQIAAAQIECBAgQIAAAQIECBAgQGCwC3jQYLCfYfMjQIAAAQIECBAgQIAAAQIECBAgQIAAAQIECBAgQIAAAQI1FPCgQQ0xdUWAAAECBAgQIECAAAECBAgQIECAAAECBAgQIECAAAECBAa7gAcNBvsZNj8CBAgQIECAAAECBAgQIECAAAECBAgQIECAAAECBAgQIFBDAQ8a1BBTVwQIECBAgAABAgQIECBAgAABAgQIECBAgAABAgQIECBAYLALeNBgsJ9h8yNAgAABAgQIECBAgAABAgQIECBAgAABAgQIECBAgAABAjUU8KBBDTF1RYAAAQIECBAgQIAAAQIECBAgQIAAAQIECBAgQIAAAQIEBruABw0G+xk2PwIECBAgQIAAAQIECBAgQIAAAQIECBAgQIAAAQIECBAgUEOBps53//def0uWLKlht7oiQIAAAQIECBAgQIAAAQIECBAgQIAAAQIECBAgQIAAAQIEBoPA4sWLK6Yho0EFhwIBAgQIECBAgAABAgQIECBAgAABAgQIECBAgAABAgQIECDQm8CI/MaFCxfmq5QJECBAgACBISKwdOnSmGn+ycQhMn3TJECAAAECBHYSyDIfui/YCcVXAgQIECAwxATcDwyxE266BAgQIECgB4HsfiC/SUaDvIgyAQIECBAgQIAAAQIECBAgQIAAAQIECBAgQIAAAQIECBAgUCjgQYNCGhsIECBAgAABAgQIECBAgAABAgQIECBAgAABAgQIECBAgACBvIAHDfIiygQIECBAgAABAgQIECBAgAABAgQIECBAgAABAgQIECBAgEChgAcNCmlsIECAAAECBAgQIECAAAECBAgQIECAAAECBAgQIECAAAECBPICHjTIiygTIECAAAECBAgQIECAAAECBAgQIECAAAECBAgQIECAAAEChQIeNCiksYEAAQIECBAgQIAAAQIECBAgQIAAAQIECBAgQIAAAQIECBDIC3jQIC+iTIAAAQIECBAgQIAAAQIECBAgQIAAAQIECBAgQIAAAQIECBQKeNCgkMYGAgQIECBAgAABAgQIECBAgAABAgQIECBAgAABAgQIECBAIC/gQYO8iDIBAgQIECBAgAABAgQIECBAgAABAgQIECBAgAABAgQIECBQKOBBg0IaGwgQIECAAAECBAgQIECAAAECBAgQIECAAAECBAgQIECAAIG8gAcN8iLKBAgQIECAAAECBAgQIECAAAECBAgQIECAAAECBAgQIECAQKHAiMItNvQo0NH+SNRfvOiOiG2dPTbbjcrm2PfMy86OePQoz4LsBqZdCRAgQIAAAQIECBAgQIAAAQIECBAgQIAAAQIECBAgQKDGAv4rdo1BdUeAAAECBAgQIECAAAECBAgQIECAAAECBAgQIECAAAECBAazgIwGNTq7J52zKHqaM61/pHs+Q0KNJqgbAgQIECBAoAeB16Putsuuibji2bdzbUZFecHV50WcOcYznjkgRQIECBAgMGgEHr1pcczlyrvf6nFOJ59/edTPm9G/3w167EwlAQIECBAgUJcC2zf8OMZ1ypXrehxf86xTov6G0w/rcbtKAgQIECDQSAJ+7W6ks2WsBAgQIECAAAECBAgQIECAAAECBAgQIECAAAECBAgQIEBggAU8Rj/AJ8DhCRAgQIAAgUYUqMxkcGvHzJjEj5YfH7GlKc1px8rG85dHxfjlp0Wc2lRukJr5JECAAAECBBpYYMf1/u5JMYurctf7tnu/F/XnXp0yIB0g01EDn21DJ0CAAAECPQvkMxnkMxl1bHswdvz6X6yMeMX4MRG/ecL4njtUS4AAAQIEGkBARoMGOEmGSIAAAQIECBAgQIAAAQIECBAgQIAAAQIECBAgQIAAAQIE6kVARoN6ORPGQYAAAQIECDSMwPYNa2KsK559X8QFV38qYpbJIJvIx78wL77OXHNjxFV3vRLRioVMSCRAgAABAo0rkK1MbL3nrZjEyed/IWI+c9HE2XOjfv7DKaPBTT/5ZZRnejdzOPggQIAAAQKNLZAyHv7ktidiGs2zTok4b0blf3oZ3nJ01C/409Tu3OV3Rvm540+LmL9/iEofBAgQIECgzgVkNKjzE2R4BAgQIECAAAECBAgQIECAAAECBAgQIECAAAECBAgQIECgngQqH6urp5EZCwECBAgQIECgTgWeWPd0jGzklKMiTh9d9OxmS2yfMGV4xFt/9lTEbcendzDmMyDERh8ECBAgQIBAQwhsWp9WJL7QeXCM98yPpOt998GPiqr3fyD9BNN+9+NRfu60QyNawdhdTA0BAgQIEGgUgY5tv46hPvTc2xGP+/T0Xoc+dv/R5e3rIj72ZEfEqbkMCL12YiMBAgQIEKgTgaJfxetkeIZBgAABAgQIECBAgAABAgQIECBAgAABAgQIECBAgAABAgQI1JOAjAb1dDaMhQABAgQIEKhzgfTuxd++lFYqjJw4JsZbnJmgcgXjm3dvivbtpc60X6mpzudreAQIECBAgECRwJbNr8WmLMNRcx/X9XHj031DqZTuJzZvTfcDU8e4HygyVk+AAAECBOpd4O1XN8cQX+hMf/9/elzvaztHjE0ZDg9sShkNXnwl3U+UZqT6ep+v8REgQIAAgZ0Fer/q7dzSdwIECBAgQIAAAQIECBAgQIAAAQIECBAgQIAAAQIECBAgQGDIC8hoUKN/Aquvuzx6Wl2j/nRDgAABAgQIDB6BrhWMg2dOZkKAAAECBAj0T6Drncwv9W9HrQkQIECAAIFBIzC8ZXTMZeKwlNHod4NmZiZCgAABAkNRQEaDoXjWzZkAAQIECBAgQIAAAQIECBAgQIAAAQIECBAgQIAAAQIECOyigIwGuwiX3+2kcxZF1Zxp/SPtaH8k9rt40R0R29IrGvPdKxMgQIAAAQIECBAgQIAAAQIECBAgQIAAAQIECBAgQIAAgboQkNGgLk6DQRAgQIAAAQIECBAgQIAAAQIECBAgQIAAAQIECBAgQIAAgcYQ6N/y+8aYk1ESIECAAAECBOpKYMvm18rjmVRX4zIYAgQIECBAYO8JvPrK1r13MEciQIAAAQIE6lKgY1u6H2h7J6U2bqnLURoUAQIECBCoTkBGg+qctCJAgAABAgQIECBAgAABAgQIECBAgAABAgQIECBAgAABAgTeFZDRwD8DAgQIECBAgEDVAqOi5fs/kG6h3nw+ZSrYlhYilFqaeu9o5JQDokFzqY+GvXdjKwECBAgQIFAHAuPGj4lRvHn3pojtpWxlYl/X+XQ/MX50X+3qYJKGQIAAAQIECPQqMGLs+Nh+YNO6iJu2vJPaj6lujeek/dP9RK8HsZEAAQIECNSpQHVXuzodvGERIECAAAECBAgQIECAAAECBAgQIECAAAECBAgQIECAAAECe1dARoO96+1oBAgQIECAwCAQ6FrB+ETM5qmtn4o4s9uKhWei/uE12yNO+/z0iH1lPohGPggQIECAAIG6Fhi7/+jy+NIKxsee7Ijy1Bn5n1pej/qfP7w5YvOsOaldk4wGAeGDAAECBAg0sMDwlnQ/MHFYuq6vWfdUzGbejMN6nNWm9el3hBc6D47tZ35keI/tVBIgQIAAgUYQkNGgEc6SMRIgQIAAAQIECBAgQIAAAQIECBAgQIAAAQIECBAgQIAAgToRyD9mXyfDMgwCBAgQIECAQP0KTJxdzmCw4sYY5A+X3RNx+iXHR8wyFjx6081RfnTScRG/e3x6d2MUfBAgQIAAAQINLbDPIen6Pv9DaWXiiqtvivl8bPlpEaeWMxa03dsa5RXPfjDiVYsOjeiDAAECBAgQGAwCB8Uk/mT+hIhrl6+MePNHU0bDeeVMRx3bHoz6a/+mLeLJ518eMbtfiIIPAgQIECDQYALDGmy8hkuAAAECBAgQIECAAAECBAgQIECAAAECBAgQIECAAAECBAgMoICMBgOI79AECBAgQIBAowqkFQsLbjw9JnDt6SmzwZ998d6KCY2cMjvK381lOqhopECAAAECBAg0qMCoGPdnLvpaGv9l10S84IvfyM0nvYP5qlymg1wjRQIECBAgQKCBBSbOPjtG/1el70U89+pFEW/JzSnLZJBlOshtViRAgAABAg0lIKNBQ50ugyVAgAABAgQIECBAgAABAgQIECBAgAABAgQIECBAgAABAgMrIKNBjfxXX5feqbS6Rv3phgABAgQIEGgEgSyzwZUx2AWNMGRjJECAAAECBGoskGU2SL8LfKbGveuOAAECBAgQaByBLLPBbSnBYeMM3EgJECBAgMAuCMhosAtodiFAgAABAgQIECBAgAABAgQIECBAgAABAgQIECBAgAABAkNVQEaDGp35k85J71yaM61/pB3tj8QILl50R8S2zhoNSDcECBAgQIAAAQIECBAgQIAAAQIECBAgQIAAAQIECBAgQGAPCMhosAdQdUmAAAECBAgQIECAAAECBAgQIECAAAECBAgQIECAAAECBAarQP+W3w9WhX7Ma3jzkdH6imUp9mPXHpvWur8eD6KSAAECBAgQIECAAAECBAgQIECAAAECBAgQIECAAAECBAjUSEBGgxpB6oYAAQIECBAgQIAAAQIECBAgQIAAAQIECBAgQIAAAQIECAwFAQ8aDIWzbI4ECBAgQIAAAQIECBAgQIAAAQIECBAgQIAAAQIECBAgQKBGAh40qBGkbggQIECAAAECBAgQIECAAAECBAgQIECAAAECBAgQIECAwFAQ8KDBUDjL5kiAAAECBAgQIECAAAECBAgQIECAAAECBAgQIECAAAECBGok4EGDGkHqhgABAgQIECBAgAABAgQIECBAgAABAgQIECBAgAABAgQIDAUBDxoMhbNsjgQIECBAgAABAgQIECBAgAABAgQIECBAgAABAgQIECBAoEYCHjSoEaRuCBAgQIAAAQIECBAgQIAAAQIECBAgQIAAAQIECBAgQIDAUBDwoMFQOMvmSIAAAQIECBAgQIAAAQIECBAgQIAAAQIECBAgQIAAAQIEaiTgQYMaQeqGAAECBAgQIECAAAECBAgQIECAAAECBAgQIECAAAECBAgMBYGmznf/995ElyxZMhTma44ECBAgQIAAAQIECBAgQIAAAQIECBAgQIAAAQIECBAgQIBAPwQWL15c0VpGgwoOBQIECBAgQIAAAQIECBAgQIAAAQIECBAgQIAAAQIECBAgQKA3gRH5jQsXLsxXKRMgQIAAAQJDRGDp0qUx0/yTiUNk+qZJgAABAgQI7CSQZT50X7ATiq8ECBAgQGCICbgfGGIn3HQJECBAgEAPAtn9QH6TjAZ5EWUCBAgQIECAAAECBAgQIECAAAECBAgQIECAAAECBAgQIECgUMCDBoU0NhAgQIAAAQIECBAgQIAAAQIECBAgQIAAAQIECBAgQIAAAQJ5AQ8a5EWUCRAgQIAAAQIECBAgQIAAAQIECBAgQIAAAQIECBAgQIAAgUIBDxoU0thAgAABAgQIECBAgAABAgQIECBAgAABAgQIECBAgAABAgQI5AU8aJAXUSZAgAABAgQIECBAgAABAgQIECBAgAABAgQIECBAgAABAgQKBTxoUEhjAwECBAgQIECAAAECBAgQIECAAAECBAgQIECAAAECBAgQIJAX8KBBXkSZAAECBAgQIECAAAECBAgQIECAAAECBAgQIECAAAECBAgQKBTwoEEhjQ0ECBAgQIAAAQIECBAgQIAAAQIECBAgQIAAAQIECBAgQIBAXsCDBnkRZQIECBAgQIAAAQIECBAgQIAAAQIECBAgQIAAAQIECBAgQKBQwIMGhTQ2ECBAgAABAgQIECBAgAABAgQIECBAgAABAgQIECBAgAABAnkBDxrkRZQJECBAgAABAgQIECBAgAABAgQIECBAgAABAgQIECBAgACBQoERhVts6FHg5bU3RP2FKzf1uL12lVOjq0uXnRJxclNT7brWEwECBAgQIECAAAECBAgQIECAAAECBAgQIECAAAECBAgQ2EUBGQ12Ec5uBAgQIECAAAECBAgQIECAAAECBAgQIECAAAECBAgQIEBgKArIaLCbZ32/Yz4bPVx36vRcT+1Rvn3psoitG9+OeNI5iyLOmVZJ39H+SNRfvOiOiG2dEXwQIECAAAECdS3weozutsuuibji2XS97xryqPi64OrzIs4c4xnPLhvfCBAgQIDA4BJ49KbFMaEr736rx4mdfP7lUT9vRuXvAT02VkmAAAECBAg0pMD2DT+OcZ9y5boex988K2UwvuH0w3rcrpIAAQIECDSSgF+7G+lsGSsBAgQIECBAgAABAgQIECBAgAABAgQIECBAgAABAgQIEBhgAY/RD/AJcHgCBAgQIECgEQUqMxnc2jEzJvGj5cdHbGlKc9qxsvH85VExfvlpEac2lRukZj4JECBAgACBBhbYcb2/e1LM4qrc9b7t3u9F/blXpwxIB8h01MBn29AJECBAgEDPAvlMBvlMRh3bHowdv/4XKyNeMX5MxG+eML7nDtUSIECAAIEGEJDRoAFOkiESIECAAAECBAgQIECAAAECBAgQIECAAAECBAgQIECAAIF6EZDRoEZn4uW1N0RPF67c1GuPq69L72RcvaPV1Ph2yWWTd9T4QoAAAQIECNS3wPYNa2KAK559X8QFV38qYpbJIBv9x78wL77OXHNjxFV3vRLRioVMSCRAgAABAo0rkK1MbL3nrZjEyed/IWI+c9HE2XOjfv7DKaPBTT/5ZZRnejdzOPggQIAAAQKNLZAyHv7ktidiGs2zTok4b0blf3oZ3nJ01C/409Tu3OV3Rvm540+LmL9/iEofBAgQIECgzgVkNKjzE2R4BAgQIECAAAECBAgQIECAAAECBAgQIECAAAECBAgQIECgngQqH6urp5E12FgmzPxSjHhFekXzu9/bo3z70mURWze+HfGkcxZFnDOtkr6j/ZGo90GAAAECBAjUv8AT656OQY6cclTE6aOLnt1sie0TpgyPeOvPnoq47fj0DsZ8BoTY6IMAAQIECBBoCIFN69OKxBc6D47xnvmRdL3vPvhRUfX+D6TfAdrvfjzKz512aEQrGLuLqSFAgAABAo0i0LHt1zHUh55Lv/8f9+npvQ597P6jy9vXRXzsyY6IU3MZEHrtxEYCBAgQIFAnAkW/itfJ8AyDAAECBAgQIECAAAECBAgQIECAAAECBAgQIECAAAECBAgQqCeBymX19TQyYyFAgAABAgQI1J1Aevfib19KKxVGThwTIyzOTFC5gvHNuzdF+/ZSZ9qv1FR3MzQgAgQIECBAoDqBLZtfi4ZZhqPmPq7r48an+4ZSKd1PbN6a7gemjnE/UJ24VgQIECBAoP4E3n51cwzqhc709/+nx/W+tnPE2JTh8MCmlNHgxVfS/URpRqqvvxkaEQECBAgQKBbo/apXvJ8tBAgQIECAAAECBAgQIECAAAECBAgQIECAAAECBAgQIECAwBAUkNFgt0/6tujh9qWXR2zdmFY4FnW7+rrUbnWuwX/63HG5GkUCBAgQIEBgsAh0rWAcLDMyDwIECBAgQKC/Al3vZH6pv7tqT4AAAQIECAwSgeEto2MmE4eljEa/GyTzMg0CBAgQGJoCMhoMzfNu1gQIECBAgAABAgQIECBAgAABAgQIECBAgAABAgQIECBAYJcEZDTYJbadd2qJwokLF6W486Z+fO9ofyRaX7yqHztpSoAAAQIECBAgQIAAAQIECBAgQIAAAQIECBAgQIAAAQIE9rKAjAZ7GdzhCBAgQIAAAQIECBAgQIAAAQIECBAgQIAAAQIECBAgQIBAIwvIaFCjs7cjI8GiO6LHts7qOj58zlei4bmHV9deKwIECBAgQKDxBLZsfq086EmNN3gjJkCAAAECBGoi8OorW2vSj04IECBAgACBxhXo2JbuB9reSf8BIeVLbtz5GDkBAgQIDG0BGQ2G9vk3ewIECBAgQIAAAQIECBAgQIAAAQIECBAgQIAAAQIECBAg0C8BGQ36xVUqbd3yesUek8aNKpd/V1G/76Rjo/ztC2ZFbG5Km7c/szq+nHHN+lThkwABAgQIEGgggXTdf/8H0i3Um8+nTAXbypmMWsrX+6IJjZxyQGxqLvXRsKgD9QQIECBAgEDdCIwbPybG8ubdmyK2l7KViX1d59P9xPjRfbWrm6kaCAECBAgQIFAgMGLs+NhyYNO6iJu2vJNajqlujeek/dP9REH3qgkQIECAQF0LVHe1q+spGBwBAgQIECBAgAABAgQIECBAgAABAgQIECBAgAABAgQIECCwtwRkNKhauj1abmrrqHoPDQkQIECAAIHBKdC1gvGJmOBTWz8VcWa3FQvPRP3Da7ZHnPb56RH7ynwQjXwQIECAAAECdS0wdv/R5fGlFYyPPZl+L5g6I/9TS8qM+POHN0f75llzIk5tktGgrk+wwREgQIAAgSoEhrek+4GJw9J1fc26p2KveTMO63HvTevT7wgvdB4c28/8yPAe26kkQIAAAQKNICCjQSOcJWMkQIAAAQIECBAgQIAAAQIECBAgQIAAAQIECBAgQIAAAQJ1IpB/zL5OhlWPw0gZDX77QpbRoDkGeeSh2TuUXqoY9Fsv3h/lr56VYsVGBQIECBAgQKChBSbOLmcwWHFjzOOHy+6JOP2S4yNmGQsevenmKD866biI3z0+vbsxCj4IECBAgACBhhbY55B0fZ//obQyccXVN8V8Prb8tIhZxoK2e1ujvOLZD0a8atGhEX0QIECAAAECg0HgoJjEn8yfEHHt8pURb/5oymg4r5zpqGPbg1F/7d+0RTz5/MsjZvcLUfBBgAABAgQaTGBYg43XcAkQIECAAAECBAgQIECAAAECBAgQIECAAAECBAgQIECAAIEBFJDRoEr87c88HS0feqezvEdLxPHZksU3Kjvad9KxUfHtC2ZFbO7j1Ysd7ZUZEfadtH/s975SHztWHlaJAAECBAgQ2CsCacXCghtPj6Nde3rKbPBnX7y34ugjp8yO8ndzmQ4qGikQIECAAAECDSowKsb9mYu+lsZ/2TURL/jiN3LzSe9gviqX6SDXSJEAAQIECBBoYIGJs8+O0f9V6XsRz716UcRbcnPKMhlkmQ5ymxUJECBAgEBDCcho0FCny2AJECBAgAABAgQIECBAgAABAgQIECBAgAABAgQIECBAgMDACsho0Kd/e7S46++fqmi53zEzojy5qZxxoPnIKF+xLMWKxlUU3t66JVq1lRMm7DdhdJT7yoRQRdeaECBAgAABAntMIMtscGUcYcEeO46OCRAgQIAAgfoVyDIbpHctf6Z+B2pkBAgQIECAwB4WyDIb3JYSHO7ho+meAAECBAgMrICMBgPr7+gECBAgQIAAAQIECBAgQIAAAQIECBAgQIAAAQIECBAgQKChBGQ06PN0NUeLExemdyod0PrDKP/r7EP63LOnBh3tj0T1xYvuiJhlMOhqOzW+fm3etK4q3wgQIECAAAECBAgQIECAAAECBAgQIECAAAECBAgQIECAQJ0IyGhQJyfCMAgQIECAAAECBAgQIECAAAECBAgQIECAAAECBAgQIECAQCMIyGjQz7N0xNwv93OPyubDm4+MiiuWpVi5VYkAAQIECBAgQIAAAQIECBAgQIAAAQIECBAgQIAAAQIECNS3gIwG9X1+jI4AAQIECBAgQIAAAQIECBAgQIAAAQIECBAgQIAAAQIECNSVgAcN6up0GAwBAgQIECBAgAABAgQIECBAgAABAgQIECBAgAABAgQIEKhvAQ8a1Pf5MToCBAgQIECAAAECBAgQIECAAAECBAgQIECAAAECBAgQIFBXAh40qKvTYTAECBAgQIAAAQIECBAgQIAAAQIECBAgQIAAAQIECBAgQKC+BTxoUN/nx+gIECBAgAABAgQIECBAgAABAgQIECBAgAABAgQIECBAgEBdCXjQoK5Oh8EQIECAAAECBAgQIECAAAECBAgQIECAAAECBAgQIECAAIH6FvCgQX2fH6MjQIAAAQIECBAgQIAAAQIECBAgQIAAAQIECBAgQIAAAQJ1JeBBg7o6HQZDgAABAgQIECBAgAABAgQIECBAgAABAgQIECBAgAABAgTqW8CDBvV9foyOAAECBAgQIECAAAECBAgQIECAAAECBAgQIECAAAECBAjUlUBT57v/e29ES5YsqauBGQwBAgQIECBAgAABAgQIECBAgAABAgQIECBAgAABAgQIECAw8AKLFy+uGISMBhUcCgQIECBAgAABAgQIECBAgAABAgQIECBAgAABAgQIECBAgEBvAiPyGxcuXJivUiZAgAABAgSGiMDSpUtjpvknE4fI9E2TAAECBAgQ2Ekgy3zovmAnFF8JECBAgMAQE3A/MMROuOkSIECAAIEeBLL7gfwmGQ3yIsoECBAgQIAAAQIECBAgQIAAAQIECBAgQIAAAQIECBAgQIBAoYAHDQppbCBAgAABAgQIECBAgAABAgQIECBAgAABAgQIECBAgAABAgTyAh40yIsoEyBAgAABAgQIECBAgAABAgQIECBAgAABAgQIECBAgAABAoUCHjQopLGBAAECBAgQIECAAAECBAgQIECAAAECBAgQIECAAAECBAgQyAt40CAvokyAAAECBAgQIECAAAECBAgQIECAAAECBAgQIECAAAECBAgUCnjQoJDGBgIECBAgQIAAAQIECBAgQIAAAQIECBAgQIAAAQIECBAgQCAv4EGDvIgyAQIECBAgQIAAAQIECBAgQIAAAQIECBAgQIAAAQIECBAgUCjgQYNCGhsIECBAgAABAgQIECBAgAABAgQIECBAgAABAgQIECBAgACBvIAHDfIiygQIECBAgAABAgQIECBAgAABAgQIECBAgAABAgQIECBAgEChgAcNCmlsIECAAAECBAgQIECAAAECBAgQIECAAAECBAgQIECAAAECBPICHjTIiygTIECAAAECBAgQIECAAAECBAgQIECAAAECBAgQIECAAAEChQIjCrfY0KvA9mdWx/Yzrlnfa7v+b2yOXc687OyIR4/yLEj/De1BgAABAgQIECBAgAABAgQIECBAgAABAgQIECBAgAABAntKwH/F3lOy+iVAgAABAgQIECBAgAABAgQIECBAgAABAgQIECBAgAABAoNQQEaDmp3UqdHTpctOiTi5qamqnjvaH4l2Fy+6I2JbZ1W7aUSAAAECBAjUhcDrMYrbLrsm4opn386NalSUF1x9XsSZYzzjmQNSJECAAAECg0bg0ZsWx1yuvPutHud08vmXR/28GX6K6RFIJQECBAgQGAQC2zf8OGZxypXrepxN86z03w9uOP2wHrerJECAAAECjSTg1+5GOlvGSoAAAQIECBAgQIAAAQIECBAgQIAAAQIECBAgQIAAAQIEBljAY/QDfAIcngABAgQIEGhEgcpMBrd2zIxJ/Gj58RFbyomNdqxsPH951I9fflrEqVVmPorGPggQIECAAIG6Fthxvb97Uozzqtz1vu3e70X9uVenDEgHyHRU1+fT4AgQIECAwK4I5DMZ5DMZdWx7MLr9+l+sjHjF+DERv3nC+F05nH0IECBAgEBdCMhoUBenwSAIECBAgAABAgQIECBAgAABAgQIECA0McVaAAAds0lEQVRAgAABAgQIECBAgEBjCMho0BjnySgJECBAgACBOhLYvmFNjGbFs++LuODqT0XMMhlkQ/34F+bF15lrboy46q5XIlqxkAmJBAgQIECgcQWylYmt97wVkzj5/C9EzGcumjh7btTPfzhlNLjpJ7+M8kzvZg4HHwQIECBAoLEFUsbDn9z2REyjedYpEefNqPxPL8Nbjo76BX+a2p27/M4oP3f8aRHz9w9R6YMAAQIECNS5gIwGdX6CDI8AAQIECBAgQIAAAQIECBAgQIAAAQIECBAgQIAAAQIECNSTQOVjdfU0soYby3Mx4kvOurThRm7ABAgQIECAQP8Enlj3dOwwcspREaePLnp2syW2T5gyPOKtP3sq4rbj0zsY8xkQYqMPAgQIECBAoCEENq1PKxJf6Dw4xnvmR9L1vvvgR0XV+z+QfoJpv/vxKD932qERrWDsLqaGAAECBAg0ikDHtl/HUB967u2Ix316eq9DH7v/6PL2dREfe7Ij4tRcBoReO7GRAAECBAjUiUDRr+J1MjzDIECAAAECBAgQIECAAAECBAgQIECAAAECBAgQIECAAAECBOpJQEaDmp2NqdHTpcvSO5gmNzVV1XNH+yPR7uJFd0Rs66xqN40IECBAgACBARFI71787UtppcLIiWNiFMWZCSpXML5596Zo315KF/yWUnX3CwMyVQclQIAAAQIEehXYsvm12J5lOGru47o+bny6byiV0v3E5q3pfmDqGPcDvULbSIAAAQIE6ljg7Vc3x+he6Ex//396XO9rO0eMTRkOD2xKGQ1efCXdT5RmpPo6nqqhESBAgACBbgK9X/W6NVdBgAABAgQIECBAgAABAgQIECBAgAABAgQIECBAgAABAgQIDGUBGQ2G8tk3dwIECBAgQGCvCHStYNwrh3MQAgQIECBAoA4Fut7J/FIdjs6QCBAgQIAAgb0hMLxldBxm4rCU0eh3e+OgjkGAAAECBPaQgIwGewhWtwQIECBAgAABAgQIECBAgAABAgQIECBAgAABAgQIECBAYDAKeNBgMJ5VcyJAgAABAgQIECBAgAABAgQIECBAgAABAgQIECBAgAABAntIwIMGewhWtwQIECBAgAABAgQIECBAgAABAgQIECBAgAABAgQIECBAYDAKjBiMkxqYOT0Xh73krEsH5vCOSoAAAQIECNStwJbNr5XHNqlux2hgBAgQIECAwJ4VePWVrXv2AHonQIAAAQIE6l6gY1u6H2h7pzPG2lL3IzZAAgQIECBQLCCjQbGNLQQIECBAgAABAgQIECBAgAABAgQIECBAgAABAgQIECBAgEBOQEaDHEi1xde2VK5E2HfSsbHrty+YFbG5qbqeOtofiYYXL7ojYlt6kLG6nbUiQIAAAQIE9rLAqDje+z+QbqHefD5lKthWvn639HH9HznlgNi/udRHw708K4cjQIAAAQIE+i8wbvyY2OnNuzdFbC9lKxP7us6n+4nxo/tq1/8x2YMAAQIECBDYuwIjxo6PAx7YtC7ipi3vpAGMqW6N56T90/3E3h21oxEgQIAAgdoIVHe1q82x9EKAAAECBAgQIECAAAECBAgQIECAAAECBAgQIECAAAECBAg0uICMBrt4Ardueb1iz5ETRke52kwGFTsrECBAgAABAg0l0LWC8YkY91NbPxVxZrcVC89E/cNrtkec9vnpEfvKfBCNfBAgQIAAAQJ1LTB2//Q7QKmUVjA+9mRHjHfqjPxPLen3g58/vDm2N8+ak9o1yWhQ1yfY4AgQIECAQBUCw1vS/cDEYem6vmbdU7HXvBmH9bj3pvXpd4QXOg+O7Wd+ZHiP7VQSIECAAIFGEJDRoBHOkjESIECAAAECBAgQIECAAAECBAgQIECAAAECBAgQIECAAIE6Ecg/Zl8nw6rfYXS0PxKDu+WnaWViNtJJ49I7FrOySIAAAQIECAxegYmzyxkMVtwYk/zhsnsiTr/k+IhZxoJHb7o5yo9OOi7id49P726Mgg8CBAgQIECgoQX2OSRd3+d/KK1MXHH1TTGfjy0/LeLUcsaCtntbo7zi2Q9GvGrRoRF9ECBAgAABAoNB4KCYxJ/MnxBx7fKVEW/+aMpoOK+c6ahj24NRf+3ftEU8+fzLI2b3C1HwQYAAAQIEGkxgWION13AJECBAgAABAgQIECBAgAABAgQIECBAgAABAgQIECBAgACBARSQ0aCf+E/cfV/s0daZ7dgcX448dExWIRIgQIAAAQKDXiCtWFhw4+kx02tPT5kN/uyL91bMfOSU2VH+bi7TQUUjBQIECBAgQKBBBVJmw89c9LU0/suuiXjBF7+Rm096B/NVuUwHuUaKBAgQIECAQAMLTJx9doz+r0rfi3ju1Ysi3pKbU5bJIMt0kNusSIAAAQIEGkpARoOGOl0GS4AAAQIECBAgQIAAAQIECBAgQIAAAQIECBAgQIAAAQIEBlZARoMq/bc/szpafue+7RV77HfMrCgfPWrXntnY/OSTsX9XhoSWKI/PXu5ccTQFAgQIECBAoL4EsswGV8awFtTX4IyGAAECBAgQ2CsCWWaD9K7lz+yVYzoIAQIECBAgUI8CWWaD21KCw3ocojERIECAAIGaCezafx2v2eF1RIAAAQIECBAgQIAAAQIECBAgQIAAAQIECBAgQIAAAQIECDSSgIwGVZ6tfQ46KVquuH5axGV//ljEE+alcnE37bHp9qXLIrZufLu46btbTjrnc7F9clNTr+1sJECAAAECBAgQIECAAAECBAgQIECAAAECBAgQIECAAAECAyEgo8FAqDsmAQIECBAgQIAAAQIECBAgQIAAAQIECBAgQIAAAQIECBBoUAEZDfp94j4Ye5z1/RT73r05mpy4cFGKfe+gBQECBAgQIECAAAECBAgQIECAAAECBAgQIECAAAECBAgQqFsBGQ3q9tQYGAECBAgQIECAAAECBAgQIECAAAECBAgQIECAAAECBAgQqD8BDxrU3zkxIgIECBAgQIAAAQIECBAgQIAAAQIECBAgQIAAAQIECBAgULcCHjSo21NjYAQIECBAgAABAgQIECBAgAABAgQIECBAgAABAgQIECBAoP4EPGhQf+fEiAgQIECAAAECBAgQIECAAAECBAgQIECAAAECBAgQIECAQN0KeNCgbk+NgREgQIAAAQIECBAgQIAAAQIECBAgQIAAAQIECBAgQIAAgfoT8KBB/Z0TIyJAgAABAgQIECBAgAABAgQIECBAgAABAgQIECBAgAABAnUr4EGDuj01BkaAAAECBAgQIECAAAECBAgQIECAAAECBAgQIECAAAECBOpPwIMG9XdOjIgAAQIECBAgQIAAAQIECBAgQIAAAQIECBAgQIAAAQIECNStgAcN6vbUGBgBAgQIECBAgAABAgQIECBAgAABAgQIECBAgAABAgQIEKg/gabOd//33rCWLFlSf6MzIgIECBAgQIAAAQIECBAgQIAAAQIECBAgQIAAAQIECBAgQGBABRYvXlxxfBkNKjgUCBAgQIAAAQIECBAgQIAAAQIECBAgQIAAAQIECBAgQIAAgd4ERuQ3Lly4MF+lTIAAAQIECAwRgaVLl8ZM808mDpHpmyYBAgQIECCwk0CW+dB9wU4ovhIgQIAAgSEm4H5giJ1w0yVAgAABAj0IZPcD+U0yGuRFlAkQIECAAAECBAgQIECAAAECBAgQIECAAAECBAgQIECAAIFCAQ8aFNLYQIAAAQIECBAgQIAAAQIECBAgQIAAAQIECBAgQIAAAQIECOQFPGiQF1EmQIAAAQIECBAgQIAAAQIECBAgQIAAAQIECBAgQIAAAQIECgU8aFBIYwMBAgQIECBAgAABAgQIECBAgAABAgQIECBAgAABAgQIECCQF/CgQV5EmQABAgQIECBAgAABAgQIECBAgAABAgQIECBAgAABAgQIECgU8KBBIY0NBAgQIECAAAECBAgQIECAAAECBAgQIECAAAECBAgQIECAQF7AgwZ5EWUCBAgQIECAAAECBAgQIECAAAECBAgQIECAAAECBAgQIECgUMCDBoU0NhAgQIAAAQIECBAgQIAAAQIECBAgQIAAAQIECBAgQIAAAQJ5AQ8a5EWUCRAgQIAAAQIECBAgQIAAAQIECBAgQIAAAQIECBAgQIAAgUKBEYVbbOiXwC9ar4z237lvYsRLl50ScXJTU66f9ijfvnRZxNaNb0fcd9KxEb99wayIzfndotYHAQIECBAgQIAAAQIECBAgQIAAAQIECBAgQIAAAQIECBAYWAEZDQbW39EJECBAgAABAgQIECBAgAABAgQIECBAgAABAgQIECBAgEBDCchosJunq6P9kejhlp9uL/f0XMRrbn464nWnTi/Xp7D9mQfiS5bJoFRqjvJpX5oZUSaD5OSTAAECBAgQIECAAAECBAgQIECAAAECBAgQIECAAAECBOpTQEaD+jwvRkWAAAECBAgQIECAAAECBAgQIECAAAECBAgQIECAAAECBOpSQEaD3Twtw5uPjB4Wn7sl4hnXrI/4xgP3RXzwhEMiHj3q+Yj/49onImYfh8+ZU97umY/MRCRAgAABAo0r8HoM/bbLron41qeXRJw3o7pbru0bfhztT7lyXcT8R/OsU6LqhtMPy2+qKHdsezDKX/+L2yO+0FmxuTRyyuyo+O4lx0dsaarcni89etPiqLry7rfym6J88vmXR+xrnrWaX6lU6bzi2bdz4xoV5QVXnxdx5hj3WTkgRQIECBDYCwLZ9fOeMV+Jo33zhPFVHbV21/HaXi9rdR2v3fwSZ+a8u/cpVZ0cjQgQIECAQB8Ctbpe9nEYmwkQIECAQF0I+NW1Lk6DQRAgQIAAAQIECBAgQIAAAQIECBAgQIAAAQIECBAgQIAAgcYQqG55XWPMZS+Nsj2Oc/vSZRFbN+ZX0GXDSO2uv+hbUXF9Vp2Lj6/6QdTMX5U27Dvp2Pjy7QtmRWzuY4Vh2ssnAQIECBAgMJACRSvpTq5yUPkVD/kMAV0r/1ZGj1eMHxMxvzKyq13KZNAyb0G0+8sdKyififK1p98Y8YK/Tv0UZUjomtekaH/V8tMiTm1KNyht934vyudenTI4HFCQQaBW88tnMri1Y2Yc/0fLKzMz7Bj3+ctj+/jcuKPSBwECBAgQqLHAjuvi8raKnv/o1IpiYaF21/HKTAa7e72s1XW8dvNLhDuu93dPiopdvU8pPCE2ECBAgACBfgjU6nrZj0NqSoAAAQIEBlxARoMBPwUGQIAAAQIECBAgQIAAAQIECBAgQIAAAQIECBAgQIAAAQIEGkdARoManavD56R3Lp43e1y/enx57Q3R/sKVm/q1n8YECBAgQIDAQApUZgYY/bXLYjCr/vPPIn79L1JGgb5HmFYc/uS2J6Jp86xTIs6bUXmLNrzl6Khf8Kep3bnL74zyc8efFjHLMLDuH++O8pbJsyN+8/j8u6APivozFx4R8ZQrU/u1fzwjyjPHpGdQsxWHrfe8FfUnn/+FiNlxovDux8TZc+Pr/IdTRoObfvLLKM88/bByk9rOb/uGNdHvimffF3HB1Z+K2JLLAPXxL8yL+plrUuaGVXe9EuV8Boio9EGAAAECBHZZoDJzwK8/dnb0dNvf/EvELIPQ76rsv1bX8dpdL2t7Ha/V/Gp3n1LlidGMAAECBAj0KlDb62Wvh7KRAAECBAjUmYCMBnV2QgyHAAECBAgQIECAAAECBAgQIECAAAECBAgQIECAAAECBAjUs0Dlcrl6HqmxESBAgAABAgTqRiBlBlhw45UVI+rYVlHss9Cx7dfR5qHn3o543Ken97rP2P1Hl7evi/jYkx0Rp87YGPHhNdsjTvt86ie/0j82vvsxYmzKdHBgU+rnoce3xKaZJ6T6TetT5oQXOg+O+jM/MjzbNRdHRfn9H0i3lO13Px7l5047NOLk9lrNL/X/xLqno9+RU46KOH100TOzLbF9wpQ07lt/9lSUt5UzPBS5RCMfBAgQIECgaoF0HfzMRZfn9kiZj3KVvRRT+1pdx2t1vXxfza7j9Xmfks/U1MsJsokAAQIECBQK1O7vev+pphDZBgIECBCoW4GiX2frdsAGRoAAAQIECBAgQIAAAQIECBAgQIAAAQIECBAgQIAAAQIECAycgMfkBs7ekQkQIECAAIEhLvD2q5tD4IXOtCLy0+N6fwY0n4ngxVdei/07Dtgase2dzogf3X9MxKKP4S0pM8LEYU3R5MnNqZ9SKWU02FIuZ5kDmkupXVF/48Znx0vvpty8NY1j4uu1mV9pxu/FoX/7Usr8MHJiOl5xZoLKTAtv3r0p9m8vpXG19DGfonmqJ0CAAAECe0KgY1utruO1vV7+L4P8PmXqmN7vb/bEudYnAQIECAw+gVr9XV+akf4eH3xCZkSAAAECg1mg91+zB/PMzY0AAQIECBAgQIAAAQIECBAgQIAAAQIECBAgQIAAAQIECBDot4CMBv0m63mHx1f9IDbMX9XzdrUECBAgQIAAgd0VyGci+N0ud9gSe06YMjzik7vcT9px7P4pQ0Kp9NJu9VS7+aVhdGVa2K1h2ZkAAQIECNSZQG2v47W6XtbuOl7b+dXqPqXO/hEYDgECBAg0qEDtrpcNCmDYBAgQIDCoBGQ0GFSn02QIECBAgAABAgQIECBAgAABAgQIECBAgAABAgQIECBAgMCeFZDRoN++zbHHiQsXpVi4/29iy7I/vznihqM+E/G6U6cX7mEDAQIECBAgQIAAAQIECBAgQIAAAQIECBAgQIAAAQIECBCodwEZDer9DBkfAQIECBAgQIAAAQIECBAgQIAAAQIECBAgQIAAAQIECBCoIwEZDfp5Ml5ee0PsceHKNyN+6atHRLzrunsitnVOTdsX/H7Eh97pjFh64NaIfzluVMTzZo9L9Ts+KzMg/Otnv1zQbscOvhAgQIAAAQJDTKBj29aYcVv5/iK9wXhXELbFTi9v7Eg7H7ArfXTt8+oraVxdNbv2rXbzS8ffsvm18kAm7dqA7EWAAAECBOpSoLbX8VpdL2t3Ha/t/Gp1n1KX/xQMigABAgQaTqB218uGm7oBEyBAgMAgFJDRYBCeVFMiQIAAAQIECBAgQIAAAQIECBAgQIAAAQIECBAgQIAAAQJ7SkBGg6pl26Pl+kdfLe/xdsSH12/qsYeRB58U9f/9a00Rz7hmfcTHV62K+OChZ0c8elR61uPltT+NcpYBYd/HfhXl9uNS5oPm1E3U+SBAgAABAgQGh8CIseNjIgc2rYu4acs7aWJjqnsWdNL+Y6L98JZ/iThxWLphePGV8kr+Gan/1Gnx5+TxqZ+sxbhy+c27031OeyllaGop9XVDkjI3jR+d2o0YXpv5lUrplvX9H0jxzefT/LaVE0e19DGskVNSyobmPsefCYgECBAgQGDvCQxvGR0H2/3reLoO1+p6OdjvU/beGXYkAgQIEBjMArW6Xg5mI3MjQIAAgcErUN2v2IN3/mZGgAABAgQIECBAgAABAgQIECBAgAABAgQIECBAgAABAgQI9ENARoMqsTran4uWDz+fMhmUSlOj/NnjJ0b86wdSBoJ8d/sclDIb/MWslAnhX2d/KZp8YthjEf/rVW9G/OrXPxnxqNabIz704lMRN2ybGTHLfBAFHwQIECBAgMCgEMivYFyzLl3/5804rMf5bVr/RNS/0HlwxDM/MrzcriXihCmpfOvPUj/bjk8ZBfIr/rdvSP2s7Uj7LTg8ZVAqd1Yau39aWVkqpUwLjz3ZEZumzsjfOr4e9T9/eHPE5llzUrumcoqB3ArNXZ9fdFvqyrSQxv/U1k/FhpndMkA8E/UPr9kecdrnp0fMO0SlDwIECBAgMOACtb2O1+x6WbPreG3nV7P7lAE/7wZAgAABAoNBoHZ/1w8GDXMgQIAAgaEmIKPBUDvj5kuAAAECBAgQIECAAAECBAgQIECAAAECBAgQIECAAAECBHZDIL8sbTe6Gty7bn7yyZhgW/ldwPsdMyPKU4b9rqqJHzH3yxXttj+zJcq/eWF9xMU3fzbi6TN/L+JD97VHfOSJ9A7io2dXrjSMjT4IECBAgACBBhc4KMb/J/MnRFy7fGXEmz+aVuDPK2cQ6Nj2YNRf+zdtEU8+//KIU7PMAaVRUf7jzxwaccWV90b8wV2pn2+ekDIblEpppf/1S38R2//o1K9GzGcE2OeQ46J+/odS5oAVV98U5Y8tPy1idty2e1ujvOLZD0a8alE6fhTio1bzSz1OnF3OYLDixqj44bJ7Ik6/5PiIWcaCR2+6OcqPTkrz+G45s0NU+iBAgAABAnUnUNvreO2ul7W6jtd2frW7T6m7fwgGRIAAAQINKVCr62VDTt6gCRAgQGCICwwb4vM3fQIECBAgQIAAAQIECBAgQIAAAQIECBAgQIAAAQIECBAgQKAfAjIaVIm17/S0IvCoYZtjj1GHpXcjD29+McoTyisKs4wHfXX79PpfVTQ5ttzftBEbU/19bREnjvMsSAWUAgECBAgQGIQCE2efHbP6q9L3Ip579aKIt+TmmmUyyDId5DaX9jnkc1G18htpyylXXhtfPvN/V7b8o1MXREVXpoPK7aVyhoTPXPS1tOGyayJe8MVyxzuap/uhq5afFjVZpoMdm8tfajW/UimtFFlw4+nR87Wnp8wGf/bFlMEhO+7IKbPj63dzmQ6y7SIBAgQIEKhHgdpdx2t7vazVdbx280sZEmp1n1KP/xaMiQABAgQaT6BW18vGm7kREyBAgMBQFvBfsYfy2Td3AgQIECBAgAABAgQIECBAgAABAgQIECBAgAABAgQIECDQT4Gmznf/994+S5YsiV0XLlzYzy40f0/g5bU3BMSFKzf1C2S/Yz4b7a87NWVM6NfOGhMgQIAAgRoLLF26NHpcvHhxjXvWHQECBAgQINBoAtnvBO4LGu3MGS8BAgQIEKidgPuB2lnqiQABAgQINKpA0f2AjAaNekaNmwABAgQIECBAgAABAgQIECBAgAABAgQIECBAgAABAgQIDIDAiAE45qA85ISZX4p5rZg5KKdnUgQIECBAgAABAgQIECBAgAABAgQIECBAgAABAgQIECBAIARkNPAPgQABAgQIECBAgAABAgQIECBAgAABAgQIECBAgAABAgQIEKhawIMGVVNpSIAAAQIECBAgQIAAAQIECBAgQIAAAQIECBAgQIAAAQIECHjQwL8BAgQIECBAgAABAgQIECBAgAABAgQIECBAgAABAgQIECBAoGoBDxpUTaUhAQIECBAgQIAAAQIECBAgQIAAAQIECBAgQIAAAQIECBAg4EED/wYIECBAgAABAgQIECBAgAABAgQIECBAgAABAgQIECBAgACBqgU8aFA1lYYECBAgQIAAAQIECBAgQIAAAQIECBAgQIAAAQIECBAgQICABw38GyBAgAABAgQIECBAgAABAgQIECBAgAABAgQIECBAgAABAgSqFvCgQdVUGhIgQIAAAQIECBAgQIAAAQIECBAgQIAAAQIECBAgQIAAAQIeNPBvgAABAgQIECBAgAABAgQIECBAgAABAgQIECBAgAABAgQIEKhawIMGVVNpSIAAAQIECBAgQIAAAQIECBAgQIAAAQIECBAgQIAAAQIECHjQwL8BAgQIECBAgAABAgQIECBAgAABAgQIECBAgAABAgQIECBAoGqBps53//de6yVLllS9k4YECBAgQIAAAQIECBAgQIAAAQIECBAgQIAAAQIECBAgQIDA0BBYvHhxxURlNKjgUCBAgAABAgQIECBAgAABAgQIECBAgAABAgQIECBAgAABAgR6E9iR0aC3RrYRIECAAAECBAgQIECAAAECBAgQIECAAAECBAgQIECAAAECBN4TkNHAvwMCBAgQIECAAAECBAgQIECAAAECBAgQIECAAAECBAgQIEDg/2/XDmkAAAAYhvl3PQsTUH7UHG4LCA02lSEBAgQIECBAgAABAgQIECBAgAABAgQIECBAgAABAgQIECAgNPABAgQIECBAgAABAgQIECBAgAABAgQIECBAgAABAgQIECBAYAsIDTaVIQECBAgQIECAAAECBAgQIECAAAECBAgQIECAAAECBAgQICA08AECBAgQIECAAAECBAgQIECAAAECBAgQIECAAAECBAgQIEBgCwR3FPNUo7EycwAAAABJRU5ErkJggg==;" vertex="1" parent="1">
          <mxGeometry x="31" y="635" width="958" height="131.18" as="geometry" />
        </mxCell>
        <mxCell id="1ga72cSjbWooDJT9AYzO-96" value="" style="endArrow=none;dashed=1;html=1;rounded=0;exitX=0.038;exitY=0.977;exitDx=0;exitDy=0;exitPerimeter=0;" edge="1" parent="1" source="1ga72cSjbWooDJT9AYzO-83">
          <mxGeometry width="50" height="50" relative="1" as="geometry">
            <mxPoint x="18" y="915" as="sourcePoint" />
            <mxPoint x="18" y="625" as="targetPoint" />
          </mxGeometry>
        </mxCell>
        <mxCell id="1ga72cSjbWooDJT9AYzO-112" value="" style="rounded=0;whiteSpace=wrap;html=1;" vertex="1" parent="1">
          <mxGeometry x="-21" y="819" width="1021" height="220" as="geometry" />
        </mxCell>
        <mxCell id="1ga72cSjbWooDJT9AYzO-113" value="&lt;u&gt;详情&lt;/u&gt;" style="rounded=0;whiteSpace=wrap;html=1;fillColor=#f5f5f5;fontColor=#333333;strokeColor=#666666;" vertex="1" parent="1">
          <mxGeometry x="-21" y="819" width="1020" height="40" as="geometry" />
        </mxCell>
        <mxCell id="1ga72cSjbWooDJT9AYzO-114" value="ams礼包" style="rounded=0;whiteSpace=wrap;html=1;fillColor=#f5f5f5;fontColor=#333333;strokeColor=#666666;" vertex="1" parent="1">
          <mxGeometry x="19" y="819" width="100" height="40" as="geometry" />
        </mxCell>
        <mxCell id="1ga72cSjbWooDJT9AYzO-115" value="名字" style="rounded=0;whiteSpace=wrap;html=1;fillColor=#f5f5f5;fontColor=#333333;strokeColor=#666666;" vertex="1" parent="1">
          <mxGeometry x="119" y="819" width="110" height="40" as="geometry" />
        </mxCell>
        <mxCell id="1ga72cSjbWooDJT9AYzO-116" value="领" style="rounded=0;whiteSpace=wrap;html=1;fillColor=#f5f5f5;strokeColor=#666666;fontColor=#333333;" vertex="1" parent="1">
          <mxGeometry x="960" y="819" width="40" height="40" as="geometry" />
        </mxCell>
        <mxCell id="1ga72cSjbWooDJT9AYzO-117" value="权重" style="rounded=0;whiteSpace=wrap;html=1;fillColor=#f5f5f5;fontColor=#333333;strokeColor=#666666;" vertex="1" parent="1">
          <mxGeometry x="920" y="819" width="40" height="40" as="geometry" />
        </mxCell>
        <mxCell id="1ga72cSjbWooDJT9AYzO-118" value="8307904e-773f-4456-9a52-b3a59d65..." style="rounded=0;whiteSpace=wrap;html=1;fillColor=#f5f5f5;fontColor=#333333;strokeColor=#666666;" vertex="1" parent="1">
          <mxGeometry x="229" y="819" width="250" height="40" as="geometry" />
        </mxCell>
        <mxCell id="1ga72cSjbWooDJT9AYzO-119" value="限" style="rounded=0;whiteSpace=wrap;html=1;fillColor=#d5e8d4;strokeColor=#82b366;" vertex="1" parent="1">
          <mxGeometry x="-21" y="819" width="40" height="40" as="geometry" />
        </mxCell>
        <mxCell id="1ga72cSjbWooDJT9AYzO-120" value="开始时间" style="rounded=0;whiteSpace=wrap;html=1;fillColor=#f5f5f5;fontColor=#333333;strokeColor=#666666;" vertex="1" parent="1">
          <mxGeometry x="479" y="819" width="100" height="40" as="geometry" />
        </mxCell>
        <mxCell id="1ga72cSjbWooDJT9AYzO-121" value="结束时间" style="rounded=0;whiteSpace=wrap;html=1;fillColor=#f5f5f5;fontColor=#333333;strokeColor=#666666;" vertex="1" parent="1">
          <mxGeometry x="579" y="819" width="100" height="40" as="geometry" />
        </mxCell>
        <mxCell id="1ga72cSjbWooDJT9AYzO-122" value="状态" style="rounded=0;whiteSpace=wrap;html=1;fillColor=#f5f5f5;fontColor=#333333;strokeColor=#666666;" vertex="1" parent="1">
          <mxGeometry x="679" y="819" width="80" height="40" as="geometry" />
        </mxCell>
        <mxCell id="1ga72cSjbWooDJT9AYzO-123" value="&lt;u&gt;详情&lt;/u&gt;" style="rounded=0;whiteSpace=wrap;html=1;fillColor=#f5f5f5;fontColor=#333333;strokeColor=#666666;" vertex="1" parent="1">
          <mxGeometry x="759" y="819" width="80" height="40" as="geometry" />
        </mxCell>
        <mxCell id="1ga72cSjbWooDJT9AYzO-124" value="" style="shape=image;verticalLabelPosition=bottom;labelBackgroundColor=default;verticalAlign=top;aspect=fixed;imageAspect=0;image=data:image/png,iVBORw0KGgoAAAANSUhEUgAACBoAAAEcCAYAAABjp0UiAAAMbmlDQ1BJQ0MgUHJvZmlsZQAASImVVwdYU8kWnluSkJDQAghICb0JIjWAlBBaAOlFEJWQBBJKjAlBxY4uKrh2EcWKroootpVmx64sir0vFhSUdVEXGypvQgK67ivfO9839/45c+Y/5c7k3gOA5geuRJKHagGQLy6QxocFMcampjFInQAB2kAfeAFtLk8mYcXGRgEog/e/y7ub0BrKNScF1z/n/6vo8AUyHgBIOsSZfBkvH+ITAODreRJpAQBEhd5ySoFEgedArCuFAUK8SoGzlXinAmcq8ZEBm8R4NsRXAFCjcrnSbAA07kM9o5CXDXk0PkPsIuaLxABojoDYnyfk8iFWxD4iP3+SAldAbAftJRDDeAAz8zvO7L/xZw7xc7nZQ1iZ14CoBYtkkjzutP+zNP9b8vPkgz5s4KAKpeHxivxhDW/nTopUYCrE3eLM6BhFrSH+IOIr6w4AShHKw5OU9qgxT8aG9YPPHKAufG5wJMTGEIeK86KjVPrMLFEoB2K4W9CpogJOIsQGEC8UyEISVDabpZPiVb7Quiwpm6XSn+dKB/wqfD2U5yaxVPxvhAKOih/TKBImpkBMgdiqUJQcDbEGxM6y3IRIlc3oIiE7etBGKo9XxG8FcbxAHBak5McKs6Sh8Sr70nzZYL7YZqGIE63CBwqEieHK+mCnedyB+GEu2BWBmJU0yCOQjY0azIUvCA5R5o51CsRJCSqeD5KCoHjlWpwiyYtV2eMWgrwwhd4CYndZYYJqLZ5cADenkh/PkhTEJirjxItyuBGxynjwZSAKsEEwYAA5HJlgEsgBotbu+m74SzkTCrhACrKBADipNIMrUgZmxPCaAIrAHxAJgGxoXdDArAAUQv2XIa3y6gSyBmYLB1bkgmcQ54NIkAd/ywdWiYe8JYOnUCP6h3cuHDwYbx4civl/rx/UftOwoCZKpZEPemRoDloSQ4jBxHBiKNEeN8L9cV88Cl4D4XDFmbj3YB7f7AnPCG2Ex4QbhHbCnYmiYukPUY4B7ZA/VFWLzO9rgdtATg88CPeD7JAZ18eNgBPuDv2w8ADo2QNq2aq4FVVh/MD9twy+exoqO7ILGSUPIweS7X5cqeGg4THEoqj19/VRxpo5VG/20MyP/tnfVZ8P75E/WmILsYPYOewkdgE7gtUDBnYca8BasKMKPLS7ng7srkFv8QPx5EIe0T/8cVU+FZWUudS4dLl8Vs4VCKYWKA4ee5JkmlSULSxgsODbQcDgiHnOIxiuLq7uACjeNcq/r7dxA+8QRL/lm27e7wD4He/v7z/8TRdxHID9XvD4N37T2TEB0FYH4HwjTy4tVOpwxYUA/yU04UkzBKbAEtjBfFyBJ/AFgSAERIAYkAhSwQRYZSHc51IwBcwAc0EJKAPLwGqwDmwCW8FOsAccAPXgCDgJzoJL4Aq4Ae7B3dMBXoIe8A70IQhCQmgIHTFEzBBrxBFxRZiIPxKCRCHxSCqSgWQjYkSOzEDmIWXICmQdsgWpRvYjjchJ5ALShtxBHiFdyBvkE4qhVFQXNUFt0JEoE2WhkWgiOh7NRiejReh8dAlagVahu9E69CR6Cb2BtqMv0V4MYOqYPmaOOWFMjI3FYGlYFibFZmGlWDlWhdViTfA5X8PasW7sI07E6TgDd4I7OBxPwnn4ZHwWvhhfh+/E6/DT+DX8Ed6DfyXQCMYER4IPgUMYS8gmTCGUEMoJ2wmHCGfgWeogvCMSifpEW6IXPIupxBzidOJi4gbiXuIJYhvxCbGXRCIZkhxJfqQYEpdUQCohrSXtJh0nXSV1kD6oqauZqbmqhaqlqYnVitXK1XapHVO7qvZcrY+sRbYm+5BjyHzyNPJS8jZyE/kyuYPcR9Gm2FL8KImUHMpcSgWllnKGcp/yVl1d3ULdWz1OXaQ+R71CfZ/6efVH6h+pOlQHKpuaTpVTl1B3UE9Q71Df0mg0G1ogLY1WQFtCq6adoj2kfdCgazhrcDT4GrM1KjXqNK5qvNIka1prsjQnaBZplmse1Lys2a1F1rLRYmtxtWZpVWo1at3S6tWma4/SjtHO116svUv7gnanDknHRidEh68zX2erzimdJ3SMbkln03n0efRt9DP0Dl2irq0uRzdHt0x3j26rbo+ejp67XrLeVL1KvaN67fqYvo0+Rz9Pf6n+Af2b+p+GmQxjDRMMWzSsdtjVYe8NhhsEGggMSg32Gtww+GTIMAwxzDVcblhv+MAIN3IwijOaYrTR6IxR93Dd4b7DecNLhx8YftcYNXYwjjeebrzVuMW418TUJMxEYrLW5JRJt6m+aaBpjukq02OmXWZ0M38zkdkqs+NmLxh6DBYjj1HBOM3oMTc2DzeXm28xbzXvs7C1SLIotthr8cCSYsm0zLJcZdls2WNlZjXGaoZVjdVda7I101povcb6nPV7G1ubFJsFNvU2nbYGthzbItsa2/t2NLsAu8l2VXbX7Yn2TPtc+w32VxxQBw8HoUOlw2VH1NHTUeS4wbFtBGGE9wjxiKoRt5yoTiynQqcap0fO+s5RzsXO9c6vRlqNTBu5fOS5kV9dPFzyXLa53BulMypiVPGoplFvXB1cea6VrtfdaG6hbrPdGtxeuzu6C9w3ut/2oHuM8Vjg0ezxxdPLU+pZ69nlZeWV4bXe6xZTlxnLXMw8703wDvKe7X3E+6OPp0+BzwGfP32dfHN9d/l2jrYdLRi9bfQTPws/rt8Wv3Z/hn+G/2b/9gDzAG5AVcDjQMtAfuD2wOcse1YOazfrVZBLkDToUNB7tg97JvtEMBYcFlwa3BqiE5IUsi7kYahFaHZoTWhPmEfY9LAT4YTwyPDl4bc4Jhwep5rTE+EVMTPidCQ1MiFyXeTjKIcoaVTTGHRMxJiVY+5HW0eLo+tjQAwnZmXMg1jb2Mmxh+OIcbFxlXHP4kfFz4g/l0BPmJiwK+FdYlDi0sR7SXZJ8qTmZM3k9OTq5PcpwSkrUtrHjhw7c+ylVKNUUWpDGiktOW17Wu+4kHGrx3Wke6SXpN8cbzt+6vgLE4wm5E04OlFzInfiwQxCRkrGrozP3BhuFbc3k5O5PrOHx+at4b3kB/JX8bsEfoIVgudZflkrsjqz/bJXZncJA4Tlwm4RW7RO9DonPGdTzvvcmNwduf15KXl789XyM/IbxTriXPHpSaaTpk5qkzhKSiTtk30mr57cI42UbpchsvGyhgJd+FHfIreT/yR/VOhfWFn4YUrylINTtaeKp7ZMc5i2aNrzotCiX6bj03nTm2eYz5g749FM1swts5BZmbOaZ1vOnj+7Y07YnJ1zKXNz5/5W7FK8oviveSnzmuabzJ8z/8lPYT/VlGiUSEtuLfBdsGkhvlC0sHWR26K1i76W8ksvlrmUlZd9XsxbfPHnUT9X/Ny/JGtJ61LPpRuXEZeJl91cHrB85wrtFUUrnqwcs7JuFWNV6aq/Vk9cfaHcvXzTGsoa+Zr2iqiKhrVWa5et/bxOuO5GZVDl3vXG6xetf7+Bv+HqxsCNtZtMNpVt+rRZtPn2lrAtdVU2VeVbiVsLtz7blrzt3C/MX6q3G20v2/5lh3hH+874naervaqrdxnvWlqD1shrunan776yJ3hPQ61T7Za9+nvL9oF98n0v9mfsv3kg8kDzQebB2l+tf11/iH6otA6pm1bXUy+sb29IbWhrjGhsbvJtOnTY+fCOI+ZHKo/qHV16jHJs/rH+40XHe09ITnSfzD75pHli871TY09dPx13uvVM5JnzZ0PPnjrHOnf8vN/5Ixd8LjReZF6sv+R5qa7Fo+XQbx6/HWr1bK277HW54Yr3laa20W3HrgZcPXkt+NrZ65zrl25E32i7mXTz9q30W+23+bc77+TdeX238G7fvTn3CfdLH2g9KH9o/LDqd/vf97Z7th99FPyo5XHC43tPeE9ePpU9/dwx/xntWflzs+fVna6dR7pCu668GPei46XkZV93yR/af6x/Zffq1z8D/2zpGdvT8Vr6uv/N4reGb3f85f5Xc29s78N3+e/63pd+MPyw8yPz47lPKZ+e9035TPpc8cX+S9PXyK/3+/P7+yVcKXfgUwCDA83KAuDNDgBoqQDQYd9GGafsBQcEUfavAwj8J6zsFwfEE4Ba+P0e1w2/bm4BsG8bbL8gvybsVWNpACR6A9TNbWioRJbl5qrkosI+hfCwv/8t7NlIKwH4sqy/v6+qv//LVhgs7B1PiJU9qEKIsGfYHPslMz8T/BtR9qff5fjjHSgicAc/3v8F+ZeQ5Mo/kxcAAABsZVhJZk1NACoAAAAIAAQBGgAFAAAAAQAAAD4BGwAFAAAAAQAAAEYBKAADAAAAAQACAACHaQAEAAAAAQAAAE4AAAAAAAAAkAAAAAEAAACQAAAAAQACoAIABAAAAAEAAAgaoAMABAAAAAEAAAEcAAAAAHWu1wUAAAAJcEhZcwAAFiUAABYlAUlSJPAAAEAASURBVHgB7N19mFXVmSD6U8C00n2nJ1bxJQaCEKIRgh/pxJvxgyC5+sz0NU4nEiKSjl7TibbXYFqJMagMRr0a7NjGSTCJMzYtV7qC2kPb6cdPDH5co4aIUUnU4EcZEEXKvt03rfRjWVffdTbF2VW76hQcqHOqfvnjvGetvfbaa/02T/au417vbup893+ld/+3ZMmS90LpC2d+M6IPAgQIECBAYOgJ3HT9FTHphQsXDr3JmzEBAgQIECBAgAABAgQIECBAgAABAgQIECBQIbB06dIoL168uKJ+WEVJgQABAgQIECBAgAABAgQIECBAgAABAgQIECBAgAABAgQIECDQi4AHDXrBsYkAAQIECBAgQIAAAQIECBAgQIAAAQIECBAgQIAAAQIECBCoFPCgQaWHEgECBAgQIECAAAECBAgQIECAAAECBAgQIECAAAECBAgQINCLgAcNesGxiQABAgQIECBAgAABAgQIECBAgAABAgQIECBAgAABAgQIEKgU8KBBpYcSAQIECBAgQIAAAQIECBAgQIAAAQIECBAgQIAAAQIECBAg0IvAiPy2m66/Il+lTIAAAQIECAwxgaVLlw6xGZsuAQIECBAgQIAAAQIECBAgQIAAAQIECBAgUK2AjAbVSmlHgAABAgQIECBAgAABAgQIECBAgAABAgQIECBAgAABAgQIlLplNFi4cCEWAgQIECBAYIgKZJkM3A8M0X8Apk2AAAECBHYScF+wE4avBAgQIEBgiAq4HxiiJ960CRAgQIDATgLZ/cBOVfFVRoO8iDIBAgQIECBAgAABAgQIECBAgAABAgQIECBAgAABAgQIECBQKOBBg0IaGwgQIECAAAECBAgQIECAAAECBAgQIECAAAECBAgQIECAAIG8gAcN8iLKBAgQIECAAAECBAgQIECAAAECBAgQIECAAAECBAgQIECAQKGABw0KaWwgQIAAAQIECBAgQIAAAQIECBAgQIAAAQIECBAgQIAAAQIE8gIeNMiLKBMgQIAAAQIECBAgQIAAAQIECBAgQIAAAQIECBAgQIAAAQKFAh40KKSxgQABAgQIECBAgAABAgQIECBAgAABAgQIECBAgAABAgQIEMgLeNAgL6JMgAABAgQIECBAgAABAgQIECBAgAABAgQIECBAgAABAgQIFAp40KCQxgYCBAgQIECAAAECBAgQIECAAAECBAgQIECAAAECBAgQIEAgL+BBg7yIMgECBAgQIECAAAECBAgQIECAAAECBAgQIECAAAECBAgQIFAoMKJwiw0ECBAgQIAAAQIE9qDA9mdWR+9nXLM+4knnLIo4Z1rPt6gvr70htl+4clPEUqk54pmXnR3x6FGeoS3DCAQIECBAoOEFftF6ZczhO/dtr5jLfsd8NsrXnTq9ol6BAAECBAgQeE/gN8Gw7M9vjvjQO50R99T1s+vv+rY4Tn//Pu/aP/0usO+kY6Ofb18wK2JzU4SqP/L97al5Vz0gDQkQIDDIBfwaO8hPsOkRIECAAAECBAgQIECAAAECBAgQIECAAAECBAgQIECAAIFaCvS8XKyWR9AXAQIECBAgQIAAgQqB9ijd9fdPVdSuvu7HUf7oslMiTm7Kli6kFRn/0Lq5ov3hc+ZEue9MBul4ty9dFu1bN75d0U+tCofP+Up0dd7scbXqUj8ECBAgQGDICRRlMsgg3njgl/H1+XnTInbdL2Qteo999d/73n1vtXKybyMtCBAgMBQEsuvNjW//7zHdokw8He2PxPaLF90Rsa1zasRLu/1dHNV9fvyi9ZZok2UyyHY49rCDs681jf886sPR39wp6e/76y/6VpRf2ZGx8J+jfPvS1oj7nZ7+bu777/hovuMj89w4/fyoK8qEuGOHGn3JZ1Z0na8RrG4IEBg0AjIaDJpTaSIECBAgQIAAAQIECBAgQIAAAQIECBAgQIAAAQIECBAgQGDPC8hosOeNHYEAAQIECBAYIgL5dwF2Tbs5vlb7rsLuKxq6enrvW3/fWZh/Ar+yt1LppB0rDXq+NSyeV76nVO6rv1IpeZy4cG7s8Nsd7458Lsp/t+bViFlmgPyKjGz+px+3e5kD+h5nmk/RZ7aiIv/u6KL26gkQIEBgaAj0dR2v/vrT8zuWuxT7t+Kxr+t5X5l5+ppX17jSt77662rfe+ahk845K5ru+48/iti6Md0vXHLWyijv6orP7PjVjzPbozL2dZ9V2VqJAAECBAa7QHa97fo78daY8l+OGxUx+zu31g7Z9ajruJVHWH3d5VGxurK6H6We7ztGt3wo+jhxYbpel7JMguWMhe+b+7vY3rrxtXSsi/424vhyxoYDUm3hZ7d53ZcyFe5/2dmxT38zI2Tn54xr1hces3JD9nvOxVH9iWHpvqW9M7VqzhIxVu6kRIAAgSEjIKPBkDnVJkqAAAECBAgQIECAAAECBAgQIECAAAECBAgQIECAAAECBHZfoOdla7vfrx4IECBAgAABAkNO4On1vyqYc3ri/ZEn0hP8R8/evZX4b72Y3n24YdvMOF7xE/zpuOsfTRkCCgZXWF3rFfvZSoQLV24qPOZ7Gx5f9YPYPn9Vz83eevH+2PDVs1LMMiRUmzEi63X3V3RkPYkECBAgQKBLYPOTT0ahrbzSrWtL+nb/+l/HlznTpuc39bOcVvav29AR+02e1vtPPMX3Kb0fttrrd++9dN9anCEhWzmYW6k4LbdSckdmg0uj8+ozRVSOpa/7jsrWSgQIECBAoHeBfQ46KRr8X6dsjXjhyjcjThy3Z9Z8Ziv0u/+d3XMGgt5H37W1+Drd1abyW5a5cFFUn1i5sdTy2pVR85370v3LFVf9NMrf+i893zBtf+Z/xvauefV8f9DX7xZvPJAySswvxyxT0twpm6P//U4/OeIbN/4wYuvGP4xY/PtCykyRRhNNfRAgQGBIC+yZq9uQJjV5AgQIECBAgAABAgQIECBAgAABAgQIECBAgAABAgQIECAweAV6f9x98M7bzAgQIECAAAECNRRI71B+ZO2/VfT5wQNHR/k3L6SVDL96LGU8aD8uZTTY9Xf5VZchoaM9rRR4+Pm3Yxz7TkpP3o956fUoF620zFYu3PLT7RXz2e+Yz0b5ulN7XoGZraT4+3S4in17Kuw76dio/vYFsyJW65GN7+JFd8R+RfPo6Zg71+3qysesj75WTmTtRAIECBAYKgI9ZxLK3w+88cAvA+T5edMiTm7avZf79p0hofI+pdr7gVIp7fcPrWnFX3YW+7p+Z9fpv+326uPkc3v27uaN+RuGvlZeVq6UPKA1WxmZ7leyTEV39vP+4vA5X4mp7eo7s/dUxofMWyRAgACB+hbI/g4+45puF76Kga++blmUV5cqr3cfqGjVn0K6rt719ynjYX7Pw+ccF1W7ep/x9tYtsf+u/r2dH88Rc78cVXPbWiP++z9O90Gl0v+Tbxrlfxl1SGo/5emIb/3nlNkon9HxiLnfiO0r5kYo5c9H4e8YWaakUvn+JO3ukwABAgT6KSCjQT/BNCdAgAABAgQIECBAgAABAgQIECBAgAABAgQIECBAgAABAkNZQEaDoXz2zZ0AAQIECBCoicD2Z9IT9g+9k71bMK1QmHfG5Oj/ry++M2Lbi2mlwYZtM6OcfxK/eDBpBd+nZv67aHLP2lcj9pUhIf+O6GkTU4aFfylnNCg6XtHKhUnjUkaEov2yd1HOKWpQZ/XZysfVdTYuwyFAgACBxhTIZxIqlcrX7zNmx4TGXpJW8D30Tso4tG5DR9RPnta/n2Y+NTOt8Ltn7YbYv68MCfn7lP0mpPuBCW3bYv+2zuz+JYo7Pjra0/aXc9tHlvcvykQ0vPnI6OPUtJCylGU4yGciymd6KJWSyyVnXbpjDP350tXf/bHbV89K913F71hOvT++6gfxZf6q/hxNWwIECBAgkASyv4NXXH9SjyT5THj7Tto/2r2vtHsZjbL7jMM+Pjb6a924qeL4/b2+5TMW/UFFb8WFrsw+vx+NLl12SsTumRSyzEQpM0HW4/ZnenYY1fKhaPKhhYuypgMS8/cx/3J075keB2SQDkqAAIEBFBg2gMd2aAIECBAgQIAAAQIECBAgQIAAAQIECBAgQIAAAQIECBAgQKDBBPr32HyDTc5wCRAgQIAAAQJ7Q+Dp9b+qOMx+x8yI8odGjY/4icn3RmzbmN7998gTr0X56NnjIlb7MenQj0TTifenjAbFGRLScdY/mtplKx0+cdgBsf9dD1SOt9rjZysiztnSaE/wZysn0kqIE6udsHYECBAgQKAfAvlMQvtOmh57H9JyUMTfn/l7ER+6b3vE+9f/OuKcaaldFKr4+IMZqf1R5et5XxkS8vcpxx6W7idefygdv4pDVjR544Fbo/yll7dG/PYFsyL2leHgimUp00FFZ70U8u9Yzq+0LDpeL13Gpvy7nPtqbzsBAgQIENgVgew69p3ydT/r44QTj4mv2XUs5TfKtvY/jv9Iuq5/afRRsfOv/ltK0fPQO/tFuSizTza+M65Z3/+Dxh7pd4d/HpMyLR017J6oveSs/1Zx3I9tuz3K1R7nrRezzEQpxs47feTvB353/w2x9cKVlRkdsl2y+5b5D9wXVUUeWftSKc3r+ou+FVXXl1LGykuXXRLl7pkauvb0jQABAkNRQEaDoXjWzZkAAQIECBAgQIAAAQIECBAgQIAAAQIECBAgQIAAAQIECOyigIwGuwhnNwIECBAgQIBA9q6+W36aViZmIscednD5a7rVyr8z8fFVa2L788cVvbsw66kyjhiT3lH4ick/jQ1FGRK2P/NAbG/d+HbEbEXltLHDo3xXfBZ/7HNQWmExd0p6t3HWT7ZH14qAtKIxv6IgW5mRtS+Kfa1UKNqv2vrdX6FR7ZHy7bIVD/07v/lelAkQIECgUQR+EwP9h9bNFQP+8Mc+HOXsuvgHh6Vy6b60cvCN8sq6B09IKwGPHlXtWpB0nTmyjwwJ3e9T0n4fPSTdn9xZMdruheHNKQPByZ9MKwDzKzK7X8fr8/qXOVy86I6YZFtn97numZqUUanvlZN75uh6JUCAAIGBEciuO0v+qjJTwH7HpMyAc6bV9j/JZNfrTzan+5Fdy1+4K1bpOjftw/8xdp72/TGpkz+/OeJf37A24pT/kr/w9u9+oa+/6yfM/FIcZ8XMdPh8+8z9ulNTRqjs/HzzrKL7AtfvJOmTAAEC1QlU+1dsdb1pRYAAAQIECBAgQIAAAQIECBAgQIAAAQIECBAgQIAAAQIECAxqgdo+PjeoqUyOAAECBAgQIFApkH8Xc6n87r6PHpIyB2Sts3cmTvzbTVHV1vlcxHUb0tsYJ1e9oqEl9stnSPjVY2nNQvtx42L7i+sr1zB0rah8Kbb3/ZGe4D9x4dxo+tvyioSH3smvREg9da1oTBkQilbu5VcaFI3jF61Xxqbv3Dcx4qXLdi0zwD4HnRT7r7g+ZWi4femyKLdu/MOIRePsOv72aHfSOYsi5leevLy28l2Qh8/5SrQ7b3Y6D1HwQYAAAQKDXmD7M0/HHLuuk+k6euSh5ZV9ZYF9DpoW344a9kS5fXoH8CNPvBblo/t5/ZjWLUPCL6Of5+el4/y7J5+McraCf79jZkS5v+8WPmLul2O/uW3ZdTRlTIrKio90f3PJWZdGbdH1s2KXvVDIVnpesezIOFqtr/N9rZzcC1N0CAIECBCoA4FspXxRBp2PDvtVjHLV0ykDYv7vyzqYQq9D2HfS/rH9faWmgnYfjPqzvn9JxfbsOllROYCF/H1BqZTux7p+LxjAwTk0AQIEGlBARoMGPGmGTIAAAQIECBAgQIAAAQIECBAgQIAAAQIECBAgQIAAAQIEBkpARoOBkndcAgQIECBAoIEF0hPv6x99NTeHypV8uY3divev/3XUzZmW3hXYrUFBRbcMCS+mTAIbto2PPZ5c+2/lPfMrKqvNaJAduHJFwpfbH4kNRSs0spUArXduiHZH596BmO3XcvLJsf1Dv/ifEVs3ppWRJ53zuSi/vmP8yfOKq34a9d++YFbE7F3XUXj3I1uZ+P0X0krFonZZ+2yc11/0rai6vmtDj99WX3d51K/ucatKAgQIEBjqAk/nMgn19zqTz0yUv84V+XbPkJCum+s2bI1d9s3dpxx7WFpBWSq9WNRlQX2W6WhRbD+xlN4BvayPjEd33v5AtJ99SLp+v/jjLGNRyhhUcLDC6q4MSvcXttl5Q/6dzDtv2/l7tdf5x1f9IHabv2rnvX0nQIAAgaEukK3YP+Oa9b1S3LM2/Z1cKse2cka8cw/vdbfd2Jh+t6j27978gV7bku4nsvqRE0bH16L7lK6Mf78f7bLMhAdkHeyI6X4ly4C0o7rfX6q7H3njgVuj5/nlWO39Qddw8hkPst8v0n1Ro2Wm6JqXbwQIEKiNgIwGtXHUCwECBAgQIECAAAECBAgQIECAAAECBAgQIECAAAECBAgQGBICMhoMidNskgQIECBAgEAtBTra0xP4Dz+fnmTf1b7feKDyXcrVvjN5ePPUOOQnJt8TsW1jesL+nv9+b5R/805nxP2OSSsIjx6Vni3tSM1i2658dH+XYc8rCN58Oa18aE/DKP0u947o1x5L74z+w2HlBjsGk+Z11vfnpZpspeSLaeXijWs+HPXnld9hnb0D85afppWRb3VmmR1mRrts3ju63/Elrcw887Kze2yXZUj4zn2p36J3THet2Ni0o2dfCBAgQGAoCaTr4CM7MvHs2tzf2pGZqK/rV77/lHnoyJm/FxseKl+37rw9Lbkf81K6T9l30rGxffYhtfoJqDLj0Vnd3m2cjvvWi6/Ecf+plK73R8z9RpRXzI3Q50d+hWg2j74zF/XZdUWDaq/zh5dXnmb3IVkn+XFm9SIBAgQIDHaB9Af2XX+f/g7tmm36e/ODB/5TVP3mhXci7sjg9710nX5oVYoP7H9E1641/db7373ZobK/q7MMhF89K585KP2d/rV507Jdeoxbt7xerk9/R//dmpQB8v98f7556i/LeNDX7yDF19nq7kfyGQy2bsvGmR9XVk7nNZ8JIrtfWDGtVvdT2fFEAgQINLaAjAaNff6MngABAgQIECBAgAABAgQIECBAgAABAgQIECBAgAABAgQI7FUBj1/tVW4HI0CAAAECBAaDwObcCv1Sqbon8rs/iZ8yI6zb0BEsk6t+Mj6tTDjs42Njv9aNaUX9b17YWsHb9S7miuo+C9k4z//5lGh73anT+9yn5wbbonp97h3RJ5x4XNTv+48be96tlFYm/B8LDo3t//rbIyOeNzut2Lx96bIo73f6VyKe/Mn7In7nvrTy4JEnXovy0eXMB1HwQYAAAQIEaiyw/Zmno8eHypmESqVdWznY1rl7169ph6WMP6X70ruh33oxrdRrK8/38I+l7UXvVC5iyVY4futHb0aTr379kxH7209R/6VcJoRnjzgjmuYzBnTfP91f3L70+ti0uuM/Rqx1poPux1VDgAABAgR2Fsj/Xf77sfHSZSdEfPrqdJ36TSllNMh+N8j/nXvMuJei/V07d93D9yyj3s9GnRZb51T9+0EPne1U1T1z4U4bd/qaHX/+ymyep8TWyU1vRNzUln7XyHaZOG5U9nWvxO3PPBDHad2YMitlB33z5bXx9ZtnpcyKsz73/0V5eevmrEkuVnc/l9tJkQABAkNWQEaDIXvqTZwAAQIECBAgQIAAAQIECBAgQIAAAQIECBAgQIAAAQIECPRfQEaD/pvZgwABAgQIEBiyAr+Jmf9D7sn3/Y6ZEfV9vVtwn4PSOw2PGvZEtM9WQN6//tdRnjOtf5kDJsz8ZOx3VOvNFf1lKyU+esjwqN/VjzceuDV2nV+O1fZzwonHRNP/8Ma6iA8/n60oSJkfsnE9/Y+997jPQSdFg/MOytol/9+WMze0XvS3seHCBQenBvcl11899qsotx83LuIfPJtf2dDzOxdTJ90/V193eVSu7r6poubx8js2Hzz07Kg/epRneiuAFAgQIDBoBNJ1JP9O5n0npev4IS29////8OZ0PfzE5HtCpK288i5//ao2c8A+B6Xr7twp6R3RXSv50oq8Iw8ds1vy//ZiWgn41bNSrLazw+ccF0273x8lvyxD0Y7xblwV7bPr6McKDtTRnjIaTPxYuv6/9bf3R8uvnvVKxKJ3PmcZGm75aXp3dNZ99df5H8Qu89Mws927xez+adVhaXy1WnHa7UAqCBAgQKAuBMaMS9fhS5d9KMaTrfBPeY+6DzH/d25He8po0L1lZc3WLSlj0eqV6e/T+4/5bDTY9QyElf33VcqOXyql6+jfrXk1djlvdsoQ8NsXOspdpPuP/ceW74fSZXun7lNmx0vOunSnut35mn4n+B/Xpt8DPjXzkOjsnrUbyp22RDzwwNRueevkKF+67JKI2fnqui8p75YLWUaHJQ9PiS0yKeWAFAkQGLIC5f+3H7LzN3ECBAgQIECAAAECBAgQIECAAAECBAgQIECAAAECBAgQIECgHwIyGvQDS1MCBAgQIEBgaAt0fxdz8phU9bsHPxg7HDnz9yI+dF9aCfDGA/dF+cET0pP3n6j6UdCe+6s2w0IafffPoswL3VtmNWllZn4FYUd7etL/mPJ8/7Ejy/yQVhT808RyxoXcOxSzXvMx75/Nc9qH942mRw37ZcR/mji6YtdsxciK61OGhIqNPRR+0Xpl1H6nfH5OOmdRlK1I7AFLFQECBIagQEd7WonXlbEnIYyckK4/fWciSCv9Dvv42NixdeOmiG+9eH/EezeklZFzUiKk1Hmvnz33V22GhaKuizIvFLUvldI4zrys58w+WUaBixfdEV20daaeDp/zlfhy3uyUiSjrf3u3FZBpy/DmtGL00E+muHzG+2ND1m+2QjJ//a72HdTZ8bOVixeuTOenaJxZe5EAAQIEhqbAPgelFHxpnfyeMEiZgDa1ZRkD0jG6/w6R/30g7dd6Z1rZf/Sp/cug2DWT/PHT3/9/cly6j9n+zCPRNMvY2O3+o9v1vOffD7qOV/lt+zMpt+AZ16yv3FAu/aL1lvi2bmK6f/rW4f9vlO8pJ2IaOSHN+0//aGTU//Ln74v479vLNyLp54moq+Yju1+7cc2Ho3n+/qWaPrQhQIDAYBKo+mfswTRpcyFAgAABAgQIECBAgAABAgQIECBAgAABAgQIECBAgAABAgR2TUBGg11zsxcBAgQIECAwBAX6uzK+iOiIud+ITSvmFrU4MjZcsSzFolZZfd/9pZbVr+RLKyHO+n56Z+FZ2YH6GYc3j4o9/tPnL0wxt/+h/9usqJn407Sysdp3JJdKaQXE1+ZlSz2bop9svNlhspUP8wtWPmTt+orVjyvrqfcVnVkrkQABAgQaU6D662nv85sw80vRYMXMonb9ux733V92nGr7TdezExemzD4nZrv3O6Z3Iv/wojtjz7bO/q1k7OtwXecj9bvjHcvX/Th2PfSytMb0ry/Ojt9Xjz1vf3zVD2LD/FU9by+qzWdWKGqnngABAgQI9CyQMgr89oUso0G6Ph956Jgemx8x98tRP7dtWcTWB26NOL8ce9ypH5UnnfO5aD25Kf0d/vKWrRV75zM8ba/Y2v/C0+t/VbBTSpWwqe0/xPbTvpRuqJq33d5j++z3nOtSAooe26TK5P3Kq++k4qi0Vnfrltcr9plYdWbLit0UCBAgMOgEZDQYdKfUhAgQIECAAAECBAgQIECAAAECBAgQIECAAAECBAgQIECAwJ4TGLHnutYzAQIECBAgQIAAgWKBrhWI1WVuKO6p5y3ZioUV15/UcwO1BAgQIECAwF4Q6CuDQlo5uCMTwca3exzTCSemdy83pwWUPbTpPQPDFcv+1x72UUWAAAECBAZWYHhzSwxgQjlDQFvnc1G+5KxLexzYvpOmR/0hLUVrSHu/HvbYaQ0rJ+3iSv+X194Qo7hw5aaC0aR57chc0JTmf+LCyhyM21Oig4I+eqpO/R728bGxsXVjOn5RZsP9jvlstJszzX9a60lTHQECQ0+g6Go09CTMmAABAgQIECBAgAABAgQIECBAgAABAgQIECBAgAABAgQIEOhTwGNXfRJpQIAAAQIECBAgQIAAAQIECBAgsGcEBnbl5Z6Zk14JECBAYOgK9Pe61lfmn/qWnDDzSzHAFTN7Hme1mQb76qfn3rvXVnu8/J61On6+X2UCBAgMdgEZDQb7GTY/AgQIECBAgAABAgQIECBAgAABAgQIECBAgAABAgQIECBQQwEPGtQQU1cECBAgQIAAAQIECBAgQIAAAQIECBAgQIAAAQIECBAgQGCwC3jQYLCfYfMjQIAAAQIECBAgQIAAAQIECBAgQIAAAQIECBAgQIAAAQI1FPCgQQ0xdUWAAAECBAgQIECAAAECBAgQIECAAAECBAgQIECAAAECBAa7gAcNBvsZNj8CBAgQIECAAAECBAgQIECAAAECBAgQIECAAAECBAgQIFBDAQ8a1BBTVwQIECBAgAABAgQIECBAgAABAgQIECBAgAABAgQIECBAYLALeNBgsJ9h8yNAgAABAgQIECBAgAABAgQIECBAgAABAgQIECBAgAABAjUU8KBBDTF1RYAAAQIECBAgQIAAAQIECBAgQIAAAQIECBAgQIAAAQIEBruABw0G+xk2PwIECBAgQIAAAQIECBAgQIAAAQIECBAgQIAAAQIECBAgUEOBps53//def0uWLKlht7oiQIAAAQIECBAgQIAAAQIECBAgQIAAAQIECBAgQIAAAQIEBoPA4sWLK6Yho0EFhwIBAgQIECBAgAABAgQIECBAgAABAgQIECBAgAABAgQIECDQm8CI/MaFCxfmq5QJECBAgACBISKwdOnSmGn+ycQhMn3TJECAAAECBHYSyDIfui/YCcVXAgQIECAwxATcDwyxE266BAgQIECgB4HsfiC/SUaDvIgyAQIECBAgQIAAAQIECBAgQIAAAQIECBAgQIAAAQIECBAgUCjgQYNCGhsIECBAgAABAgQIECBAgAABAgQIECBAgAABAgQIECBAgACBvIAHDfIiygQIECBAgAABAgQIECBAgAABAgQIECBAgAABAgQIECBAgEChgAcNCmlsIECAAAECBAgQIECAAAECBAgQIECAAAECBAgQIECAAAECBPICHjTIiygTIECAAAECBAgQIECAAAECBAgQIECAAAECBAgQIECAAAEChQIeNCiksYEAAQIECBAgQIAAAQIECBAgQIAAAQIECBAgQIAAAQIECBDIC3jQIC+iTIAAAQIECBAgQIAAAQIECBAgQIAAAQIECBAgQIAAAQIECBQKeNCgkMYGAgQIECBAgAABAgQIECBAgAABAgQIECBAgAABAgQIECBAIC/gQYO8iDIBAgQIECBAgAABAgQIECBAgAABAgQIECBAgAABAgQIECBQKOBBg0IaGwgQIECAAAECBAgQIECAAAECBAgQIECAAAECBAgQIECAAIG8gAcN8iLKBAgQIECAAAECBAgQIECAAAECBAgQIECAAAECBAgQIECAQKHAiMItNvQo0NH+SNRfvOiOiG2dPTbbjcrm2PfMy86OePQoz4LsBqZdCRAgQIAAAQIECBAgQIAAAQIECBAgQIAAAQIECBAgQKDGAv4rdo1BdUeAAAECBAgQIECAAAECBAgQIECAAAECBAgQIECAAAECBAazgIwGNTq7J52zKHqaM61/pHs+Q0KNJqgbAgQIECBAoAeB16Putsuuibji2bdzbUZFecHV50WcOcYznjkgRQIECBAgMGgEHr1pcczlyrvf6nFOJ59/edTPm9G/3w167EwlAQIECBAgUJcC2zf8OMZ1ypXrehxf86xTov6G0w/rcbtKAgQIECDQSAJ+7W6ks2WsBAgQIECAAAECBAgQIECAAAECBAgQIECAAAECBAgQIEBggAU8Rj/AJ8DhCRAgQIAAgUYUqMxkcGvHzJjEj5YfH7GlKc1px8rG85dHxfjlp0Wc2lRukJr5JECAAAECBBpYYMf1/u5JMYurctf7tnu/F/XnXp0yIB0g01EDn21DJ0CAAAECPQvkMxnkMxl1bHswdvz6X6yMeMX4MRG/ecL4njtUS4AAAQIEGkBARoMGOEmGSIAAAQIECBAgQIAAAQIECBAgQIAAAQIECBAgQIAAAQIE6kVARoN6ORPGQYAAAQIECDSMwPYNa2KsK559X8QFV38qYpbJIJvIx78wL77OXHNjxFV3vRLRioVMSCRAgAABAo0rkK1MbL3nrZjEyed/IWI+c9HE2XOjfv7DKaPBTT/5ZZRnejdzOPggQIAAAQKNLZAyHv7ktidiGs2zTok4b0blf3oZ3nJ01C/409Tu3OV3Rvm540+LmL9/iEofBAgQIECgzgVkNKjzE2R4BAgQIECAAAECBAgQIECAAAECBAgQIECAAAECBAgQIECgngQqH6urp5EZCwECBAgQIECgTgWeWPd0jGzklKMiTh9d9OxmS2yfMGV4xFt/9lTEbcendzDmMyDERh8ECBAgQIBAQwhsWp9WJL7QeXCM98yPpOt998GPiqr3fyD9BNN+9+NRfu60QyNawdhdTA0BAgQIEGgUgY5tv46hPvTc2xGP+/T0Xoc+dv/R5e3rIj72ZEfEqbkMCL12YiMBAgQIEKgTgaJfxetkeIZBgAABAgQIECBAgAABAgQIECBAgAABAgQIECBAgAABAgQI1JOAjAb1dDaMhQABAgQIEKhzgfTuxd++lFYqjJw4JsZbnJmgcgXjm3dvivbtpc60X6mpzudreAQIECBAgECRwJbNr8WmLMNRcx/X9XHj031DqZTuJzZvTfcDU8e4HygyVk+AAAECBOpd4O1XN8cQX+hMf/9/elzvaztHjE0ZDg9sShkNXnwl3U+UZqT6ep+v8REgQIAAgZ0Fer/q7dzSdwIECBAgQIAAAQIECBAgQIAAAQIECBAgQIAAAQIECBAgQGDIC8hoUKN/Aquvuzx6Wl2j/nRDgAABAgQIDB6BrhWMg2dOZkKAAAECBAj0T6Drncwv9W9HrQkQIECAAIFBIzC8ZXTMZeKwlNHod4NmZiZCgAABAkNRQEaDoXjWzZkAAQIECBAgQIAAAQIECBAgQIAAAQIECBAgQIAAAQIECOyigIwGuwiX3+2kcxZF1Zxp/SPtaH8k9rt40R0R29IrGvPdKxMgQIAAAQIECBAgQIAAAQIECBAgQIAAAQIECBAgQIAAgboQkNGgLk6DQRAgQIAAAQIECBAgQIAAAQIECBAgQIAAAQIECBAgQIAAgcYQ6N/y+8aYk1ESIECAAAECBOpKYMvm18rjmVRX4zIYAgQIECBAYO8JvPrK1r13MEciQIAAAQIE6lKgY1u6H2h7J6U2bqnLURoUAQIECBCoTkBGg+qctCJAgAABAgQIECBAgAABAgQIECBAgAABAgQIECBAgAABAgTeFZDRwD8DAgQIECBAgEDVAqOi5fs/kG6h3nw+ZSrYlhYilFqaeu9o5JQDokFzqY+GvXdjKwECBAgQIFAHAuPGj4lRvHn3pojtpWxlYl/X+XQ/MX50X+3qYJKGQIAAAQIECPQqMGLs+Nh+YNO6iJu2vJPaj6lujeek/dP9RK8HsZEAAQIECNSpQHVXuzodvGERIECAAAECBAgQIECAAAECBAgQIECAAAECBAgQIECAAAECe1dARoO96+1oBAgQIECAwCAQ6FrB+ETM5qmtn4o4s9uKhWei/uE12yNO+/z0iH1lPohGPggQIECAAIG6Fhi7/+jy+NIKxsee7Ijy1Bn5n1pej/qfP7w5YvOsOaldk4wGAeGDAAECBAg0sMDwlnQ/MHFYuq6vWfdUzGbejMN6nNWm9el3hBc6D47tZ35keI/tVBIgQIAAgUYQkNGgEc6SMRIgQIAAAQIECBAgQIAAAQIECBAgQIAAAQIECBAgQIAAgToRyD9mXyfDMgwCBAgQIECAQP0KTJxdzmCw4sYY5A+X3RNx+iXHR8wyFjx6081RfnTScRG/e3x6d2MUfBAgQIAAAQINLbDPIen6Pv9DaWXiiqtvivl8bPlpEaeWMxa03dsa5RXPfjDiVYsOjeiDAAECBAgQGAwCB8Uk/mT+hIhrl6+MePNHU0bDeeVMRx3bHoz6a/+mLeLJ518eMbtfiIIPAgQIECDQYALDGmy8hkuAAAECBAgQIECAAAECBAgQIECAAAECBAgQIECAAAECBAgMoICMBgOI79AECBAgQIBAowqkFQsLbjw9JnDt6SmzwZ998d6KCY2cMjvK381lOqhopECAAAECBAg0qMCoGPdnLvpaGv9l10S84IvfyM0nvYP5qlymg1wjRQIECBAgQKCBBSbOPjtG/1el70U89+pFEW/JzSnLZJBlOshtViRAgAABAg0lIKNBQ50ugyVAgAABAgQIECBAgAABAgQIECBAgAABAgQIECBAgAABAgMrIKNBjfxXX5feqbS6Rv3phgABAgQIEGgEgSyzwZUx2AWNMGRjJECAAAECBGoskGU2SL8LfKbGveuOAAECBAgQaByBLLPBbSnBYeMM3EgJECBAgMAuCMhosAtodiFAgAABAgQIECBAgAABAgQIECBAgAABAgQIECBAgAABAkNVQEaDGp35k85J71yaM61/pB3tj8QILl50R8S2zhoNSDcECBAgQIAAAQIECBAgQIAAAQIECBAgQIAAAQIECBAgQGAPCMhosAdQdUmAAAECBAgQIECAAAECBAgQIECAAAECBAgQIECAAAECBAarQP+W3w9WhX7Ma3jzkdH6imUp9mPXHpvWur8eD6KSAAECBAgQIECAAAECBAgQIECAAAECBAgQIECAAAECBAjUSEBGgxpB6oYAAQIECBAgQIAAAQIECBAgQIAAAQIECBAgQIAAAQIECAwFAQ8aDIWzbI4ECBAgQIAAAQIECBAgQIAAAQIECBAgQIAAAQIECBAgQKBGAh40qBGkbggQIECAAAECBAgQIECAAAECBAgQIECAAAECBAgQIECAwFAQ8KDBUDjL5kiAAAECBAgQIECAAAECBAgQIECAAAECBAgQIECAAAECBGok4EGDGkHqhgABAgQIECBAgAABAgQIECBAgAABAgQIECBAgAABAgQIDAUBDxoMhbNsjgQIECBAgAABAgQIECBAgAABAgQIECBAgAABAgQIECBAoEYCHjSoEaRuCBAgQIAAAQIECBAgQIAAAQIECBAgQIAAAQIECBAgQIDAUBDwoMFQOMvmSIAAAQIECBAgQIAAAQIECBAgQIAAAQIECBAgQIAAAQIEaiTgQYMaQeqGAAECBAgQIECAAAECBAgQIECAAAECBAgQIECAAAECBAgMBYGmznf/995ElyxZMhTma44ECBAgQIAAAQIECBAgQIAAAQIECBAgQIAAAQIECBAgQIBAPwQWL15c0VpGgwoOBQIECBAgQIAAAQIECBAgQIAAAQIECBAgQIAAAQIECBAgQKA3gRH5jQsXLsxXKRMgQIAAAQJDRGDp0qUx0/yTiUNk+qZJgAABAgQI7CSQZT50X7ATiq8ECBAgQGCICbgfGGIn3HQJECBAgEAPAtn9QH6TjAZ5EWUCBAgQIECAAAECBAgQIECAAAECBAgQIECAAAECBAgQIECgUMCDBoU0NhAgQIAAAQIECBAgQIAAAQIECBAgQIAAAQIECBAgQIAAAQJ5AQ8a5EWUCRAgQIAAAQIECBAgQIAAAQIECBAgQIAAAQIECBAgQIAAgUIBDxoU0thAgAABAgQIECBAgAABAgQIECBAgAABAgQIECBAgAABAgQI5AU8aJAXUSZAgAABAgQIECBAgAABAgQIECBAgAABAgQIECBAgAABAgQKBTxoUEhjAwECBAgQIECAAAECBAgQIECAAAECBAgQIECAAAECBAgQIJAX8KBBXkSZAAECBAgQIECAAAECBAgQIECAAAECBAgQIECAAAECBAgQKBTwoEEhjQ0ECBAgQIAAAQIECBAgQIAAAQIECBAgQIAAAQIECBAgQIBAXsCDBnkRZQIECBAgQIAAAQIECBAgQIAAAQIECBAgQIAAAQIECBAgQKBQwIMGhTQ2ECBAgAABAgQIECBAgAABAgQIECBAgAABAgQIECBAgAABAnkBDxrkRZQJECBAgAABAgQIECBAgAABAgQIECBAgAABAgQIECBAgACBQoERhVts6FHg5bU3RP2FKzf1uL12lVOjq0uXnRJxclNT7brWEwECBAgQIECAAAECBAgQIECAAAECBAgQIECAAAECBAgQ2EUBGQ12Ec5uBAgQIECAAAECBAgQIECAAAECBAgQIECAAAECBAgQIEBgKArIaLCbZ32/Yz4bPVx36vRcT+1Rvn3psoitG9+OeNI5iyLOmVZJ39H+SNRfvOiOiG2dEXwQIECAAAECdS3weozutsuuibji2XS97xryqPi64OrzIs4c4xnPLhvfCBAgQIDA4BJ49KbFMaEr736rx4mdfP7lUT9vRuXvAT02VkmAAAECBAg0pMD2DT+OcZ9y5boex988K2UwvuH0w3rcrpIAAQIECDSSgF+7G+lsGSsBAgQIECBAgAABAgQIECBAgAABAgQIECBAgAABAgQIEBhgAY/RD/AJcHgCBAgQIECgEQUqMxnc2jEzJvGj5cdHbGlKc9qxsvH85VExfvlpEac2lRukZj4JECBAgACBBhbYcb2/e1LM4qrc9b7t3u9F/blXpwxIB8h01MBn29AJECBAgEDPAvlMBvlMRh3bHowdv/4XKyNeMX5MxG+eML7nDtUSIECAAIEGEJDRoAFOkiESIECAAAECBAgQIECAAAECBAgQIECAAAECBAgQIECAAIF6EZDRoEZn4uW1N0RPF67c1GuPq69L72RcvaPV1Ph2yWWTd9T4QoAAAQIECNS3wPYNa2KAK559X8QFV38qYpbJIBv9x78wL77OXHNjxFV3vRLRioVMSCRAgAABAo0rkK1MbL3nrZjEyed/IWI+c9HE2XOjfv7DKaPBTT/5ZZRnejdzOPggQIAAAQKNLZAyHv7ktidiGs2zTok4b0blf3oZ3nJ01C/409Tu3OV3Rvm540+LmL9/iEofBAgQIECgzgVkNKjzE2R4BAgQIECAAAECBAgQIECAAAECBAgQIECAAAECBAgQIECgngQqH6urp5E12FgmzPxSjHhFekXzu9/bo3z70mURWze+HfGkcxZFnDOtkr6j/ZGo90GAAAECBAjUv8AT656OQY6cclTE6aOLnt1sie0TpgyPeOvPnoq47fj0DsZ8BoTY6IMAAQIECBBoCIFN69OKxBc6D47xnvmRdL3vPvhRUfX+D6TfAdrvfjzKz512aEQrGLuLqSFAgAABAo0i0LHt1zHUh55Lv/8f9+npvQ597P6jy9vXRXzsyY6IU3MZEHrtxEYCBAgQIFAnAkW/itfJ8AyDAAECBAgQIECAAAECBAgQIECAAAECBAgQIECAAAECBAgQqCeBymX19TQyYyFAgAABAgQI1J1Aevfib19KKxVGThwTIyzOTFC5gvHNuzdF+/ZSZ9qv1FR3MzQgAgQIECBAoDqBLZtfi4ZZhqPmPq7r48an+4ZSKd1PbN6a7gemjnE/UJ24VgQIECBAoP4E3n51cwzqhc709/+nx/W+tnPE2JTh8MCmlNHgxVfS/URpRqqvvxkaEQECBAgQKBbo/apXvJ8tBAgQIECAAAECBAgQIECAAAECBAgQIECAAAECBAgQIECAwBAUkNFgt0/6tujh9qWXR2zdmFY4FnW7+rrUbnWuwX/63HG5GkUCBAgQIEBgsAh0rWAcLDMyDwIECBAgQKC/Al3vZH6pv7tqT4AAAQIECAwSgeEto2MmE4eljEa/GyTzMg0CBAgQGJoCMhoMzfNu1gQIECBAgAABAgQIECBAgAABAgQIECBAgAABAgQIECBAYJcEZDTYJbadd2qJwokLF6W486Z+fO9ofyRaX7yqHztpSoAAAQIECBAgQIAAAQIECBAgQIAAAQIECBAgQIAAAQIE9rKAjAZ7GdzhCBAgQIAAAQIECBAgQIAAAQIECBAgQIAAAQIECBAgQIBAIwvIaFCjs7cjI8GiO6LHts7qOj58zlei4bmHV9deKwIECBAgQKDxBLZsfq086EmNN3gjJkCAAAECBGoi8OorW2vSj04IECBAgACBxhXo2JbuB9reSf8BIeVLbtz5GDkBAgQIDG0BGQ2G9vk3ewIECBAgQIAAAQIECBAgQIAAAQIECBAgQIAAAQIECBAg0C8BGQ36xVUqbd3yesUek8aNKpd/V1G/76Rjo/ztC2ZFbG5Km7c/szq+nHHN+lThkwABAgQIEGgggXTdf/8H0i3Um8+nTAXbypmMWsrX+6IJjZxyQGxqLvXRsKgD9QQIECBAgEDdCIwbPybG8ubdmyK2l7KViX1d59P9xPjRfbWrm6kaCAECBAgQIFAgMGLs+NhyYNO6iJu2vJNajqlujeek/dP9REH3qgkQIECAQF0LVHe1q+spGBwBAgQIECBAgAABAgQIECBAgAABAgQIECBAgAABAgQIECCwtwRkNKhauj1abmrrqHoPDQkQIECAAIHBKdC1gvGJmOBTWz8VcWa3FQvPRP3Da7ZHnPb56RH7ynwQjXwQIECAAAECdS0wdv/R5fGlFYyPPZl+L5g6I/9TS8qM+POHN0f75llzIk5tktGgrk+wwREgQIAAgSoEhrek+4GJw9J1fc26p2KveTMO63HvTevT7wgvdB4c28/8yPAe26kkQIAAAQKNICCjQSOcJWMkQIAAAQIECBAgQIAAAQIECBAgQIAAAQIECBAgQIAAAQJ1IpB/zL5OhlWPw0gZDX77QpbRoDkGeeSh2TuUXqoY9Fsv3h/lr56VYsVGBQIECBAgQKChBSbOLmcwWHFjzOOHy+6JOP2S4yNmGQsevenmKD866biI3z0+vbsxCj4IECBAgACBhhbY55B0fZ//obQyccXVN8V8Prb8tIhZxoK2e1ujvOLZD0a8atGhEX0QIECAAAECg0HgoJjEn8yfEHHt8pURb/5oymg4r5zpqGPbg1F/7d+0RTz5/MsjZvcLUfBBgAABAgQaTGBYg43XcAkQIECAAAECBAgQIECAAAECBAgQIECAAAECBAgQIECAAIEBFJDRoEr87c88HS0feqezvEdLxPHZksU3Kjvad9KxUfHtC2ZFbO7j1Ysd7ZUZEfadtH/s975SHztWHlaJAAECBAgQ2CsCacXCghtPj6Nde3rKbPBnX7y34ugjp8yO8ndzmQ4qGikQIECAAAECDSowKsb9mYu+lsZ/2TURL/jiN3LzSe9gviqX6SDXSJEAAQIECBBoYIGJs8+O0f9V6XsRz716UcRbcnPKMhlkmQ5ymxUJECBAgEBDCcho0FCny2AJECBAgAABAgQIECBAgAABAgQIECBAgAABAgQIECBAgMDACsho0Kd/e7S46++fqmi53zEzojy5qZxxoPnIKF+xLMWKxlUU3t66JVq1lRMm7DdhdJT7yoRQRdeaECBAgAABAntMIMtscGUcYcEeO46OCRAgQIAAgfoVyDIbpHctf6Z+B2pkBAgQIECAwB4WyDIb3JYSHO7ho+meAAECBAgMrICMBgPr7+gECBAgQIAAAQIECBAgQIAAAQIECBAgQIAAAQIECBAgQKChBGQ06PN0NUeLExemdyod0PrDKP/r7EP63LOnBh3tj0T1xYvuiJhlMOhqOzW+fm3etK4q3wgQIECAAAECBAgQIECAAAECBAgQIECAAAECBAgQIECAQJ0IyGhQJyfCMAgQIECAAAECBAgQIECAAAECBAgQIECAAAECBAgQIECAQCMIyGjQz7N0xNwv93OPyubDm4+MiiuWpVi5VYkAAQIECBAgQIAAAQIECBAgQIAAAQIECBAgQIAAAQIECNS3gIwG9X1+jI4AAQIECBAgQIAAAQIECBAgQIAAAQIECBAgQIAAAQIECNSVgAcN6up0GAwBAgQIECBAgAABAgQIECBAgAABAgQIECBAgAABAgQIEKhvAQ8a1Pf5MToCBAgQIECAAAECBAgQIECAAAECBAgQIECAAAECBAgQIFBXAh40qKvTYTAECBAgQIAAAQIECBAgQIAAAQIECBAgQIAAAQIECBAgQKC+BTxoUN/nx+gIECBAgAABAgQIECBAgAABAgQIECBAgAABAgQIECBAgEBdCXjQoK5Oh8EQIECAAAECBAgQIECAAAECBAgQIECAAAECBAgQIECAAIH6FvCgQX2fH6MjQIAAAQIECBAgQIAAAQIECBAgQIAAAQIECBAgQIAAAQJ1JeBBg7o6HQZDgAABAgQIECBAgAABAgQIECBAgAABAgQIECBAgAABAgTqW8CDBvV9foyOAAECBAgQIECAAAECBAgQIECAAAECBAgQIECAAAECBAjUlUBT57v/e29ES5YsqauBGQwBAgQIECBAgAABAgQIECBAgAABAgQIECBAgAABAgQIECAw8AKLFy+uGISMBhUcCgQIECBAgAABAgQIECBAgAABAgQIECBAgAABAgQIECBAgEBvAiPyGxcuXJivUiZAgAABAgSGiMDSpUtjpvknE4fI9E2TAAECBAgQ2Ekgy3zovmAnFF8JECBAgMAQE3A/MMROuOkSIECAAIEeBLL7gfwmGQ3yIsoECBAgQIAAAQIECBAgQIAAAQIECBAgQIAAAQIECBAgQIBAoYAHDQppbCBAgAABAgQIECBAgAABAgQIECBAgAABAgQIECBAgAABAgTyAh40yIsoEyBAgAABAgQIECBAgAABAgQIECBAgAABAgQIECBAgAABAoUCHjQopLGBAAECBAgQIECAAAECBAgQIECAAAECBAgQIECAAAECBAgQyAt40CAvokyAAAECBAgQIECAAAECBAgQIECAAAECBAgQIECAAAECBAgUCnjQoJDGBgIECBAgQIAAAQIECBAgQIAAAQIECBAgQIAAAQIECBAgQCAv4EGDvIgyAQIECBAgQIAAAQIECBAgQIAAAQIECBAgQIAAAQIECBAgUCjgQYNCGhsIECBAgAABAgQIECBAgAABAgQIECBAgAABAgQIECBAgACBvIAHDfIiygQIECBAgAABAgQIECBAgAABAgQIECBAgAABAgQIECBAgEChgAcNCmlsIECAAAECBAgQIECAAAECBAgQIECAAAECBAgQIECAAAECBPICHjTIiygTIECAAAECBAgQIECAAAECBAgQIECAAAECBAgQIECAAAEChQIjCrfY0KvA9mdWx/Yzrlnfa7v+b2yOXc687OyIR4/yLEj/De1BgAABAgQIECBAgAABAgQIECBAgAABAgQIECBAgAABAntKwH/F3lOy+iVAgAABAgQIECBAgAABAgQIECBAgAABAgQIECBAgAABAoNQQEaDmp3UqdHTpctOiTi5qamqnjvaH4l2Fy+6I2JbZ1W7aUSAAAECBAjUhcDrMYrbLrsm4opn386NalSUF1x9XsSZYzzjmQNSJECAAAECg0bg0ZsWx1yuvPutHud08vmXR/28GX6K6RFIJQECBAgQGAQC2zf8OGZxypXrepxN86z03w9uOP2wHrerJECAAAECjSTg1+5GOlvGSoAAAQIECBAgQIAAAQIECBAgQIAAAQIECBAgQIAAAQIEBljAY/QDfAIcngABAgQIEGhEgcpMBrd2zIxJ/Gj58RFbyomNdqxsPH951I9fflrEqVVmPorGPggQIECAAIG6Fthxvb97Uozzqtz1vu3e70X9uVenDEgHyHRU1+fT4AgQIECAwK4I5DMZ5DMZdWx7MLr9+l+sjHjF+DERv3nC+F05nH0IECBAgEBdCMhoUBenwSAIECBAgAABAgQIECBAgAABAgQIECA0McVaAAAds0lEQVRAgAABAgQIECBAgEBjCMho0BjnySgJECBAgACBOhLYvmFNjGbFs++LuODqT0XMMhlkQ/34F+bF15lrboy46q5XIlqxkAmJBAgQIECgcQWylYmt97wVkzj5/C9EzGcumjh7btTPfzhlNLjpJ7+M8kzvZg4HHwQIECBAoLEFUsbDn9z2REyjedYpEefNqPxPL8Nbjo76BX+a2p27/M4oP3f8aRHz9w9R6YMAAQIECNS5gIwGdX6CDI8AAQIECBAgQIAAAQIECBAgQIAAAQIECBAgQIAAAQIECNSTQOVjdfU0soYby3Mx4kvOurThRm7ABAgQIECAQP8Enlj3dOwwcspREaePLnp2syW2T5gyPOKtP3sq4rbj0zsY8xkQYqMPAgQIECBAoCEENq1PKxJf6Dw4xnvmR9L1vvvgR0XV+z+QfoJpv/vxKD932qERrWDsLqaGAAECBAg0ikDHtl/HUB967u2Ix316eq9DH7v/6PL2dREfe7Ij4tRcBoReO7GRAAECBAjUiUDRr+J1MjzDIECAAAECBAgQIECAAAECBAgQIECAAAECBAgQIECAAAECBOpJQEaDmp2NqdHTpcvSO5gmNzVV1XNH+yPR7uJFd0Rs66xqN40IECBAgACBARFI71787UtppcLIiWNiFMWZCSpXML5596Zo315KF/yWUnX3CwMyVQclQIAAAQIEehXYsvm12J5lOGru47o+bny6byiV0v3E5q3pfmDqGPcDvULbSIAAAQIE6ljg7Vc3x+he6Ex//396XO9rO0eMTRkOD2xKGQ1efCXdT5RmpPo6nqqhESBAgACBbgK9X/W6NVdBgAABAgQIECBAgAABAgQIECBAgAABAgQIECBAgAABAgQIDGUBGQ2G8tk3dwIECBAgQGCvCHStYNwrh3MQAgQIECBAoA4Fut7J/FIdjs6QCBAgQIAAgb0hMLxldBxm4rCU0eh3e+OgjkGAAAECBPaQgIwGewhWtwQIECBAgAABAgQIECBAgAABAgQIECBAgAABAgQIECBAYDAKeNBgMJ5VcyJAgAABAgQIECBAgAABAgQIECBAgAABAgQIECBAgAABAntIwIMGewhWtwQIECBAgAABAgQIECBAgAABAgQIECBAgAABAgQIECBAYDAKjBiMkxqYOT0Xh73krEsH5vCOSoAAAQIECNStwJbNr5XHNqlux2hgBAgQIECAwJ4VePWVrXv2AHonQIAAAQIE6l6gY1u6H2h7pzPG2lL3IzZAAgQIECBQLCCjQbGNLQQIECBAgAABAgQIECBAgAABAgQIECBAgAABAgQIECBAgEBOQEaDHEi1xde2VK5E2HfSsbHrty+YFbG5qbqeOtofiYYXL7ojYlt6kLG6nbUiQIAAAQIE9rLAqDje+z+QbqHefD5lKthWvn639HH9HznlgNi/udRHw708K4cjQIAAAQIE+i8wbvyY2OnNuzdFbC9lKxP7us6n+4nxo/tq1/8x2YMAAQIECBDYuwIjxo6PAx7YtC7ipi3vpAGMqW6N56T90/3E3h21oxEgQIAAgdoIVHe1q82x9EKAAAECBAgQIECAAAECBAgQIECAAAECBAgQIECAAAECBAg0uICMBrt4Ardueb1iz5ETRke52kwGFTsrECBAgAABAg0l0LWC8YkY91NbPxVxZrcVC89E/cNrtkec9vnpEfvKfBCNfBAgQIAAAQJ1LTB2//Q7QKmUVjA+9mRHjHfqjPxPLen3g58/vDm2N8+ak9o1yWhQ1yfY4AgQIECAQBUCw1vS/cDEYem6vmbdU7HXvBmH9bj3pvXpd4QXOg+O7Wd+ZHiP7VQSIECAAIFGEJDRoBHOkjESIECAAAECBAgQIECAAAECBAgQIECAAAECBAgQIECAAIE6Ecg/Zl8nw6rfYXS0PxKDu+WnaWViNtJJ49I7FrOySIAAAQIECAxegYmzyxkMVtwYk/zhsnsiTr/k+IhZxoJHb7o5yo9OOi7id49P726Mgg8CBAgQIECgoQX2OSRd3+d/KK1MXHH1TTGfjy0/LeLUcsaCtntbo7zi2Q9GvGrRoRF9ECBAgAABAoNB4KCYxJ/MnxBx7fKVEW/+aMpoOK+c6ahj24NRf+3ftEU8+fzLI2b3C1HwQYAAAQIEGkxgWION13AJECBAgAABAgQIECBAgAABAgQIECBAgAABAgQIECBAgACBARSQ0aCf+E/cfV/s0daZ7dgcX448dExWIRIgQIAAAQKDXiCtWFhw4+kx02tPT5kN/uyL91bMfOSU2VH+bi7TQUUjBQIECBAgQKBBBVJmw89c9LU0/suuiXjBF7+Rm096B/NVuUwHuUaKBAgQIECAQAMLTJx9doz+r0rfi3ju1Ysi3pKbU5bJIMt0kNusSIAAAQIEGkpARoOGOl0GS4AAAQIECBAgQIAAAQIECBAgQIAAAQIECBAgQIAAAQIEBlZARoMq/bc/szpafue+7RV77HfMrCgfPWrXntnY/OSTsX9XhoSWKI/PXu5ccTQFAgQIECBAoL4EsswGV8awFtTX4IyGAAECBAgQ2CsCWWaD9K7lz+yVYzoIAQIECBAgUI8CWWaD21KCw3ocojERIECAAIGaCezafx2v2eF1RIAAAQIECBAgQIAAAQIECBAgQIAAAQIECBAgQIAAAQIECDSSgIwGVZ6tfQ46KVquuH5axGV//ljEE+alcnE37bHp9qXLIrZufLu46btbTjrnc7F9clNTr+1sJECAAAECBAgQIECAAAECBAgQIECAAAECBAgQIECAAAECAyEgo8FAqDsmAQIECBAgQIAAAQIECBAgQIAAAQIECBAgQIAAAQIECBBoUAEZDfp94j4Ye5z1/RT73r05mpy4cFGKfe+gBQECBAgQIECAAAECBAgQIECAAAECBAgQIECAAAECBAgQqFsBGQ3q9tQYGAECBAgQIECAAAECBAgQIECAAAECBAgQIECAAAECBAgQqD8BDxrU3zkxIgIECBAgQIAAAQIECBAgQIAAAQIECBAgQIAAAQIECBAgULcCHjSo21NjYAQIECBAgAABAgQIECBAgAABAgQIECBAgAABAgQIECBAoP4EPGhQf+fEiAgQIECAAAECBAgQIECAAAECBAgQIECAAAECBAgQIECAQN0KeNCgbk+NgREgQIAAAQIECBAgQIAAAQIECBAgQIAAAQIECBAgQIAAgfoT8KBB/Z0TIyJAgAABAgQIECBAgAABAgQIECBAgAABAgQIECBAgAABAnUr4EGDuj01BkaAAAECBAgQIECAAAECBAgQIECAAAECBAgQIECAAAECBOpPwIMG9XdOjIgAAQIECBAgQIAAAQIECBAgQIAAAQIECBAgQIAAAQIECNStgAcN6vbUGBgBAgQIECBAgAABAgQIECBAgAABAgQIECBAgAABAgQIEKg/gabOd//33rCWLFlSf6MzIgIECBAgQIAAAQIECBAgQIAAAQIECBAgQIAAAQIECBAgQGBABRYvXlxxfBkNKjgUCBAgQIAAAQIECBAgQIAAAQIECBAgQIAAAQIECBAgQIAAgd4ERuQ3Lly4MF+lTIAAAQIECAwRgaVLl8ZM808mDpHpmyYBAgQIECCwk0CW+dB9wU4ovhIgQIAAgSEm4H5giJ1w0yVAgAABAj0IZPcD+U0yGuRFlAkQIECAAAECBAgQIECAAAECBAgQIECAAAECBAgQIECAAIFCAQ8aFNLYQIAAAQIECBAgQIAAAQIECBAgQIAAAQIECBAgQIAAAQIECOQFPGiQF1EmQIAAAQIECBAgQIAAAQIECBAgQIAAAQIECBAgQIAAAQIECgU8aFBIYwMBAgQIECBAgAABAgQIECBAgAABAgQIECBAgAABAgQIECCQF/CgQV5EmQABAgQIECBAgAABAgQIECBAgAABAgQIECBAgAABAgQIECgU8KBBIY0NBAgQIECAAAECBAgQIECAAAECBAgQIECAAAECBAgQIECAQF7AgwZ5EWUCBAgQIECAAAECBAgQIECAAAECBAgQIECAAAECBAgQIECgUMCDBoU0NhAgQIAAAQIECBAgQIAAAQIECBAgQIAAAQIECBAgQIAAAQJ5AQ8a5EWUCRAgQIAAAQIECBAgQIAAAQIECBAgQIAAAQIECBAgQIAAgUKBEYVbbOiXwC9ar4z237lvYsRLl50ScXJTU66f9ijfvnRZxNaNb0fcd9KxEb99wayIzfndotYHAQIECBAgQIAAAQIECBAgQIAAAQIECBAgQIAAAQIECBAYWAEZDQbW39EJECBAgAABAgQIECBAgAABAgQIECBAgAABAgQIECBAgEBDCchosJunq6P9kejhlp9uL/f0XMRrbn464nWnTi/Xp7D9mQfiS5bJoFRqjvJpX5oZUSaD5OSTAAECBAgQIECAAAECBAgQIECAAAECBAgQIECAAAECBOpTQEaD+jwvRkWAAAECBAgQIECAAAECBAgQIECAAAECBAgQIECAAAECBOpSQEaD3Twtw5uPjB4Wn7sl4hnXrI/4xgP3RXzwhEMiHj3q+Yj/49onImYfh8+ZU97umY/MRCRAgAABAo0r8HoM/bbLron41qeXRJw3o7pbru0bfhztT7lyXcT8R/OsU6LqhtMPy2+qKHdsezDKX/+L2yO+0FmxuTRyyuyo+O4lx0dsaarcni89etPiqLry7rfym6J88vmXR+xrnrWaX6lU6bzi2bdz4xoV5QVXnxdx5hj3WTkgRQIECBDYCwLZ9fOeMV+Jo33zhPFVHbV21/HaXi9rdR2v3fwSZ+a8u/cpVZ0cjQgQIECAQB8Ctbpe9nEYmwkQIECAQF0I+NW1Lk6DQRAgQIAAAQIECBAgQIAAAQIECBAgQIAAAQIECBAgQIAAgcYQqG55XWPMZS+Nsj2Oc/vSZRFbN+ZX0GXDSO2uv+hbUXF9Vp2Lj6/6QdTMX5U27Dvp2Pjy7QtmRWzuY4Vh2ssnAQIECBAgMJACRSvpTq5yUPkVD/kMAV0r/1ZGj1eMHxMxvzKyq13KZNAyb0G0+8sdKyififK1p98Y8YK/Tv0UZUjomtekaH/V8tMiTm1KNyht934vyudenTI4HFCQQaBW88tnMri1Y2Yc/0fLKzMz7Bj3+ctj+/jcuKPSBwECBAgQqLHAjuvi8raKnv/o1IpiYaF21/HKTAa7e72s1XW8dvNLhDuu93dPiopdvU8pPCE2ECBAgACBfgjU6nrZj0NqSoAAAQIEBlxARoMBPwUGQIAAAQIECBAgQIAAAQIECBAgQIAAAQIECBAgQIAAAQIEGkdARoManavD56R3Lp43e1y/enx57Q3R/sKVm/q1n8YECBAgQIDAQApUZgYY/bXLYjCr/vPPIn79L1JGgb5HmFYc/uS2J6Jp86xTIs6bUXmLNrzl6Khf8Kep3bnL74zyc8efFjHLMLDuH++O8pbJsyN+8/j8u6APivozFx4R8ZQrU/u1fzwjyjPHpGdQsxWHrfe8FfUnn/+FiNlxovDux8TZc+Pr/IdTRoObfvLLKM88/bByk9rOb/uGNdHvimffF3HB1Z+K2JLLAPXxL8yL+plrUuaGVXe9EuV8Boio9EGAAAECBHZZoDJzwK8/dnb0dNvf/EvELIPQ76rsv1bX8dpdL2t7Ha/V/Gp3n1LlidGMAAECBAj0KlDb62Wvh7KRAAECBAjUmYCMBnV2QgyHAAECBAgQIECAAAECBAgQIECAAAECBAgQIECAAAECBAjUs0Dlcrl6HqmxESBAgAABAgTqRiBlBlhw45UVI+rYVlHss9Cx7dfR5qHn3o543Ken97rP2P1Hl7evi/jYkx0Rp87YGPHhNdsjTvt86ie/0j82vvsxYmzKdHBgU+rnoce3xKaZJ6T6TetT5oQXOg+O+jM/MjzbNRdHRfn9H0i3lO13Px7l5047NOLk9lrNL/X/xLqno9+RU46KOH100TOzLbF9wpQ07lt/9lSUt5UzPBS5RCMfBAgQIECgaoF0HfzMRZfn9kiZj3KVvRRT+1pdx2t1vXxfza7j9Xmfks/U1MsJsokAAQIECBQK1O7vev+pphDZBgIECBCoW4GiX2frdsAGRoAAAQIECBAgQIAAAQIECBAgQIAAAQIECBAgQIAAAQIECAycgMfkBs7ekQkQIECAAIEhLvD2q5tD4IXOtCLy0+N6fwY0n4ngxVdei/07Dtgase2dzogf3X9MxKKP4S0pM8LEYU3R5MnNqZ9SKWU02FIuZ5kDmkupXVF/48Znx0vvpty8NY1j4uu1mV9pxu/FoX/7Usr8MHJiOl5xZoLKTAtv3r0p9m8vpXG19DGfonmqJ0CAAAECe0KgY1utruO1vV7+L4P8PmXqmN7vb/bEudYnAQIECAw+gVr9XV+akf4eH3xCZkSAAAECg1mg91+zB/PMzY0AAQIECBAgQIAAAQIECBAgQIAAAQIECBAgQIAAAQIECBDot4CMBv0m63mHx1f9IDbMX9XzdrUECBAgQIAAgd0VyGci+N0ud9gSe06YMjzik7vcT9px7P4pQ0Kp9NJu9VS7+aVhdGVa2K1h2ZkAAQIECNSZQG2v47W6XtbuOl7b+dXqPqXO/hEYDgECBAg0qEDtrpcNCmDYBAgQIDCoBGQ0GFSn02QIECBAgAABAgQIECBAgAABAgQIECBAgAABAgQIECBAgMCeFZDRoN++zbHHiQsXpVi4/29iy7I/vznihqM+E/G6U6cX7mEDAQIECBAgQIAAAQIECBAgQIAAAQIECBAgQIAAAQIECBCodwEZDer9DBkfAQIECBAgQIAAAQIECBAgQIAAAQIECBAgQIAAAQIECBCoIwEZDfp5Ml5ee0PsceHKNyN+6atHRLzrunsitnVOTdsX/H7Eh97pjFh64NaIfzluVMTzZo9L9Ts+KzMg/Otnv1zQbscOvhAgQIAAAQJDTKBj29aYcVv5/iK9wXhXELbFTi9v7Eg7H7ArfXTt8+oraVxdNbv2rXbzS8ffsvm18kAm7dqA7EWAAAECBOpSoLbX8VpdL2t3Ha/t/Gp1n1KX/xQMigABAgQaTqB218uGm7oBEyBAgMAgFJDRYBCeVFMiQIAAAQIECBAgQIAAAQIECBAgQIAAAQIECBAgQIAAAQJ7SkBGg6pl26Pl+kdfLe/xdsSH12/qsYeRB58U9f/9a00Rz7hmfcTHV62K+OChZ0c8elR61uPltT+NcpYBYd/HfhXl9uNS5oPm1E3U+SBAgAABAgQGh8CIseNjIgc2rYu4acs7aWJjqnsWdNL+Y6L98JZ/iThxWLphePGV8kr+Gan/1Gnx5+TxqZ+sxbhy+c27031OeyllaGop9XVDkjI3jR+d2o0YXpv5lUrplvX9H0jxzefT/LaVE0e19DGskVNSyobmPsefCYgECBAgQGDvCQxvGR0H2/3reLoO1+p6OdjvU/beGXYkAgQIEBjMArW6Xg5mI3MjQIAAgcErUN2v2IN3/mZGgAABAgQIECBAgAABAgQIECBAgAABAgQIECBAgAABAgQI9ENARoMqsTran4uWDz+fMhmUSlOj/NnjJ0b86wdSBoJ8d/sclDIb/MWslAnhX2d/KZp8YthjEf/rVW9G/OrXPxnxqNabIz704lMRN2ybGTHLfBAFHwQIECBAgMCgEMivYFyzLl3/5804rMf5bVr/RNS/0HlwxDM/MrzcriXihCmpfOvPUj/bjk8ZBfIr/rdvSP2s7Uj7LTg8ZVAqd1Yau39aWVkqpUwLjz3ZEZumzsjfOr4e9T9/eHPE5llzUrumcoqB3ArNXZ9fdFvqyrSQxv/U1k/FhpndMkA8E/UPr9kecdrnp0fMO0SlDwIECBAgMOACtb2O1+x6WbPreG3nV7P7lAE/7wZAgAABAoNBoHZ/1w8GDXMgQIAAgaEmIKPBUDvj5kuAAAECBAgQIECAAAECBAgQIECAAAECBAgQIECAAAECBHZDIL8sbTe6Gty7bn7yyZhgW/ldwPsdMyPKU4b9rqqJHzH3yxXttj+zJcq/eWF9xMU3fzbi6TN/L+JD97VHfOSJ9A7io2dXrjSMjT4IECBAgACBBhc4KMb/J/MnRFy7fGXEmz+aVuDPK2cQ6Nj2YNRf+zdtEU8+//KIU7PMAaVRUf7jzxwaccWV90b8wV2pn2+ekDIblEpppf/1S38R2//o1K9GzGcE2OeQ46J+/odS5oAVV98U5Y8tPy1idty2e1ujvOLZD0a8alE6fhTio1bzSz1OnF3OYLDixqj44bJ7Ik6/5PiIWcaCR2+6OcqPTkrz+G45s0NU+iBAgAABAnUnUNvreO2ul7W6jtd2frW7T6m7fwgGRIAAAQINKVCr62VDTt6gCRAgQGCICwwb4vM3fQIECBAgQIAAAQIECBAgQIAAAQIECBAgQIAAAQIECBAgQKAfAjIaVIm17/S0IvCoYZtjj1GHpXcjD29+McoTyisKs4wHfXX79PpfVTQ5ttzftBEbU/19bREnjvMsSAWUAgECBAgQGIQCE2efHbP6q9L3Ip579aKIt+TmmmUyyDId5DaX9jnkc1G18htpyylXXhtfPvN/V7b8o1MXREVXpoPK7aVyhoTPXPS1tOGyayJe8MVyxzuap/uhq5afFjVZpoMdm8tfajW/UimtFFlw4+nR87Wnp8wGf/bFlMEhO+7IKbPj63dzmQ6y7SIBAgQIEKhHgdpdx2t7vazVdbx280sZEmp1n1KP/xaMiQABAgQaT6BW18vGm7kREyBAgMBQFvBfsYfy2Td3AgQIECBAgAABAgQIECBAgAABAgQIECBAgAABAgQIECDQT4Gmznf/994+S5YsiV0XLlzYzy40f0/g5bU3BMSFKzf1C2S/Yz4b7a87NWVM6NfOGhMgQIAAgRoLLF26NHpcvHhxjXvWHQECBAgQINBoAtnvBO4LGu3MGS8BAgQIEKidgPuB2lnqiQABAgQINKpA0f2AjAaNekaNmwABAgQIECBAgAABAgQIECBAgAABAgQIECBAgAABAgQIDIDAiAE45qA85ISZX4p5rZg5KKdnUgQIECBAgAABAgQIECBAgAABAgQIECBAgAABAgQIECBAIARkNPAPgQABAgQIECBAgAABAgQIECBAgAABAgQIECBAgAABAgQIEKhawIMGVVNpSIAAAQIECBAgQIAAAQIECBAgQIAAAQIECBAgQIAAAQIECHjQwL8BAgQIECBAgAABAgQIECBAgAABAgQIECBAgAABAgQIECBAoGoBDxpUTaUhAQIECBAgQIAAAQIECBAgQIAAAQIECBAgQIAAAQIECBAg4EED/wYIECBAgAABAgQIECBAgAABAgQIECBAgAABAgQIECBAgACBqgU8aFA1lYYECBAgQIAAAQIECBAgQIAAAQIECBAgQIAAAQIECBAgQICABw38GyBAgAABAgQIECBAgAABAgQIECBAgAABAgQIECBAgAABAgSqFvCgQdVUGhIgQIAAAQIECBAgQIAAAQIECBAgQIAAAQIECBAgQIAAAQIeNPBvgAABAgQIECBAgAABAgQIECBAgAABAgQIECBAgAABAgQIEKhawIMGVVNpSIAAAQIECBAgQIAAAQIECBAgQIAAAQIECBAgQIAAAQIECHjQwL8BAgQIECBAgAABAgQIECBAgAABAgQIECBAgAABAgQIECBAoGqBps53//de6yVLllS9k4YECBAgQIAAAQIECBAgQIAAAQIECBAgQIAAAQIECBAgQIDA0BBYvHhxxURlNKjgUCBAgAABAgQIECBAgAABAgQIECBAgAABAgQIECBAgAABAgR6E9iR0aC3RrYRIECAAAECBAgQIECAAAECBAgQIECAAAECBAgQIECAAAECBN4TkNHAvwMCBAgQIECAAAECBAgQIECAAAECBAgQIECAAAECBAgQIEDg/2/XDmkAAAAYhvl3PQsTUH7UHG4LCA02lSEBAgQIECBAgAABAgQIECBAgAABAgQIECBAgAABAgQIECAgNPABAgQIECBAgAABAgQIECBAgAABAgQIECBAgAABAgQIECBAYAsIDTaVIQECBAgQIECAAAECBAgQIECAAAECBAgQIECAAAECBAgQICA08AECBAgQIECAAAECBAgQIECAAAECBAgQIECAAAECBAgQIEBgCwR3FPNUo7EycwAAAABJRU5ErkJggg==;" vertex="1" parent="1">
          <mxGeometry x="31" y="869" width="958" height="131.18" as="geometry" />
        </mxCell>
        <mxCell id="1ga72cSjbWooDJT9AYzO-125" value="" style="endArrow=none;dashed=1;html=1;rounded=0;exitX=0.038;exitY=0.977;exitDx=0;exitDy=0;exitPerimeter=0;" edge="1" parent="1" source="1ga72cSjbWooDJT9AYzO-112">
          <mxGeometry width="50" height="50" relative="1" as="geometry">
            <mxPoint x="18" y="1149" as="sourcePoint" />
            <mxPoint x="18" y="859" as="targetPoint" />
          </mxGeometry>
        </mxCell>
        <mxCell id="1ga72cSjbWooDJT9AYzO-126" value="默认" style="rounded=0;whiteSpace=wrap;html=1;fillColor=#d5e8d4;strokeColor=#82b366;fontStyle=0" vertex="1" parent="1">
          <mxGeometry x="880" y="819" width="40" height="40" as="geometry" />
        </mxCell>
        <mxCell id="1ga72cSjbWooDJT9AYzO-127" value="无限量" style="text;html=1;strokeColor=none;fillColor=none;align=center;verticalAlign=middle;whiteSpace=wrap;rounded=0;fontStyle=4" vertex="1" parent="1">
          <mxGeometry x="414" y="540" width="60" height="30" as="geometry" />
        </mxCell>
        <mxCell id="1ga72cSjbWooDJT9AYzO-128" value="权重" style="rounded=0;whiteSpace=wrap;html=1;fillColor=#f5f5f5;fontColor=#333333;strokeColor=#666666;" vertex="1" parent="1">
          <mxGeometry x="940" y="950" width="40" height="40" as="geometry" />
        </mxCell>
        <mxCell id="1ga72cSjbWooDJT9AYzO-129" value="&lt;u&gt;详情&lt;/u&gt;" style="rounded=0;whiteSpace=wrap;html=1;fillColor=#f5f5f5;fontColor=#333333;strokeColor=#666666;" vertex="1" parent="1">
          <mxGeometry x="-131" y="170" width="1150" height="40" as="geometry" />
        </mxCell>
        <mxCell id="1ga72cSjbWooDJT9AYzO-130" value="类型" style="rounded=0;whiteSpace=wrap;html=1;fillColor=#f5f5f5;fontColor=#333333;strokeColor=#666666;" vertex="1" parent="1">
          <mxGeometry x="-91" y="170" width="100" height="40" as="geometry" />
        </mxCell>
        <mxCell id="1ga72cSjbWooDJT9AYzO-131" value="名字" style="rounded=0;whiteSpace=wrap;html=1;fillColor=#f5f5f5;fontColor=#333333;strokeColor=#666666;" vertex="1" parent="1">
          <mxGeometry x="9" y="170" width="110" height="40" as="geometry" />
        </mxCell>
        <mxCell id="1ga72cSjbWooDJT9AYzO-132" value="领" style="rounded=0;whiteSpace=wrap;html=1;fillColor=#f5f5f5;strokeColor=#666666;fontColor=#333333;" vertex="1" parent="1">
          <mxGeometry x="979" y="170" width="40" height="40" as="geometry" />
        </mxCell>
        <mxCell id="1ga72cSjbWooDJT9AYzO-133" value="权重" style="rounded=0;whiteSpace=wrap;html=1;fillColor=#f5f5f5;fontColor=#333333;strokeColor=#666666;" vertex="1" parent="1">
          <mxGeometry x="939" y="170" width="40" height="40" as="geometry" />
        </mxCell>
        <mxCell id="1ga72cSjbWooDJT9AYzO-134" value="元数据id" style="rounded=0;whiteSpace=wrap;html=1;fillColor=#f5f5f5;fontColor=#333333;strokeColor=#666666;" vertex="1" parent="1">
          <mxGeometry x="119" y="170" width="250" height="40" as="geometry" />
        </mxCell>
        <mxCell id="1ga72cSjbWooDJT9AYzO-135" value="限" style="rounded=0;whiteSpace=wrap;html=1;fillColor=#f5f5f5;strokeColor=#666666;fontColor=#333333;" vertex="1" parent="1">
          <mxGeometry x="-131" y="170" width="40" height="40" as="geometry" />
        </mxCell>
        <mxCell id="1ga72cSjbWooDJT9AYzO-136" value="开始时间" style="rounded=0;whiteSpace=wrap;html=1;fillColor=#f5f5f5;fontColor=#333333;strokeColor=#666666;" vertex="1" parent="1">
          <mxGeometry x="369" y="170" width="100" height="40" as="geometry" />
        </mxCell>
        <mxCell id="1ga72cSjbWooDJT9AYzO-137" value="结束时间" style="rounded=0;whiteSpace=wrap;html=1;fillColor=#f5f5f5;fontColor=#333333;strokeColor=#666666;" vertex="1" parent="1">
          <mxGeometry x="469" y="170" width="100" height="40" as="geometry" />
        </mxCell>
        <mxCell id="1ga72cSjbWooDJT9AYzO-138" value="状态" style="rounded=0;whiteSpace=wrap;html=1;fillColor=#f5f5f5;fontColor=#333333;strokeColor=#666666;" vertex="1" parent="1">
          <mxGeometry x="569" y="170" width="80" height="40" as="geometry" />
        </mxCell>
        <mxCell id="1ga72cSjbWooDJT9AYzO-139" value="&lt;u&gt;详情&lt;/u&gt;" style="rounded=0;whiteSpace=wrap;html=1;fillColor=#f5f5f5;fontColor=#333333;strokeColor=#666666;" vertex="1" parent="1">
          <mxGeometry x="649" y="170" width="80" height="40" as="geometry" />
        </mxCell>
      </root>
    </mxGraphModel>
  </diagram>
</mxfile>
